<svg width="59" height="58" viewBox="0 0 59 58" fill="none" xmlns="http://www.w3.org/2000/svg">
<path d="M29.4575 5.51704L15.1504 19.8241L19.9194 24.5932L29.4575 15.0551L38.9956 24.5932L43.7646 19.8241L29.4575 5.51704Z" stroke="#FFA503" stroke-width="3.27019" stroke-miterlimit="10" stroke-linecap="round" stroke-linejoin="round"/>
<path d="M29.4575 53.2075L15.1504 38.9004L19.9194 34.1314L29.4575 43.6694L38.9956 34.1314L43.7646 38.9004L29.4575 53.2075Z" stroke="#FFA503" stroke-width="3.27019" stroke-miterlimit="10" stroke-linecap="round" stroke-linejoin="round"/>
<path d="M48.021 23.8826L42.6255 29.2781L48.021 34.6736L53.4165 29.2781L48.021 23.8826Z" stroke="#FFA503" stroke-width="3.27019" stroke-miterlimit="10" stroke-linecap="round" stroke-linejoin="round"/>
<path d="M11.061 23.8821L5.66553 29.2776L11.061 34.6731L16.4565 29.2776L11.061 23.8821Z" stroke="#FFA503" stroke-width="3.27019" stroke-miterlimit="10" stroke-linecap="round" stroke-linejoin="round"/>
<path d="M29.288 23.4609L23.3867 29.3622L29.288 35.2635L35.1894 29.3622L29.288 23.4609Z" stroke="#FFA503" stroke-width="3.27019" stroke-miterlimit="10" stroke-linecap="round" stroke-linejoin="round"/>
</svg>
