<svg width="184" height="38" viewBox="0 0 184 38" fill="none" xmlns="http://www.w3.org/2000/svg">
<g clip-path="url(#clip0_39_951)">
<path d="M11.2441 16.5395L18.3849 9.35379L25.5286 16.5453L29.6813 12.362L18.3849 0.987061L7.08859 12.359L11.2441 16.5395Z" fill="white"/>
<path d="M-0.00149536 19.4941L4.15253 15.3123L8.30655 19.4941L4.15253 23.676L-0.00149536 19.4941Z" fill="white"/>
<path d="M11.2441 22.4475L18.3848 29.6361L25.5286 22.4446L29.6841 26.6221L29.6812 26.625L18.3848 37.9999L7.08851 26.6309L7.0827 26.625L11.2441 22.4475Z" fill="white"/>
<path d="M28.4562 19.4951L32.6102 15.3133L36.7642 19.4951L32.6102 23.677L28.4562 19.4951Z" fill="white"/>
<path d="M22.5985 19.4921L18.3848 15.2473L15.2689 18.3841L14.9088 18.7437L14.1712 19.4862L14.1654 19.4921L14.1712 19.5008L18.3848 23.7398L22.5985 19.495L22.6014 19.4921H22.5985Z" fill="white"/>
<path d="M43.2456 9.95605H52.2827C54.5245 9.95605 56.2204 10.5407 57.3704 11.7101C57.8036 12.142 58.1452 12.6581 58.3743 13.227C58.6034 13.7958 58.7154 14.4056 58.7033 15.0194V15.0749C58.7111 15.5777 58.6415 16.0786 58.4971 16.56C58.3685 16.9744 58.1817 17.3681 57.9425 17.7293C57.7194 18.07 57.4496 18.377 57.141 18.6414C56.8394 18.9027 56.5091 19.1283 56.1565 19.3138C57.1734 19.6704 58.0877 20.2726 58.8195 21.0678C59.4661 21.8084 59.7894 22.8316 59.7894 24.1374V24.1929C59.8077 25.0084 59.6315 25.8165 59.2754 26.5492C58.9303 27.2243 58.4245 27.8028 57.8031 28.2331C57.1005 28.7072 56.3183 29.0489 55.4944 29.2416C54.5156 29.4753 53.5122 29.5882 52.5063 29.5778H43.2456V9.95605ZM51.3766 17.8901C52.1585 17.9282 52.9366 17.7588 53.633 17.399C53.9046 17.2393 54.1263 17.0062 54.2731 16.7262C54.4199 16.4462 54.4859 16.1304 54.4635 15.8145V15.759C54.4779 15.468 54.4192 15.178 54.2928 14.9159C54.1664 14.6538 53.9765 14.4279 53.7405 14.2593C53.2584 13.9143 52.5624 13.7418 51.6525 13.7418H47.4244V17.8901H51.3766ZM52.5179 25.7979C53.2969 25.8418 54.0722 25.6624 54.7539 25.2804C55.0195 25.1087 55.2345 24.8684 55.3765 24.5846C55.5184 24.3007 55.5822 23.9838 55.5612 23.6667V23.6112C55.5717 23.3098 55.5086 23.0105 55.3775 22.7393C55.2464 22.4682 55.0512 22.2335 54.8091 22.0559C54.3096 21.6662 53.5023 21.4713 52.3872 21.4713H47.4244V25.7979H52.5179Z" fill="white"/>
<path d="M65.1733 9.95605H69.4624V29.5837H65.1733V9.95605Z" fill="white"/>
<path d="M75.9528 9.95605H79.9079L89.0495 22.0355V9.95605H93.2835V29.5837H89.6332L80.1925 17.1067V29.5837H75.9528V9.95605Z" fill="white"/>
<path d="M106.27 9.81567H110.219L118.574 29.5836H114.096L112.313 25.181H104.069L102.286 29.5836H97.9124L106.27 9.81567ZM110.783 21.3689L108.187 15.0018L105.602 21.3689H110.783Z" fill="white"/>
<path d="M123.211 9.95605H127.167L136.302 22.0355V9.95605H140.536V29.5837H136.886L127.445 17.1067V29.5837H123.211V9.95605Z" fill="white"/>
<path d="M155.974 29.9285C154.607 29.9403 153.252 29.6738 151.99 29.145C150.801 28.6512 149.723 27.9229 148.819 27.0031C147.915 26.0833 147.203 24.9906 146.725 23.7894C146.22 22.533 145.965 21.1893 145.973 19.8341V19.7785C145.95 17.1072 146.971 14.5339 148.815 12.6133C149.723 11.6751 150.81 10.9313 152.01 10.4266C153.315 9.88216 154.717 9.61063 156.131 9.62852C156.966 9.62224 157.801 9.69762 158.622 9.85362C159.325 9.98741 160.012 10.1941 160.672 10.4705C161.272 10.7244 161.841 11.044 162.371 11.4235C162.888 11.7936 163.374 12.2062 163.823 12.6571L161.096 15.8261C160.399 15.179 159.618 14.6311 158.773 14.1978C157.943 13.7983 157.033 13.5982 156.113 13.6131C155.348 13.6049 154.589 13.7607 153.888 14.0701C153.188 14.3796 152.56 14.8357 152.048 15.408C151.54 15.9789 151.142 16.6402 150.874 17.3579C150.595 18.1164 150.454 18.9197 150.459 19.7288V19.7844C150.456 20.5923 150.597 21.3942 150.874 22.1523C151.138 22.8726 151.532 23.5376 152.036 24.1139C152.544 24.6934 153.17 25.1561 153.872 25.4708C154.573 25.7856 155.334 25.9449 156.101 25.9381C157.079 25.9691 158.05 25.7572 158.927 25.3212C159.762 24.863 160.534 24.2969 161.224 23.6374L163.954 26.4146C163.472 26.9412 162.95 27.4299 162.394 27.8763C161.848 28.3112 161.255 28.6828 160.626 28.9843C159.956 29.3018 159.25 29.5364 158.523 29.6829C157.684 29.8523 156.83 29.9346 155.974 29.9285Z" fill="white"/>
<path d="M169.015 9.95605H183.689V13.7974H173.235V17.779H182.44V21.6204H173.249V25.7423H183.834V29.5837H169.024L169.015 9.95605Z" fill="white"/>
</g>
<defs>
<clipPath id="clip0_39_951">
<rect width="183.831" height="37.013" fill="white" transform="translate(0 0.987061)"/>
</clipPath>
</defs>
</svg>
