<svg width="59" height="58" viewBox="0 0 59 58" fill="none" xmlns="http://www.w3.org/2000/svg">
<path d="M22.3279 20.7321H33.4984C35.9747 20.7321 37.9832 22.9608 37.9832 25.2169C37.9832 27.6931 35.9747 29.7016 33.4984 29.7016H22.3279V20.7321Z" stroke="#FFA503" stroke-width="4.08774" stroke-miterlimit="10" stroke-linecap="round" stroke-linejoin="round"/>
<path d="M22.3279 29.674H35.0942C37.9281 29.674 40.2118 31.6825 40.2118 34.1588C40.2118 36.635 37.9281 38.6435 35.0942 38.6435H22.3279V29.674Z" stroke="#FFA503" stroke-width="4.08774" stroke-miterlimit="10" stroke-linecap="round" stroke-linejoin="round"/>
<path d="M30.1421 38.6161V43.1008" stroke="#FFA503" stroke-width="4.08774" stroke-miterlimit="10" stroke-linecap="round" stroke-linejoin="round"/>
<path d="M24.5566 38.6161V43.1008" stroke="#FFA503" stroke-width="4.08774" stroke-miterlimit="10" stroke-linecap="round" stroke-linejoin="round"/>
<path d="M30.1421 16.2474V20.7321" stroke="#FFA503" stroke-width="4.08774" stroke-miterlimit="10" stroke-linecap="round" stroke-linejoin="round"/>
<path d="M24.5566 16.2474V20.7321" stroke="#FFA503" stroke-width="4.08774" stroke-miterlimit="10" stroke-linecap="round" stroke-linejoin="round"/>
<path d="M26.5654 20.7321H18.7515" stroke="#FFA503" stroke-width="4.08774" stroke-miterlimit="10" stroke-linecap="round" stroke-linejoin="round"/>
<path d="M26.5654 38.6161H18.7515" stroke="#FFA503" stroke-width="4.08774" stroke-miterlimit="10" stroke-linecap="round" stroke-linejoin="round"/>
<path d="M29.4816 53.2074C42.651 53.2074 53.3268 42.5315 53.3268 29.3622C53.3268 16.1929 42.651 5.51704 29.4816 5.51704C16.3123 5.51704 5.63647 16.1929 5.63647 29.3622C5.63647 42.5315 16.3123 53.2074 29.4816 53.2074Z" stroke="#FFA503" stroke-width="4.08774" stroke-miterlimit="10"/>
</svg>
