<svg width="178" height="30" viewBox="0 0 178 30" fill="none" xmlns="http://www.w3.org/2000/svg">
<g clip-path="url(#clip0_39_966)">
<path d="M15.4602 1.22009H32.0936C32.0835 1.436 32.0075 1.64393 31.8754 1.81688C31.3123 2.76457 30.8055 3.75093 30.2523 4.69862C29.4696 6.05936 28.7376 7.44496 27.9423 8.80018C27.4383 9.77549 26.8696 10.7204 26.3319 11.6791C23.0998 11.6791 19.8677 11.6791 16.6357 11.6791C16.4667 11.6791 16.2992 11.6874 16.1303 11.6971C15.9895 12.0618 15.7559 12.3809 15.5672 12.7235C15.3209 13.1159 15.121 13.5344 14.8775 13.9268C14.6199 14.4545 14.2637 14.927 14.0047 15.4533C13.4698 16.3443 12.97 17.2492 12.4464 18.1499C11.9002 19.0709 11.3662 20.0048 10.8444 20.9515C10.6236 21.2871 10.4202 21.6333 10.2349 21.989C9.1411 23.8567 8.08252 25.741 6.98733 27.6074C6.89444 27.808 6.77207 27.9942 6.62414 28.16C4.75191 28.1476 2.87967 28.16 1.00744 28.16C0.776845 28.1643 0.547617 28.1958 0.324707 28.2539C0.324707 27.7456 0.671 27.338 0.904677 26.9111C1.18622 26.3378 1.56207 25.806 1.84502 25.2313C4.08888 21.2914 6.30882 17.3376 8.54565 13.3949C9.05242 12.5384 9.48739 11.6639 9.99698 10.824C10.6333 9.71885 11.2259 8.58881 11.8889 7.49608C12.1001 7.03881 12.3844 6.62023 12.6167 6.17402C13.4416 4.73315 14.251 3.284 15.0731 1.84313C15.1707 1.61811 15.3011 1.40823 15.4602 1.22009Z" fill="white"/>
<path d="M34.7344 7.02103C35.8423 5.12151 36.9121 3.20128 38.0354 1.31006H44.0435C44.131 1.3144 44.2178 1.32783 44.3025 1.35012C44.1026 1.64714 43.9351 1.96211 43.7591 2.27156C42.3101 4.82358 40.8654 7.37698 39.4248 9.93177C38.8195 10.972 38.2565 12.0357 37.6427 13.0704L37.5822 13.0912L37.5709 13.221C34.7461 18.1943 31.9307 23.1712 29.1247 28.1519C23.6094 28.1574 18.0936 28.1574 12.5773 28.1519C12.8912 27.5081 13.2628 26.8934 13.6119 26.2676C15.1829 23.4328 16.7947 20.6229 18.3432 17.7881C21.732 17.7826 25.1208 17.7826 28.5096 17.7881C30.6028 14.2102 32.651 10.6045 34.7288 7.02103H34.7344Z" fill="white"/>
<path d="M96.7392 1.23682V28.4793H101.549V9.32252L110.323 21.9394L119.027 9.02274V28.4793H123.978V1.23682H118.653L110.359 13.8123L101.972 1.23682H96.7392Z" fill="white"/>
<path d="M74.24 8.26294H77.3834V28.7086H74.24V8.26294Z" fill="white"/>
<path d="M73.9696 0.688354H77.6536V4.11853H73.9696V0.688354Z" fill="white"/>
<path d="M83.3899 2.40405H86.6741V8.26284H93.1495V11.1183H86.6741V23.2641C86.6684 23.7321 86.7791 24.1945 86.9964 24.6111C87.5525 25.6472 89.0629 26.8767 93.1495 25.4399V28.0868C93.1495 28.0868 89.4191 30.159 86.0406 28.2719C86.0406 28.2719 84.3626 27.5729 83.6574 25.2134C83.4742 24.5813 83.3841 23.9268 83.3899 23.2697V11.0727L80.621 11.1183V8.26284H83.4124L83.3899 2.40405Z" fill="white"/>
<path d="M129.046 1.23682V28.663H149.926V24.2423H134.137V16.9662H148.05V12.6145H134.113V5.68513H149.763V1.23682H129.046Z" fill="white"/>
<path d="M151.885 1.23682H157.833L164.66 10.8656L171.434 1.23682H177.382L167.669 14.6121L177.987 28.6395H171.723L164.684 18.3946L157.305 28.663H151.358L161.528 14.7337L151.885 1.23682Z" fill="white"/>
<path d="M64.6198 14.4339C64.6198 14.4339 69.2187 12.7305 68.9372 7.82635C68.9372 7.82635 68.8992 3.11004 63.488 1.65398C62.5883 1.41741 61.6603 1.30032 60.7289 1.30585H47.7513L47.7865 28.5483H61.7579C61.7579 28.5483 69.9338 28.3756 70.5096 21.2265C70.5096 21.2265 71.0952 16.2298 64.6198 14.4339ZM51.1059 4.11851H59.3888C65.8867 4.09641 65.6995 8.58616 65.6995 8.58616C65.7966 13.7086 59.8336 13.605 59.8336 13.605H51.1059V4.11851ZM61.2413 25.6693H51.1059V16.1842H60.7965C67.2944 16.1607 67.1072 20.6505 67.1072 20.6505C67.2043 25.7729 61.2413 25.6693 61.2413 25.6693Z" fill="white"/>
</g>
<defs>
<clipPath id="clip0_39_966">
<rect width="177.662" height="28.3766" fill="white" transform="translate(0.324707 0.688354)"/>
</clipPath>
</defs>
</svg>
