<svg width="186" height="38" viewBox="0 0 186 38" fill="none" xmlns="http://www.w3.org/2000/svg">
<g clip-path="url(#clip0_39_977)">
<path d="M40.865 30.4132V7.25317H48.3236C50.6018 7.25317 52.4118 7.74463 53.7225 8.72754C55.002 9.5876 55.751 11.0313 55.7198 12.5671C55.751 13.7957 55.3453 14.9936 54.5963 15.9766C53.8162 16.9595 52.7239 17.6967 51.4756 18.0345V18.096C52.9423 18.2188 54.3155 18.8332 55.3453 19.8775C56.3128 20.8604 56.7809 22.1812 56.7809 23.7477C56.8121 25.6521 55.9383 27.4337 54.4091 28.5702C52.8175 29.7988 50.8202 30.4132 48.4172 30.4132H40.865ZM44.7659 10.3248V16.898H47.2938C48.6357 16.898 49.728 16.5909 50.4769 15.9458C51.2571 15.3315 51.6316 14.4407 51.6316 13.2735C51.6316 11.3077 50.2897 10.2941 47.6058 10.2941L44.7659 10.3248ZM44.7659 20.0004V27.3108H48.1052C49.5719 27.3108 50.6954 26.9729 51.4756 26.3279C52.287 25.6521 52.7239 24.6385 52.6615 23.5942C52.6615 21.1983 50.9763 20.0004 47.6058 20.0004H44.7659ZM64.5516 30.4132H60.7443V5.93237H64.5516V30.4132ZM76.941 30.7817C74.3508 30.7817 72.2911 30.0138 70.7307 28.478C69.1703 26.9422 68.4213 24.8842 68.4213 22.3348C68.4213 19.5703 69.2327 17.3895 70.8555 15.823C72.4783 14.2565 74.6316 13.4885 77.3779 13.4885C79.9994 13.4885 82.0591 14.2565 83.5258 15.7615C84.9926 17.2666 85.7104 19.3861 85.7104 22.0584C85.7104 24.6999 84.9302 26.8194 83.3386 28.3859C81.747 29.9831 79.6249 30.7817 76.941 30.7817ZM77.1283 16.468C75.7863 16.4066 74.4756 16.9902 73.6018 18.0038C72.728 19.0175 72.3223 20.4304 72.3223 22.2427C72.3223 23.9628 72.7592 25.345 73.633 26.3279C74.5068 27.3108 75.8175 27.8637 77.1283 27.833C78.6262 27.833 79.7809 27.3415 80.5923 26.3586C81.4037 25.3757 81.8094 23.9935 81.8094 22.1812C81.8094 20.369 81.4037 18.956 80.5923 17.9731C79.7809 16.9595 78.6262 16.468 77.1283 16.468ZM101.595 29.6453C100.128 30.4439 98.4743 30.8432 96.8203 30.7817C94.3237 30.7817 92.3264 30.0138 90.7972 28.478C89.268 26.9422 88.519 24.9457 88.4878 22.5191C88.4878 19.7854 89.2992 17.6045 90.9532 15.9458C92.6072 14.2872 94.7918 13.4578 97.5381 13.4578C98.9424 13.4271 100.316 13.7036 101.595 14.2565V17.7581C100.534 16.9288 99.2233 16.468 97.8501 16.468C96.3522 16.4066 94.9166 16.9902 93.8868 18.0653C92.8569 19.1403 92.3576 20.5533 92.3576 22.2734C92.3576 23.9935 92.8569 25.345 93.7931 26.3279C94.7606 27.3108 96.0713 27.8023 97.6941 27.8023C99.1296 27.7716 100.472 27.2801 101.564 26.3586L101.595 29.6453ZM120.6 30.4132H115.795L109.272 22.4577H109.21V30.4132H105.402V5.93237H109.21V21.444H109.272L115.451 13.8571H119.976L113.048 21.8433L120.6 30.4132ZM150.685 30.7817C148.094 30.7817 146.035 30.0138 144.474 28.478C142.914 26.9422 142.165 24.8842 142.165 22.3348C142.165 19.5703 142.976 17.3895 144.599 15.823C146.222 14.2565 148.375 13.4885 151.122 13.4885C153.743 13.4885 155.803 14.2565 157.269 15.7615C158.736 17.2666 159.454 19.3861 159.454 22.0584C159.454 24.6999 158.674 26.8194 157.082 28.3859C155.459 29.9831 153.337 30.7817 150.685 30.7817ZM150.841 16.468C149.499 16.4066 148.188 16.9902 147.314 18.0038C146.44 19.0175 146.035 20.4304 146.035 22.2427C146.035 23.9628 146.472 25.345 147.345 26.3279C148.219 27.3108 149.53 27.8637 150.841 27.8023C152.339 27.8023 153.493 27.3108 154.305 26.3279C155.116 25.345 155.522 23.9628 155.522 22.1505C155.522 20.3383 155.116 18.9253 154.305 17.9424C153.493 16.9595 152.37 16.468 150.841 16.468ZM185.544 30.2289C184.607 30.6282 183.609 30.8125 182.61 30.7817C179.364 30.7817 177.71 29.2459 177.71 26.1743V16.8059H174.902V13.8571H177.71V10.0483L181.518 8.97327V13.8571H185.544V16.8059H181.518V25.0685C181.518 26.0515 181.705 26.7579 182.048 27.1572C182.423 27.5873 183.016 27.7716 183.858 27.7716C184.451 27.7716 185.044 27.5873 185.544 27.2187V30.2289ZM137.141 15.7615C135.674 14.2565 133.645 13.4885 130.993 13.4885C129.526 13.4578 128.09 13.7343 126.78 14.3179L122.972 13.8571V38H126.78V30.0446C127.997 30.5667 129.276 30.8125 130.587 30.7817C133.24 30.7817 135.393 29.9831 136.953 28.3859C138.545 26.7886 139.325 24.6999 139.325 22.0584C139.325 19.3861 138.607 17.2666 137.141 15.7615ZM134.238 26.3586C133.427 27.3415 132.272 27.833 130.774 27.833C129.12 27.9251 127.591 27.0651 126.78 25.6521V18.6796C126.904 18.4339 127.06 18.2188 127.248 18.0038C128.122 16.9902 129.432 16.4066 130.774 16.468C132.272 16.468 133.427 16.9595 134.238 17.9424C135.05 18.9253 135.455 20.3383 135.455 22.1505C135.424 23.9628 135.05 25.345 134.238 26.3586ZM171.313 13.5807C169.846 13.55 168.411 13.8571 167.069 14.4407L163.261 13.98V30.4132H167.069V18.8332C167.193 18.5874 167.35 18.3417 167.537 18.096C168.411 17.0823 169.721 16.4987 171.063 16.5602C171.75 16.5602 172.405 16.683 173.061 16.9288V13.7036C172.468 13.6114 171.875 13.5807 171.313 13.5807Z" fill="white"/>
<path d="M17.8963 31.3345C10.5313 31.3345 4.53943 25.4678 4.53943 18.188C4.53943 10.9083 10.5001 5.0415 17.8963 5.0415C25.2925 5.0415 31.2532 10.9083 31.2532 18.188C31.2532 25.4063 25.2613 31.3038 17.8963 31.3345ZM17.8963 9.31105C12.9343 9.31105 8.9085 13.2734 8.9085 18.1573C8.9085 23.0412 12.9343 27.0036 17.8963 27.0036C22.8583 27.0036 26.8529 23.0719 26.8841 18.188C26.8529 13.2734 22.8583 9.34177 17.8963 9.31105Z" fill="white"/>
<path d="M33.6247 25.5907L33.7184 25.4064C37.8066 16.9288 34.1553 6.7617 25.5108 2.73788C25.3547 2.67645 25.1987 2.5843 25.0427 2.52287V2.46144C24.8554 2.4 24.6994 2.33857 24.5121 2.24642C24.2937 2.15428 24.044 2.06213 23.8256 1.96998C23.5135 1.84711 23.2014 1.75496 22.8581 1.66282C22.6397 1.60138 22.39 1.53995 22.1715 1.47852C21.8283 1.38637 21.485 1.32494 21.1417 1.26351C20.9232 1.23279 20.736 1.20207 20.5175 1.17136C20.1743 1.10993 19.7998 1.07921 19.4565 1.04849C19.2692 1.01778 19.082 1.01778 18.8635 1.01778C18.489 0.987061 18.1458 0.987061 17.7713 0.987061C17.584 0.987061 17.3656 0.987061 17.1783 1.01778C16.8038 1.04849 16.4605 1.04849 16.1173 1.07921C15.8988 1.10993 15.6804 1.14064 15.4931 1.17136C15.181 1.20207 14.8378 1.26351 14.5257 1.32494C14.276 1.38637 14.0264 1.41709 13.8079 1.47852C13.5894 1.53995 13.215 1.6321 12.9341 1.72425L12.0915 2.00069C11.8106 2.09284 11.6234 2.15428 11.4049 2.27714C11.0928 2.4 10.812 2.52287 10.4999 2.67645C10.3126 2.7686 10.0942 2.86075 9.90694 2.9529C9.59487 3.10648 9.28279 3.29077 8.97072 3.47507C8.81468 3.56722 8.62743 3.65937 8.47139 3.78223C8.15932 3.99725 7.84724 4.18154 7.56637 4.39656C7.41033 4.51942 7.2543 4.64229 7.09826 4.73443C6.81739 4.94945 6.53652 5.19518 6.25565 5.41019C6.09961 5.56377 5.94357 5.68664 5.78754 5.84022C5.53788 6.08595 5.28821 6.33168 5.06976 6.5774C4.91372 6.7617 4.75768 6.91528 4.60165 7.09958C4.38319 7.34531 4.16474 7.62175 3.97749 7.86748C3.82146 8.05178 3.69662 8.26679 3.54059 8.48181C3.44696 8.63539 3.32213 8.78897 3.1973 8.94255C3.07247 9.09613 3.04127 9.18828 2.94764 9.31114C2.82281 9.49544 2.72919 9.67974 2.63557 9.86403C2.44832 10.2019 2.26107 10.5398 2.10504 10.9084C2.04262 10.9698 2.01141 11.062 1.98021 11.1234C1.949 11.1848 1.91779 11.3077 1.88658 11.3691C1.73054 11.7377 1.57451 12.137 1.44968 12.5056C1.38726 12.6592 1.32485 12.8435 1.29364 12.9971C1.16881 13.3657 1.07518 13.7343 0.981561 14.1336C0.950353 14.3179 0.887938 14.5022 0.85673 14.6865C0.794315 15.0244 0.7319 15.3929 0.669485 15.7308L0.575862 16.3759C0.544654 16.7137 0.513446 17.0209 0.513446 17.3588C0.513446 17.6045 0.482239 17.8195 0.482239 18.0653C0.482239 18.3724 0.482239 18.6796 0.513446 18.9867C0.513446 19.2325 0.544654 19.4782 0.575862 19.7239C0.607069 20.0311 0.638277 20.3383 0.700692 20.6454C0.7319 20.8604 0.763107 21.1062 0.794315 21.3519C0.85673 21.659 0.919146 21.9662 1.01277 22.2734C1.07518 22.4884 1.1376 22.7034 1.20001 22.9491C1.29364 23.2563 1.41847 23.5942 1.51209 23.9013C1.57451 24.1163 1.66813 24.3006 1.73054 24.4849C1.85537 24.7921 2.01141 25.13 2.13624 25.4371L2.41711 25.99C2.57315 26.2972 2.7604 26.6044 2.91643 26.8808C3.01006 27.0651 3.13489 27.2494 3.25972 27.4337C3.44696 27.7101 3.63421 27.9866 3.82146 28.2323C3.94629 28.4166 4.10232 28.6009 4.25836 28.8159C4.4144 29.0309 4.63285 29.2767 4.85131 29.4917C5.06976 29.7067 5.2258 29.891 5.41304 30.106C5.60029 30.321 5.78754 30.4746 5.97478 30.6589C6.16203 30.8432 6.4429 31.0889 6.69256 31.3039C6.8798 31.4575 7.03584 31.5804 7.22309 31.734C7.50396 31.949 7.78483 32.164 8.0969 32.3483C8.15932 32.4097 8.25294 32.4711 8.31536 32.5019C16.2109 37.7236 26.9775 35.6349 32.2828 27.833C32.3764 27.7101 32.4701 27.5566 32.5637 27.403H32.5949C32.6573 27.3108 32.6885 27.2187 32.7509 27.1265L33.1254 26.4815C33.2815 26.205 33.4687 25.8979 33.6247 25.5907ZM11.3113 32.594C10.4375 32.1947 9.59487 31.734 8.81468 31.2118C8.53381 31.0275 8.25294 30.8432 8.00328 30.6282C7.84724 30.5053 7.66 30.3824 7.50396 30.2289C7.2543 30.0446 7.03584 29.8295 6.81739 29.6453C6.59894 29.461 6.4741 29.3074 6.28686 29.1538C6.09961 29.0002 5.94357 28.7852 5.75633 28.6009C5.56908 28.4166 5.38184 28.2016 5.2258 27.9866C5.06976 27.7716 4.94493 27.6487 4.8201 27.4644C4.63285 27.2187 4.47682 26.9729 4.28957 26.7272C4.19595 26.5736 4.07112 26.3893 3.97749 26.2358L3.50938 25.4064C3.41576 25.2528 3.35334 25.0685 3.25972 24.915C3.13489 24.6078 3.01006 24.3314 2.88523 24.0242L2.69798 23.4713C2.60436 23.1949 2.47953 22.8877 2.41711 22.5805C2.3547 22.3655 2.32349 22.1812 2.26107 21.9969C2.19866 21.7205 2.13624 21.4133 2.07383 21.1369C2.04262 20.9219 2.01141 20.7068 1.949 20.4918C1.91779 20.2154 1.85537 19.9082 1.85537 19.6318C1.82417 19.4168 1.82417 19.2018 1.79296 18.9867C1.79296 18.7103 1.76175 18.4031 1.76175 18.1267C1.76175 17.9117 1.76175 17.6967 1.79296 17.4816C1.79296 17.1745 1.82417 16.8673 1.85537 16.5602C1.88658 16.3759 1.91779 16.1916 1.91779 15.9766C1.98021 15.6387 2.01141 15.3008 2.10504 14.9936C2.13624 14.8401 2.16745 14.6558 2.22987 14.5022C2.32349 14.1336 2.41711 13.7957 2.54194 13.4578C2.60436 13.2735 2.63557 13.1199 2.69798 12.9664C2.82281 12.5978 2.97885 12.2599 3.10368 11.8913C3.1661 11.7377 3.22851 11.6149 3.29093 11.4613C3.44696 11.1234 3.603 10.8162 3.79025 10.4784C3.88387 10.3248 3.97749 10.1405 4.07112 9.95618C4.22716 9.67974 4.4144 9.40329 4.60165 9.15756C4.72648 8.97327 4.85131 8.78897 5.00735 8.60467C5.19459 8.35894 5.38184 8.11321 5.60029 7.86748C5.72512 7.7139 5.88116 7.52961 6.0372 7.40674C6.25565 7.16101 6.50531 6.946 6.72377 6.70027C6.8486 6.5774 7.00463 6.45454 7.16067 6.33168C7.41033 6.11666 7.66 5.90165 7.94086 5.68664C8.06569 5.56377 8.22173 5.47162 8.37777 5.37947C8.65864 5.16446 8.93951 4.98016 9.22038 4.79587L9.68849 4.51942C9.96936 4.36584 10.2502 4.18154 10.5623 4.05868C10.7496 3.96653 10.9056 3.87438 11.0928 3.81295L11.9354 3.44435C12.1539 3.35221 12.3723 3.29077 12.5908 3.19863C12.8405 3.10648 13.0901 3.01433 13.371 2.9529C13.5582 2.92218 13.8079 2.83003 14.0888 2.7686C14.3072 2.70717 14.5257 2.67645 14.7753 2.61502C15.0874 2.55359 15.3683 2.49215 15.6804 2.46144C15.8676 2.43072 16.0861 2.4 16.2733 2.4C16.6166 2.36929 16.9287 2.33857 17.2719 2.33857H17.8025C18.1458 2.33857 18.489 2.33857 18.8323 2.36929L19.3629 2.4C19.7061 2.43072 20.0494 2.46144 20.3615 2.52287L20.9232 2.61502C21.2353 2.67645 21.5474 2.73788 21.8907 2.83003C22.1091 2.89146 22.2964 2.9529 22.5148 2.98361C22.8269 3.07576 23.1078 3.16791 23.4199 3.26006C23.6383 3.32149 23.8256 3.41364 24.044 3.50579C32.2516 6.7617 36.1838 15.9458 32.8758 24.0242C32.7509 24.3621 32.5949 24.6692 32.4389 25.0071C32.2828 25.3143 32.1268 25.5907 31.9707 25.8672C31.8771 26.0515 31.7523 26.2358 31.6275 26.4508C27.352 33.239 18.6763 35.8499 11.3113 32.594Z" fill="white"/>
</g>
<defs>
<clipPath id="clip0_39_977">
<rect width="185.065" height="37.013" fill="white" transform="translate(0.48053 0.987061)"/>
</clipPath>
</defs>
</svg>
