<svg width="93" height="36" viewBox="0 0 93 36" fill="none" xmlns="http://www.w3.org/2000/svg">
<path fill-rule="evenodd" clip-rule="evenodd" d="M3.1238 1.15622V26.4065C3.1238 26.7164 3.01014 27.0137 2.80783 27.2328C2.60553 27.452 2.33114 27.5751 2.04504 27.5751H1.79256C1.19678 27.5751 0.713806 27.0519 0.713806 26.4065V1.15622C0.720097 0.515649 1.20124 -3.62506e-05 1.79256 0H2.04504C2.63637 -3.62506e-05 3.1175 0.515649 3.1238 1.15622ZM16.3564 17.1625C16.5842 16.9275 16.8911 16.804 17.2053 16.8211L17.1479 16.8459C17.4819 16.809 17.814 16.9324 18.0568 17.1834C18.2996 17.4345 18.4288 17.7882 18.4103 18.1513V24.9892C18.4103 25.7101 17.8708 26.2946 17.2053 26.2946C16.5398 26.2946 16.0003 25.7101 16.0003 24.9892V18.0643C15.9999 17.7235 16.1286 17.3975 16.3564 17.1625ZM19.8001 20.7621C19.8001 20.0755 20.3139 19.5189 20.9477 19.5189C21.2798 19.4859 21.6087 19.6109 21.8489 19.8616C22.0891 20.1122 22.2167 20.4636 22.1986 20.8243V22.3286C22.1986 23.0462 21.6617 23.6278 20.9994 23.6278C20.3371 23.6278 19.8001 23.0462 19.8001 22.3286V20.7621ZM10.7326 31.1059V22.1173C10.3738 22.4128 9.93234 22.5663 9.48174 22.5524C9.06841 22.5413 8.66804 22.3938 8.33413 22.1297V31.1059C8.33413 31.8234 8.87106 32.4051 9.53339 32.4051C10.1957 32.4051 10.7326 31.8234 10.7326 31.1059ZM5.72895 25.5238C5.316 25.5104 4.91625 25.3631 4.58133 25.1011V34.1146C4.58133 34.8355 5.12083 35.42 5.78633 35.42C6.45183 35.42 6.99132 34.8355 6.99132 34.1146V25.1632C6.61657 25.4256 6.17441 25.5519 5.72895 25.5238ZM13.3951 19.4816C12.9629 19.4784 12.5421 19.3308 12.1901 19.0589V28.0973C12.1901 28.8183 12.7296 29.4027 13.3951 29.4027C14.0606 29.4027 14.6001 28.8183 14.6001 28.0973V19.0714C14.236 19.3652 13.7916 19.5184 13.3377 19.5065L13.3951 19.4816ZM5.8552 24.5665H5.60273C5.00694 24.5665 4.52397 24.0432 4.52397 23.3978V4.16484C4.53026 3.52428 5.0114 3.00859 5.60273 3.00863H5.8552C6.44653 3.00859 6.92767 3.52428 6.93396 4.16484V23.4227C6.93396 24.0681 6.45098 24.5913 5.8552 24.5913V24.5665ZM9.38994 21.6076H9.65389C10.2433 21.6076 10.7212 21.0899 10.7212 20.4513V7.14864C10.7212 6.50804 10.2452 5.98681 9.65389 5.97999H9.38994C9.10488 5.97998 8.83166 6.1035 8.63117 6.32303C8.43068 6.54255 8.31959 6.83985 8.32266 7.14864V20.4513C8.32266 21.0899 8.8005 21.6076 9.38994 21.6076ZM13.4523 18.5616H13.2113C12.62 18.5616 12.1388 18.046 12.1325 17.4054V10.2443C12.1135 9.92165 12.2187 9.60487 12.4231 9.36929C12.6275 9.13372 12.9128 9.00041 13.2113 9.00107H13.4638C14.0595 9.00107 14.5425 9.52429 14.5425 10.1697V17.3805C14.5456 17.6926 14.4333 17.9931 14.2306 18.2149C14.028 18.4368 13.7519 18.5616 13.4638 18.5616H13.4523ZM17.0098 15.8886H17.2623H17.2738C17.8651 15.8818 18.3411 15.3606 18.3411 14.72V12.8675C18.3348 12.227 17.8536 11.7113 17.2623 11.7113H17.0098C16.4185 11.7113 15.9374 12.227 15.9311 12.8675V14.72C15.9311 15.3654 16.4141 15.8886 17.0098 15.8886Z" fill="#9893A3" fill-opacity="0.6"/>
<path d="M42.997 16.333C42.997 17.8564 42.6718 19.0459 42.0214 19.9014C41.371 20.751 40.4628 21.1758 39.2968 21.1758C38.2656 21.1758 37.4423 20.7803 36.8271 19.9893L36.7128 21H34.4277V7.5H36.9677V12.3428C37.5536 11.6572 38.3242 11.3145 39.2792 11.3145C40.4394 11.3145 41.3476 11.7422 42.0038 12.5977C42.666 13.4473 42.997 14.6455 42.997 16.1924V16.333ZM40.457 16.1484C40.457 15.1875 40.3046 14.4873 39.9999 14.0479C39.6953 13.6025 39.2411 13.3799 38.6376 13.3799C37.829 13.3799 37.2724 13.7109 36.9677 14.373V18.126C37.2783 18.7939 37.8408 19.1279 38.6552 19.1279C39.4755 19.1279 40.0146 18.7236 40.2724 17.915C40.3954 17.5283 40.457 16.9395 40.457 16.1484ZM51.2656 20.0332C50.6386 20.7949 49.7714 21.1758 48.664 21.1758C47.6445 21.1758 46.8652 20.8828 46.3261 20.2969C45.7929 19.7109 45.5204 18.8525 45.5087 17.7217V11.4902H48.0488V17.6338C48.0488 18.624 48.4999 19.1191 49.4023 19.1191C50.2636 19.1191 50.8554 18.8203 51.1777 18.2227V11.4902H53.7265V21H51.3359L51.2656 20.0332ZM60.1933 17.4053L61.9511 11.4902H64.6757L60.8525 22.4766L60.6415 22.9775C60.0732 24.2197 59.1357 24.8408 57.829 24.8408C57.4599 24.8408 57.0849 24.7852 56.704 24.6738V22.749L57.0908 22.7578C57.5712 22.7578 57.9286 22.6846 58.163 22.5381C58.4033 22.3916 58.5908 22.1484 58.7255 21.8086L59.0244 21.0264L55.6933 11.4902H58.4267L60.1933 17.4053ZM68.0312 11.4902L68.0663 13.0371C68.4179 12.4629 68.8574 12.0322 69.3847 11.7451C69.912 11.458 70.498 11.3145 71.1425 11.3145C72.6425 11.3145 73.5947 11.9297 73.999 13.1602C74.3388 12.5684 74.7929 12.1143 75.3613 11.7979C75.9296 11.4756 76.5566 11.3145 77.2421 11.3145C79.2812 11.3145 80.3212 12.4277 80.3622 14.6543V21H79.3076V14.7334C79.3017 13.8838 79.1171 13.2539 78.7538 12.8438C78.3964 12.4336 77.8105 12.2285 76.996 12.2285C76.2402 12.2402 75.6015 12.4863 75.08 12.9668C74.5585 13.4414 74.2685 14.0215 74.2099 14.707V21H73.1552V14.6543C73.1494 13.8398 72.956 13.2334 72.5751 12.835C72.2001 12.4307 71.6201 12.2285 70.8349 12.2285C70.1728 12.2285 69.6044 12.4189 69.1298 12.7998C68.6552 13.1748 68.3036 13.7344 68.0751 14.4785V21H67.0204V11.4902H68.0312ZM87.7167 21.1758C86.9081 21.1758 86.1757 20.9766 85.5195 20.5781C84.8691 20.1797 84.3622 19.626 83.999 18.917C83.6357 18.2021 83.454 17.4023 83.454 16.5176V16.1396C83.454 15.2256 83.6298 14.4023 83.9814 13.6699C84.3388 12.9375 84.8339 12.3633 85.4667 11.9473C86.0995 11.5254 86.7851 11.3145 87.5234 11.3145C88.6777 11.3145 89.5917 11.71 90.2656 12.501C90.9453 13.2861 91.2851 14.3613 91.2851 15.7266V16.3154H84.4999V16.5176C84.4999 17.5957 84.8076 18.4951 85.4228 19.2158C86.0439 19.9307 86.8232 20.2881 87.7607 20.2881C88.3232 20.2881 88.8183 20.1855 89.246 19.9805C89.6796 19.7754 90.0722 19.4473 90.4238 18.9961L91.0829 19.4971C90.3095 20.6162 89.1874 21.1758 87.7167 21.1758ZM87.5234 12.2109C86.7324 12.2109 86.0644 12.501 85.5195 13.0811C84.9804 13.6611 84.6523 14.4404 84.5351 15.4189H90.2392V15.3047C90.2099 14.3906 89.9492 13.6465 89.457 13.0723C88.9648 12.498 88.3203 12.2109 87.5234 12.2109Z" fill="#9893A3" fill-opacity="0.6"/>
</svg>
