<svg width="170" height="38" viewBox="0 0 170 38" fill="none" xmlns="http://www.w3.org/2000/svg">
<g clip-path="url(#clip0_39_982)">
<path d="M11.0794 37.0356C5.56235 37.0356 0.162109 33.0405 0.162109 24.0223C0.162109 14.9746 5.56235 11.0383 11.0794 11.0383C13.7941 11.0383 15.925 11.7433 17.4429 12.7421L15.779 16.414C14.7574 15.6796 13.2395 15.2096 11.7216 15.2096C8.39383 15.2096 5.35802 17.8534 5.35802 23.9635C5.35802 30.0736 8.48141 32.7761 11.7216 32.7761C13.2395 32.7761 14.7574 32.3061 15.779 31.5717L17.4429 35.3318C15.8666 36.3893 13.7941 37.0356 11.0794 37.0356Z" fill="white"/>
<path d="M30.0824 37.0356C23.0475 37.0356 19.1652 31.4249 19.1652 24.0223C19.1652 16.6197 23.0183 11.0383 30.0824 11.0383C37.1173 11.0383 40.9997 16.5903 40.9997 24.0223C40.9997 31.4249 37.1173 37.0356 30.0824 37.0356ZM30.0824 15.0628C26.1709 15.0628 24.2443 18.5878 24.2443 23.9635C24.2443 29.3392 26.1709 32.8936 30.0824 32.8936C33.9939 32.8936 35.9205 29.3392 35.9205 23.9635C35.9205 18.5878 33.9939 15.0628 30.0824 15.0628Z" fill="white"/>
<path d="M47.7719 7.01392C46.108 7.01392 44.7653 5.72141 44.7653 4.13514C44.7653 2.54886 46.108 1.25635 47.7719 1.25635C49.4357 1.25635 50.7785 2.54886 50.7785 4.13514C50.7785 5.72141 49.4066 7.01392 47.7719 7.01392ZM45.2323 11.5377H50.3115V36.5068H45.2323V11.5377Z" fill="white"/>
<path d="M70.2194 36.5068V19.8509C70.2194 16.9428 68.468 15.1215 65.0235 15.1215C63.1845 15.1215 61.4914 15.4446 60.4697 15.8559V36.5362H55.449V12.8009C57.9302 11.7727 61.1119 11.0383 64.9943 11.0383C71.9416 11.0383 75.2985 14.0934 75.2985 19.3809V36.5362H70.2194" fill="white"/>
<path d="M88.6385 37.0355C85.4276 37.0355 82.2458 36.2424 80.29 35.273V0.140015H85.3108V12.1839C86.5076 11.6258 88.4342 11.1558 90.1564 11.1558C96.5491 11.1558 100.899 15.7971 100.899 23.4347C100.899 32.8642 96.0529 37.0355 88.6385 37.0355ZM89.2807 15.1215C87.9088 15.1215 86.2741 15.4446 85.3108 15.944V32.3354C86.0406 32.6586 87.4709 32.9817 88.9012 32.9817C92.9003 32.9817 95.8486 30.191 95.8486 23.8166C95.8778 18.3528 93.309 15.1215 89.2807 15.1215Z" fill="white"/>
<path d="M114.56 37.0356C107.437 37.0356 103.818 34.1274 103.818 29.1923C103.818 22.2304 111.174 20.9966 118.676 20.5853V18.9991C118.676 15.8559 116.603 14.7396 113.421 14.7396C111.086 14.7396 108.225 15.474 106.562 16.2672L105.277 12.8009C107.262 11.9196 110.619 11.0383 113.947 11.0383C119.872 11.0383 123.492 13.359 123.492 19.5278V35.273C121.711 36.2424 118.063 37.0356 114.56 37.0356ZM118.705 23.9635C113.626 24.2279 108.576 24.6685 108.576 29.1042C108.576 31.748 110.59 33.3636 114.414 33.3636C116.019 33.3636 117.917 33.0993 118.705 32.7174V23.9635Z" fill="white"/>
<path d="M134.818 37.0356C131.928 37.0356 128.892 36.2424 127.083 35.273L128.776 31.3955C130.06 32.1886 132.775 33.0111 134.672 33.0111C137.387 33.0111 139.197 31.6599 139.197 29.5742C139.197 27.3123 137.299 26.431 134.789 25.491C131.461 24.2279 127.754 22.7004 127.754 18.0297C127.754 13.9171 130.936 11.0383 136.453 11.0383C139.459 11.0383 141.941 11.7727 143.692 12.8009L142.116 16.3259C141.006 15.6209 138.788 14.8571 137.007 14.8571C134.38 14.8571 132.921 16.2378 132.921 18.059C132.921 20.321 134.76 21.1141 137.212 22.0541C140.656 23.3466 144.48 24.786 144.48 29.6623C144.451 34.098 141.036 37.0356 134.818 37.0356Z" fill="white"/>
<path d="M168.942 23.9048L152.449 26.2255C152.945 30.7199 155.864 32.9818 160.039 32.9818C162.52 32.9818 165.205 32.365 166.898 31.4543L168.358 35.2437C166.431 36.2719 163.104 37.0063 159.688 37.0063C151.865 37.0063 147.487 31.9537 147.487 23.993C147.487 16.3554 151.719 11.009 158.667 11.009C165.118 11.009 168.942 15.2685 168.942 21.9954C169 22.6123 169 23.2586 168.942 23.9048ZM158.637 14.7397C154.784 14.7397 152.245 17.7066 152.157 22.9061L164.184 21.2317C164.125 16.8841 161.936 14.7397 158.637 14.7397Z" fill="white"/>
</g>
<defs>
<clipPath id="clip0_39_982">
<rect width="169.026" height="37.013" fill="white" transform="translate(0.0389404 0.052002)"/>
</clipPath>
</defs>
</svg>
