<svg width="58" height="58" viewBox="0 0 58 58" fill="none" xmlns="http://www.w3.org/2000/svg">
<path d="M16.4829 22.4471L27.9286 17.4396C28.4055 17.2012 28.8824 17.2012 29.5978 17.4396L41.0434 22.4471C41.9973 22.924 42.9511 21.7318 42.2357 20.778L30.3131 6.2324C29.5978 5.27859 28.1671 5.27859 27.4517 6.2324L15.5291 20.778C14.5753 21.7318 15.5291 22.924 16.4829 22.4471Z" stroke="#FFA503" stroke-width="3.27019" stroke-miterlimit="10" stroke-linecap="round" stroke-linejoin="round"/>
<path d="M16.4829 36.2773L27.9286 41.2848C28.4055 41.5232 28.8824 41.5232 29.5978 41.2848L41.0434 36.2773C41.9973 35.8004 42.9511 36.9927 42.2357 37.9465L30.3131 52.492C29.5978 53.4458 28.1671 53.4458 27.4517 52.492L15.5291 37.9465C14.5753 36.9927 15.5291 35.8004 16.4829 36.2773Z" stroke="#FFA503" stroke-width="3.27019" stroke-miterlimit="10" stroke-linecap="round" stroke-linejoin="round"/>
<path d="M28.6441 23.1625L16.2446 29.3622L28.6441 35.562L41.0436 29.3622L28.6441 23.1625Z" stroke="#FFA503" stroke-width="3.27019" stroke-miterlimit="10" stroke-linecap="round" stroke-linejoin="round"/>
</svg>
