<svg width="721" height="805" viewBox="0 0 721 805" fill="none" xmlns="http://www.w3.org/2000/svg">
<g filter="url(#filter0_f_23_193)">
<path d="M450.313 188.888C394.944 77.5981 195.064 344.819 102.045 492.341C71.1788 696.9 536.683 757.6 479.815 610.201C390.734 379.309 343.489 394.183 450.313 188.888Z" fill="#3B37FF"/>
<path d="M335.567 100C377.502 183.067 472.358 533.324 396.491 549.57C517.162 775.9 600.082 325.839 603.947 315.54C434.034 425.341 410.874 138.409 335.567 100Z" fill="#EB1B1B"/>
</g>
<g style="mix-blend-mode:color-dodge" filter="url(#filter1_f_23_193)">
<path d="M579.313 201.889C523.944 90.5985 324.064 357.82 231.045 505.341C200.179 709.9 665.683 770.6 608.815 623.201C519.734 392.309 472.489 407.183 579.313 201.889Z" fill="#3B37FF"/>
<path d="M340.751 143.067C382.686 226.135 477.541 576.392 401.675 592.638C522.346 818.967 605.266 368.906 609.131 358.608C439.218 468.408 416.057 181.476 340.751 143.067Z" fill="#EB1B1B"/>
</g>
<defs>
<filter id="filter0_f_23_193" x="0.573242" y="3.05176e-05" width="703.374" height="791.621" filterUnits="userSpaceOnUse" color-interpolation-filters="sRGB">
<feFlood flood-opacity="0" result="BackgroundImageFix"/>
<feBlend mode="normal" in="SourceGraphic" in2="BackgroundImageFix" result="shape"/>
<feGaussianBlur stdDeviation="50" result="effect1_foregroundBlur_23_193"/>
</filter>
<filter id="filter1_f_23_193" x="129.573" y="43.0674" width="584.063" height="761.554" filterUnits="userSpaceOnUse" color-interpolation-filters="sRGB">
<feFlood flood-opacity="0" result="BackgroundImageFix"/>
<feBlend mode="normal" in="SourceGraphic" in2="BackgroundImageFix" result="shape"/>
<feGaussianBlur stdDeviation="50" result="effect1_foregroundBlur_23_193"/>
</filter>
</defs>
</svg>
