<svg width="1007" height="1099" viewBox="0 0 1007 1099" fill="none" xmlns="http://www.w3.org/2000/svg">
<g filter="url(#filter0_f_23_158)">
<path d="M886 354.031C711.768 248.678 175.6 731.321 168.416 741.226C-136.041 1087.9 673.15 942.928 692.908 942.928C401.024 725.919 868.936 505.307 886 354.031Z" fill="#3B37FF"/>
<path d="M743.808 208.898C743.554 84.5954 445.876 235.417 297.069 326.366C178.663 496.004 568.932 756.904 583.352 599.575C605.94 353.128 744.125 364.276 743.808 208.898Z" fill="#37E7FF"/>
<path d="M703.085 248.621C707.261 108.097 367.017 298.315 196.373 410.989C26.356 523.056 598.778 878.385 479.504 709.125C360.23 539.865 697.866 424.276 703.085 248.621Z" fill="#FF37D3"/>
<path d="M679.589 249.346C582.589 190.846 284.089 458.846 280.089 464.346C110.589 656.846 561.089 576.346 572.089 576.346C409.589 455.846 670.089 333.346 679.589 249.346Z" fill="#EB1B1B"/>
<path d="M680.817 350.222C687.646 271.089 426.179 429.52 294.592 518.627C239.465 554.996 340.943 606.933 444.889 713.401C548.836 819.87 580.569 713.008 575.127 571.244C569.685 429.481 672.282 449.138 680.817 350.222Z" fill="#FFF500"/>
<path d="M661.675 357.766C652.585 329.971 400.194 492.87 275.135 577.794C374.999 650.121 569.304 771.5 547.61 678.393C520.492 562.009 572.69 483.777 600.404 456.264C628.117 428.751 673.038 392.51 661.675 357.766Z" fill="white"/>
</g>
<g style="mix-blend-mode:color-dodge" filter="url(#filter1_f_23_158)">
<path d="M867.396 255.649C673.993 191.998 259.555 782.474 254.771 793.736C35.7004 1199.8 791.859 877.259 811.116 872.834C478.041 726.716 884.65 406.904 867.396 255.649Z" fill="#3B37FF"/>
<path d="M717.808 184.898C717.554 60.5954 419.876 211.417 271.069 302.366C152.663 472.004 542.932 732.904 557.352 575.575C579.94 329.128 718.125 340.276 717.808 184.898Z" fill="#37E7FF"/>
<path d="M846.085 292.029C877.212 226.809 543.159 434.317 339.372 454.397C169.356 566.464 741.778 921.794 622.504 752.533C503.23 583.273 770.394 450.626 846.085 292.029Z" fill="#FF37D3"/>
<path d="M645.256 150.831C536.495 119.172 316.731 454.776 314.276 461.118C199.828 690.657 614.603 497.287 625.235 494.466C437.262 419.683 657.621 234.458 645.256 150.831Z" fill="#EB1B1B"/>
<path d="M736.111 471.632C781.29 406.305 475.671 414.19 317.214 426.298C251.307 430.536 313.662 525.966 351.115 669.972C388.567 813.978 469.124 736.926 534.712 611.13C600.301 485.334 679.638 553.29 736.111 471.632Z" fill="#FFF500"/>
<path d="M711.742 377.25C703.087 349.316 448.185 508.257 321.816 591.219C420.54 665.096 612.927 789.492 592.688 696.058C567.389 579.265 620.802 501.856 648.941 474.779C677.081 447.702 722.561 412.167 711.742 377.25Z" fill="white"/>
</g>
<defs>
<filter id="filter0_f_23_158" x="0" y="61.7888" width="986" height="1011.21" filterUnits="userSpaceOnUse" color-interpolation-filters="sRGB">
<feFlood flood-opacity="0" result="BackgroundImageFix"/>
<feBlend mode="normal" in="SourceGraphic" in2="BackgroundImageFix" result="shape"/>
<feGaussianBlur stdDeviation="50" result="effect1_foregroundBlur_23_158"/>
</filter>
<filter id="filter1_f_23_158" x="114.985" y="37.7887" width="852.947" height="1060.69" filterUnits="userSpaceOnUse" color-interpolation-filters="sRGB">
<feFlood flood-opacity="0" result="BackgroundImageFix"/>
<feBlend mode="normal" in="SourceGraphic" in2="BackgroundImageFix" result="shape"/>
<feGaussianBlur stdDeviation="50" result="effect1_foregroundBlur_23_158"/>
</filter>
</defs>
</svg>
