<svg width="351" height="122" viewBox="0 0 351 122" fill="none" xmlns="http://www.w3.org/2000/svg">
<path d="M191.881 116.485V97.081L209.701 95.497L219.601 100.447V119.95L201.781 121.435L191.881 116.485ZM192.871 97.972V115.396L208.711 114.109V96.586L192.871 97.972ZM277.151 37.78L287.051 42.73V92.923C287.051 101.437 284.84 108.103 280.418 112.921C276.062 117.739 270.122 120.511 262.598 121.237C262.136 121.303 261.641 121.336 261.113 121.336C260.651 121.336 260.156 121.336 259.628 121.336C256.46 121.336 253.49 120.874 250.718 119.95C248.012 119.026 245.207 117.838 242.303 116.386C239.135 114.736 236.495 112.921 234.383 110.941C232.271 108.961 230.687 106.486 229.631 103.516C228.575 100.48 228.047 96.685 228.047 92.131V41.146L245.372 39.562L255.272 44.512V92.527C255.272 93.583 255.305 94.573 255.371 95.497C255.503 96.355 255.635 97.147 255.767 97.873C257.285 97.081 258.44 95.728 259.232 93.814C260.024 91.9 260.42 89.326 260.42 86.092V39.265L277.151 37.78ZM261.41 40.156V86.092C261.41 90.712 260.651 94.078 259.133 96.19C257.615 98.236 255.503 99.391 252.797 99.655H251.807C249.365 99.655 247.517 98.698 246.263 96.784C245.009 94.87 244.382 91.801 244.382 87.577V40.651L229.037 42.037V92.131C229.037 99.721 230.819 105.496 234.383 109.456C237.947 113.416 243.029 115.396 249.629 115.396C250.157 115.396 250.652 115.396 251.114 115.396C251.642 115.396 252.137 115.363 252.599 115.297C259.859 114.703 265.601 112.063 269.825 107.377C274.049 102.625 276.161 96.157 276.161 87.973V38.869L261.41 40.156ZM300.182 114.802V39.562L317.408 37.978L327.308 42.928V118.168L310.082 119.653L300.182 114.802ZM301.172 40.453V113.713L316.418 112.327V39.067L301.172 40.453Z" fill="#001C35"/>
<path d="M41.283 117.079C40.227 117.937 38.973 118.696 37.521 119.356C36.135 120.016 34.485 120.412 32.571 120.544C32.043 120.61 31.482 120.643 30.888 120.643C30.294 120.643 29.733 120.643 29.205 120.643C23.925 120.643 19.239 119.521 15.147 117.277C11.121 115.099 7.953 111.667 5.643 106.981C3.399 102.295 2.277 96.223 2.277 88.765C2.277 79.393 4.059 72.166 7.623 67.084C11.253 62.002 16.335 59.164 22.869 58.57C23.133 58.57 23.364 58.57 23.562 58.57C23.826 58.504 24.09 58.471 24.354 58.471C26.202 58.471 27.786 58.669 29.106 59.065C30.426 59.461 31.614 59.824 32.67 60.154V38.176L48.807 36.79L58.707 41.74V117.079L43.56 118.267L41.283 117.079ZM33.66 39.067V63.817L33.363 63.916C32.901 62.596 31.878 61.54 30.294 60.748C28.71 59.89 26.73 59.461 24.354 59.461C24.156 59.461 23.925 59.494 23.661 59.56C23.463 59.56 23.232 59.56 22.968 59.56C16.698 60.154 11.847 62.926 8.415 67.876C4.983 72.76 3.267 79.723 3.267 88.765C3.267 97.477 4.851 104.011 8.019 108.367C11.253 112.657 15.576 114.802 20.988 114.802C21.318 114.802 21.615 114.802 21.879 114.802C22.209 114.802 22.506 114.769 22.77 114.703C25.872 114.373 28.38 113.416 30.294 111.832C32.208 110.182 33.561 108.334 34.353 106.288L34.65 106.387V112.327L47.817 111.238V37.879L33.66 39.067ZM25.344 101.635C23.232 101.635 21.417 100.546 19.899 98.368C18.447 96.124 17.721 92.494 17.721 87.478C17.721 82.462 18.414 78.832 19.8 76.588C21.186 74.344 23.298 73.09 26.136 72.826H27.027C28.743 72.826 30.195 73.255 31.383 74.113C32.571 74.971 33.33 76.093 33.66 77.479V91.141C33.66 94.111 32.934 96.553 31.482 98.467C30.096 100.381 28.248 101.437 25.938 101.635H25.344ZM32.67 79.855C31.218 80.053 30.162 81.109 29.502 83.023C28.908 84.937 28.611 88.072 28.611 92.428C28.611 93.814 28.644 95.134 28.71 96.388C28.776 97.576 28.974 98.566 29.304 99.358C31.548 97.51 32.67 94.771 32.67 91.141V79.855ZM122.329 101.734C120.547 107.278 117.907 111.766 114.409 115.198C110.977 118.63 106.291 120.61 100.351 121.138C99.6252 121.204 98.8992 121.237 98.1732 121.237C97.5132 121.303 96.8202 121.336 96.0942 121.336C90.3522 121.336 85.1712 120.148 80.5512 117.772C75.9972 115.462 72.3672 111.964 69.6612 107.278C66.9552 102.592 65.6022 96.784 65.6022 89.854C65.6022 83.782 66.6252 78.535 68.6712 74.113C70.7832 69.691 73.6212 66.226 77.1852 63.718C80.8152 61.144 84.9402 59.659 89.5602 59.263C90.0222 59.197 90.4842 59.164 90.9462 59.164C91.4742 59.164 91.9692 59.164 92.4312 59.164C96.1272 59.164 99.7572 59.824 103.321 61.144C106.951 62.398 110.218 64.378 113.122 67.084C116.092 69.79 118.435 73.288 120.151 77.578C121.933 81.802 122.824 86.884 122.824 92.824C122.824 93.352 122.824 93.913 122.824 94.507C122.824 95.035 122.791 95.563 122.725 96.091L112.33 96.982L122.329 101.734ZM98.9652 94.111C98.3712 96.355 97.2822 98.203 95.6982 99.655C94.1142 101.107 92.0682 101.965 89.5602 102.229H88.7682C86.5242 102.229 84.6762 101.404 83.2242 99.754C81.7722 98.104 81.0462 95.827 81.0462 92.923L111.835 90.25C111.901 89.59 111.934 88.963 111.934 88.369C111.934 87.709 111.934 87.082 111.934 86.488C111.934 78.172 110.152 71.704 106.588 67.084C103.024 62.464 98.1072 60.154 91.8372 60.154C91.5072 60.154 91.1442 60.154 90.7482 60.154C90.4182 60.154 90.0552 60.187 89.6592 60.253C85.2372 60.583 81.2772 62.002 77.7792 64.51C74.2812 66.952 71.5422 70.318 69.5622 74.608C67.5822 78.898 66.5922 83.98 66.5922 89.854C66.5922 98.368 68.5062 104.737 72.3342 108.961C76.1622 113.185 81.2442 115.297 87.5802 115.297C88.0422 115.297 88.5042 115.297 88.9662 115.297C89.4282 115.297 89.8902 115.264 90.3522 115.198C96.0282 114.736 100.516 112.888 103.816 109.654C107.182 106.42 109.591 102.394 111.043 97.576L98.9652 94.111ZM81.5412 81.835C81.5412 79.657 82.3002 77.776 83.8182 76.192C85.3362 74.608 87.2832 73.717 89.6592 73.519H90.5502C92.5302 73.519 94.1472 74.113 95.4012 75.301C96.7212 76.423 97.3812 78.139 97.3812 80.449L81.5412 81.835ZM89.5602 99.061C89.5602 99.391 89.6922 99.721 89.9562 100.051C90.2862 100.381 90.6162 100.711 90.9462 101.041C92.1342 100.711 93.0582 100.315 93.7182 99.853C94.3782 99.391 94.9392 98.929 95.4012 98.467L89.5602 99.061ZM140.35 114.703L122.53 61.837L139.261 60.352L149.161 65.302L152.131 74.806L156.784 59.758L172.525 58.372L182.425 63.322L164.11 118.465L150.25 119.653L140.35 114.703ZM157.576 60.748L147.973 91.834L138.469 61.441L123.916 62.728L140.944 113.713L153.517 112.624L171.139 59.56L157.576 60.748Z" fill="#001C35"/>
</svg>
