<svg width="96" height="81" viewBox="0 0 96 81" fill="none" xmlns="http://www.w3.org/2000/svg">
<path d="M64.821 36.9389C67.169 36.2629 69.517 35.9199 71.801 35.9199C75.328 35.9199 78.271 36.7259 80.553 37.7129C78.353 29.6589 73.068 15.7619 62.54 14.1969C61.565 14.0519 60.766 13.3469 60.5 12.3979L58.199 4.16791C58.005 3.47191 58.12 2.72691 58.517 2.12291C58.914 1.51891 59.552 1.11591 60.267 1.01791C61.044 0.91191 61.836 0.85791 62.621 0.85791C75.258 0.85791 87.773 14.0479 93.054 32.9339C96.154 44.0139 97.063 60.6719 89.427 71.1569C85.154 77.0239 78.92 80.1569 70.898 80.4699C70.865 80.4709 70.833 80.4719 70.8 80.4719C60.902 80.4719 52.125 73.8059 49.455 64.2629C47.86 58.5579 48.581 52.5749 51.487 47.4119C54.362 42.3069 59.097 38.5859 64.821 36.9389Z" fill="#7C76BB"/>
<path d="M2.86197 47.4129C5.73697 42.3069 10.472 38.5859 16.196 36.9389C18.544 36.2629 20.892 35.9199 23.175 35.9199C26.702 35.9199 29.646 36.7259 31.928 37.7129C29.728 29.6589 24.443 15.7619 13.914 14.1969C12.939 14.0519 12.141 13.3469 11.874 12.3979L9.57297 4.16791C9.37897 3.47191 9.49397 2.72691 9.89097 2.12291C10.287 1.51891 10.925 1.11591 11.641 1.01791C12.417 0.91191 13.209 0.85791 13.995 0.85791C26.632 0.85791 39.147 14.0479 44.429 32.9339C47.528 44.0139 48.437 60.6719 40.8 71.1589C36.528 77.0249 30.293 80.1589 22.272 80.4709C22.239 80.4719 22.207 80.4729 22.173 80.4729C12.276 80.4729 3.49797 73.8069 0.827972 64.2639C-0.765026 58.5589 -0.0430298 52.5749 2.86197 47.4129Z" fill="#7C76BB"/>
</svg>
