<svg width="656" height="187" viewBox="0 0 656 187" fill="none" xmlns="http://www.w3.org/2000/svg">
<path d="M124.185 43.0667V183.222H83.4219V174.722C77.2284 181.648 67.7486 185.111 54.9826 185.111C45.882 185.111 37.4767 182.97 29.7664 178.689C22.1826 174.282 16.1156 167.985 11.5653 159.8C7.1414 151.615 4.92944 142.17 4.92944 131.467C4.92944 120.763 7.1414 111.382 11.5653 103.322C16.1156 95.1371 22.1826 88.9038 29.7664 84.6222C37.4767 80.2149 45.882 78.0111 54.9826 78.0111C66.4848 78.0111 75.2693 80.9704 81.3364 86.8889V43.0667H124.185ZM65.2208 151.867C70.1503 151.867 74.1949 150.104 77.3549 146.578C80.5149 142.926 82.0948 137.889 82.0948 131.467C82.0948 125.044 80.5149 120.07 77.3549 116.544C74.1949 113.018 70.1503 111.256 65.2208 111.256C60.2913 111.256 56.2467 113.018 53.0867 116.544C49.9267 120.07 48.3468 125.044 48.3468 131.467C48.3468 137.889 49.9267 142.926 53.0867 146.578C56.2467 150.104 60.2913 151.867 65.2208 151.867ZM253.504 131.467C253.504 132.096 253.315 135.433 252.935 141.478H180.889C182.406 145.382 184.933 148.404 188.473 150.544C192.011 152.559 196.436 153.567 201.745 153.567C206.295 153.567 210.087 153 213.12 151.867C216.279 150.733 219.692 148.782 223.358 146.011L245.731 168.489C235.618 179.57 220.515 185.111 200.417 185.111C187.904 185.111 176.907 182.844 167.427 178.311C157.948 173.652 150.617 167.23 145.434 159.044C140.252 150.859 137.661 141.667 137.661 131.467C137.661 121.141 140.189 111.948 145.245 103.889C150.427 95.7038 157.442 89.3444 166.29 84.8111C175.264 80.2778 185.313 78.0111 196.436 78.0111C206.926 78.0111 216.469 80.0889 225.065 84.2444C233.786 88.4 240.674 94.5073 245.731 102.567C250.912 110.626 253.504 120.259 253.504 131.467ZM196.815 107.1C192.39 107.1 188.725 108.296 185.818 110.689C182.911 113.082 181.015 116.482 180.13 120.889H213.5C212.614 116.607 210.718 113.27 207.812 110.878C204.903 108.359 201.238 107.1 196.815 107.1ZM380.637 79.9L338.926 183.222H294.561L252.85 79.9H296.836L317.692 135.244L340.064 79.9H380.637Z" fill="black"/>
<path d="M404.217 185.111C397.013 185.111 391.008 182.844 386.206 178.311C381.528 173.652 379.191 167.733 379.191 160.556C379.191 153.378 381.528 147.585 386.206 143.178C391.008 138.644 397.013 136.378 404.217 136.378C411.422 136.378 417.362 138.644 422.039 143.178C426.842 147.585 429.244 153.378 429.244 160.556C429.244 167.733 426.842 173.652 422.039 178.311C417.362 182.844 411.422 185.111 404.217 185.111ZM506.377 186.244C486.026 186.244 470.164 180.767 458.788 169.811C447.413 158.856 441.725 143.493 441.725 123.722V51H486.469V122.4C486.469 132.096 488.176 139.148 491.588 143.556C495.126 147.963 500.183 150.167 506.756 150.167C513.327 150.167 518.321 147.963 521.734 143.556C525.272 139.148 527.043 132.096 527.043 122.4V51H571.029V123.722C571.029 143.493 565.341 158.856 553.965 169.811C542.59 180.767 526.726 186.244 506.377 186.244ZM591.539 51H636.284V183.222H591.539V51Z" fill="black"/>
</svg>
