<svg width="360" height="147" viewBox="0 0 360 147" fill="none" xmlns="http://www.w3.org/2000/svg">
<path d="M215.881 136.485V117.081L233.701 115.497L243.601 120.447V139.95L225.781 141.435L215.881 136.485ZM216.871 117.972V135.396L232.711 134.109V116.586L216.871 117.972ZM301.151 57.78L311.051 62.73V112.923C311.051 121.437 308.84 128.103 304.418 132.921C300.062 137.739 294.122 140.511 286.598 141.237C286.136 141.303 285.641 141.336 285.113 141.336C284.651 141.336 284.156 141.336 283.628 141.336C280.46 141.336 277.49 140.874 274.718 139.95C272.012 139.026 269.207 137.838 266.303 136.386C263.135 134.736 260.495 132.921 258.383 130.941C256.271 128.961 254.687 126.486 253.631 123.516C252.575 120.48 252.047 116.685 252.047 112.131V61.146L269.372 59.562L279.272 64.512V112.527C279.272 113.583 279.305 114.573 279.371 115.497C279.503 116.355 279.635 117.147 279.767 117.873C281.285 117.081 282.44 115.728 283.232 113.814C284.024 111.9 284.42 109.326 284.42 106.092V59.265L301.151 57.78ZM285.41 60.156V106.092C285.41 110.712 284.651 114.078 283.133 116.19C281.615 118.236 279.503 119.391 276.797 119.655H275.807C273.365 119.655 271.517 118.698 270.263 116.784C269.009 114.87 268.382 111.801 268.382 107.577V60.651L253.037 62.037V112.131C253.037 119.721 254.819 125.496 258.383 129.456C261.947 133.416 267.029 135.396 273.629 135.396C274.157 135.396 274.652 135.396 275.114 135.396C275.642 135.396 276.137 135.363 276.599 135.297C283.859 134.703 289.601 132.063 293.825 127.377C298.049 122.625 300.161 116.157 300.161 107.973V58.869L285.41 60.156ZM324.182 134.802V59.562L341.408 57.978L351.308 62.928V138.168L334.082 139.653L324.182 134.802ZM325.172 60.453V133.713L340.418 132.327V59.067L325.172 60.453Z" fill="#001C35"/>
<path d="M48.372 137.436C47.1347 138.441 45.6653 139.331 43.964 140.104C42.34 140.877 40.4067 141.341 38.164 141.496C37.5453 141.573 36.888 141.612 36.192 141.612C35.496 141.612 34.8387 141.612 34.22 141.612C28.0333 141.612 22.5427 140.297 17.748 137.668C13.0307 135.116 9.31867 131.095 6.612 125.604C3.98267 120.113 2.668 112.999 2.668 104.26C2.668 93.2787 4.756 84.8107 8.932 78.856C13.1853 72.9013 19.14 69.576 26.796 68.88C27.1053 68.88 27.376 68.88 27.608 68.88C27.9173 68.8027 28.2267 68.764 28.536 68.764C30.7013 68.764 32.5573 68.996 34.104 69.46C35.6507 69.924 37.0427 70.3493 38.28 70.736V44.984L57.188 43.36L68.788 49.16V137.436L51.04 138.828L48.372 137.436ZM39.44 46.028V75.028L39.092 75.144C38.5507 73.5973 37.352 72.36 35.496 71.432C33.64 70.4267 31.32 69.924 28.536 69.924C28.304 69.924 28.0333 69.9627 27.724 70.04C27.492 70.04 27.2213 70.04 26.912 70.04C19.5653 70.736 13.8813 73.984 9.86 79.784C5.83867 85.5067 3.828 93.6653 3.828 104.26C3.828 114.468 5.684 122.124 9.396 127.228C13.1853 132.255 18.2507 134.768 24.592 134.768C24.9787 134.768 25.3267 134.768 25.636 134.768C26.0227 134.768 26.3707 134.729 26.68 134.652C30.3147 134.265 33.2533 133.144 35.496 131.288C37.7387 129.355 39.324 127.189 40.252 124.792L40.6 124.908V131.868L56.028 130.592V44.636L39.44 46.028ZM29.696 119.34C27.2213 119.34 25.0947 118.064 23.316 115.512C21.6147 112.883 20.764 108.629 20.764 102.752C20.764 96.8747 21.576 92.6213 23.2 89.992C24.824 87.3627 27.2987 85.8933 30.624 85.584H31.668C33.6787 85.584 35.38 86.0867 36.772 87.092C38.164 88.0973 39.0533 89.412 39.44 91.036V107.044C39.44 110.524 38.5893 113.385 36.888 115.628C35.264 117.871 33.0987 119.108 30.392 119.34H29.696ZM38.28 93.82C36.5787 94.052 35.3413 95.2893 34.568 97.532C33.872 99.7747 33.524 103.448 33.524 108.552C33.524 110.176 33.5627 111.723 33.64 113.192C33.7173 114.584 33.9493 115.744 34.336 116.672C36.9653 114.507 38.28 111.297 38.28 107.044V93.82ZM143.335 119.456C141.247 125.952 138.154 131.211 134.055 135.232C130.034 139.253 124.543 141.573 117.583 142.192C116.733 142.269 115.882 142.308 115.031 142.308C114.258 142.385 113.446 142.424 112.595 142.424C105.867 142.424 99.7966 141.032 94.3832 138.248C89.0472 135.541 84.7939 131.443 81.6232 125.952C78.4526 120.461 76.8672 113.656 76.8672 105.536C76.8672 98.4213 78.0659 92.2733 80.4632 87.092C82.9379 81.9107 86.2632 77.8507 90.4392 74.912C94.6926 71.896 99.5259 70.156 104.939 69.692C105.481 69.6147 106.022 69.576 106.563 69.576C107.182 69.576 107.762 69.576 108.303 69.576C112.634 69.576 116.887 70.3493 121.063 71.896C125.317 73.3653 129.145 75.6853 132.547 78.856C136.027 82.0267 138.773 86.1253 140.783 91.152C142.871 96.1013 143.915 102.056 143.915 109.016C143.915 109.635 143.915 110.292 143.915 110.988C143.915 111.607 143.877 112.225 143.799 112.844L131.619 113.888L143.335 119.456ZM115.959 110.524C115.263 113.153 113.987 115.319 112.131 117.02C110.275 118.721 107.878 119.727 104.939 120.036H104.011C101.382 120.036 99.2166 119.069 97.5152 117.136C95.8139 115.203 94.9632 112.535 94.9632 109.132L131.039 106C131.117 105.227 131.155 104.492 131.155 103.796C131.155 103.023 131.155 102.288 131.155 101.592C131.155 91.848 129.067 84.2693 124.891 78.856C120.715 73.4427 114.954 70.736 107.607 70.736C107.221 70.736 106.795 70.736 106.331 70.736C105.945 70.736 105.519 70.7747 105.055 70.852C99.8739 71.2387 95.2339 72.9013 91.1352 75.84C87.0366 78.7013 83.8272 82.6453 81.5072 87.672C79.1872 92.6987 78.0272 98.6533 78.0272 105.536C78.0272 115.512 80.2699 122.975 84.7552 127.924C89.2406 132.873 95.1952 135.348 102.619 135.348C103.161 135.348 103.702 135.348 104.243 135.348C104.785 135.348 105.326 135.309 105.867 135.232C112.518 134.691 117.777 132.525 121.643 128.736C125.587 124.947 128.41 120.229 130.111 114.584L115.959 110.524ZM95.5432 96.14C95.5432 93.588 96.4326 91.384 98.2112 89.528C99.9899 87.672 102.271 86.628 105.055 86.396H106.099C108.419 86.396 110.314 87.092 111.783 88.484C113.33 89.7987 114.103 91.8093 114.103 94.516L95.5432 96.14ZM104.939 116.324C104.939 116.711 105.094 117.097 105.403 117.484C105.79 117.871 106.177 118.257 106.563 118.644C107.955 118.257 109.038 117.793 109.811 117.252C110.585 116.711 111.242 116.169 111.783 115.628L104.939 116.324ZM164.45 134.652L143.57 72.708L163.174 70.968L174.774 76.768L178.254 87.904L183.706 70.272L202.15 68.648L213.75 74.448L192.29 139.06L176.05 140.452L164.45 134.652ZM184.634 71.432L173.382 107.856L162.246 72.244L145.194 73.752L165.146 133.492L179.878 132.216L200.526 70.04L184.634 71.432Z" fill="#001C35"/>
</svg>
