<svg width="642" height="559" viewBox="0 0 642 559" fill="none" xmlns="http://www.w3.org/2000/svg">
<path d="M434.908 535.976C435.519 536.004 436.123 535.844 436.639 535.518C437.155 535.191 437.558 534.714 437.794 534.15C438.03 533.587 438.086 532.965 437.956 532.368C437.826 531.771 437.516 531.229 437.068 530.814C436.992 530.516 436.939 530.302 436.863 530.003C436.89 529.938 436.917 529.873 436.945 529.808C437.559 528.357 438.589 527.119 439.906 526.251C441.222 525.383 442.765 524.923 444.342 524.929C445.919 524.935 447.459 525.406 448.768 526.284C450.078 527.162 451.099 528.407 451.703 529.863C454.117 535.675 457.19 541.496 457.947 547.64C458.28 550.356 458.139 553.11 457.531 555.778C463.2 543.415 466.144 529.979 466.163 516.379C466.164 512.967 465.975 509.557 465.595 506.165C465.281 503.385 464.846 500.625 464.289 497.884C461.251 483.013 454.727 469.075 445.253 457.214C440.667 454.713 436.959 450.868 434.628 446.195C433.783 444.515 433.186 442.722 432.856 440.872C433.373 440.94 433.899 440.982 434.416 441.016C434.577 441.024 434.747 441.033 434.908 441.041L434.968 441.044C435.537 441.07 436.101 440.93 436.592 440.643C437.083 440.356 437.48 439.933 437.737 439.425C437.993 438.917 438.097 438.345 438.036 437.78C437.975 437.214 437.751 436.679 437.393 436.237C437.169 435.962 436.946 435.688 436.722 435.413C436.383 434.989 436.035 434.574 435.696 434.15C435.657 434.11 435.62 434.067 435.586 434.023C435.196 433.54 434.806 433.065 434.416 432.582C435.128 431.477 436.085 430.552 437.214 429.878C441.123 427.589 446.516 429.174 449.34 432.709C452.172 436.244 452.706 441.202 451.723 445.619C450.755 449.376 449.155 452.942 446.991 456.163C447.203 456.434 447.424 456.697 447.636 456.969C451.511 461.95 454.888 467.298 457.72 472.938C457.031 466.62 457.853 460.229 460.117 454.29C462.413 448.755 466.714 444.094 470.503 439.309C475.053 433.562 484.384 436.07 485.186 443.356C485.193 443.426 485.201 443.497 485.208 443.567C484.646 443.885 484.095 444.221 483.556 444.578C482.879 445.03 482.354 445.676 482.051 446.431C481.748 447.187 481.679 448.016 481.856 448.81C482.032 449.605 482.444 450.328 483.038 450.885C483.632 451.441 484.381 451.805 485.185 451.929L485.268 451.942C485.067 453.969 484.713 455.978 484.208 457.952C482.744 463.461 480.158 468.609 476.61 473.072C473.063 477.536 468.632 481.218 463.594 483.889C463.263 484.059 462.941 484.229 462.61 484.39C465.455 492.448 467.239 500.842 467.919 509.361C468.303 514.387 468.28 519.435 467.851 524.457L467.876 524.279C468.962 518.695 471.942 513.656 476.313 510.014C482.806 504.682 491.979 502.719 498.984 498.433C499.729 497.955 500.594 497.7 501.479 497.698C502.363 497.696 503.23 497.947 503.977 498.421C504.724 498.895 505.319 499.573 505.693 500.374C506.067 501.175 506.204 502.067 506.088 502.944C506.079 503.006 506.069 503.068 506.06 503.131C505.015 503.556 503.999 504.046 503.015 504.597C502.453 504.915 501.902 505.251 501.363 505.608C500.686 506.06 500.161 506.706 499.858 507.461C499.555 508.216 499.486 509.046 499.663 509.84C499.839 510.635 500.251 511.358 500.845 511.915C501.439 512.471 502.188 512.835 502.992 512.959L503.075 512.972C503.134 512.98 503.185 512.989 503.244 512.997C501.46 517.256 498.956 521.175 495.842 524.584C491.994 528.711 487.344 532.009 482.177 534.275C477.009 536.542 471.433 537.73 465.79 537.765H465.782C464.25 544.419 462.03 550.896 459.159 557.091H435.501C435.416 556.829 435.34 556.557 435.264 556.295C437.454 556.432 439.652 556.301 441.81 555.905C440.055 553.752 438.3 551.582 436.544 549.429C436.505 549.389 436.468 549.346 436.434 549.302C435.544 548.2 434.645 547.106 433.754 546.004L433.754 546.003C433.707 542.625 434.094 539.255 434.908 535.977L434.908 535.976Z" fill="white"/>
<path d="M355.623 81.2222C355.623 97.1549 363.597 113.368 379.535 113.368C395.474 113.368 417.465 101.828 412.518 77.101C409.392 61.4777 400.421 52.3735 384.483 52.3735V110.071C390.191 110.071 395.77 108.379 400.516 105.209C405.262 102.039 408.961 97.5335 411.145 92.2621C413.33 86.9907 413.901 81.1902 412.788 75.5941C411.674 69.998 408.926 64.8577 404.89 60.8231C400.853 56.7886 395.711 54.041 390.113 52.9279C384.515 51.8147 378.712 52.386 373.439 54.5695C368.165 56.753 363.658 60.4506 360.487 65.1947C357.316 69.9389 355.623 75.5165 355.623 81.2222Z" fill="#2F2E41"/>
<path d="M422.483 308.859C421.615 307.896 420.968 306.754 420.589 305.514C420.209 304.274 420.106 302.966 420.287 301.682C420.469 300.398 420.929 299.169 421.636 298.082C422.344 296.995 423.281 296.077 424.382 295.391L417.405 264.652L432.741 270.421L437.015 298.726C438.045 300.651 438.332 302.887 437.823 305.01C437.314 307.133 436.043 308.996 434.252 310.245C432.46 311.494 430.273 312.042 428.104 311.787C425.935 311.531 423.935 310.49 422.483 308.859V308.859Z" fill="#FFB6B6"/>
<path d="M389.931 199.906L400.635 200.996C400.635 200.996 397.836 216.846 402.214 220.417C406.591 223.987 404.827 223.97 404.801 226.616C404.776 229.262 406.498 233.689 410.002 236.369C413.506 239.049 420.794 286.776 420.794 286.776L436.676 286.929C436.202 282.824 436.242 278.676 436.794 274.58C437.736 268.415 442.496 252.884 440.757 250.221C439.017 247.558 439.933 242.661 439.984 237.369C440.034 232.077 432.461 237.925 432.546 229.104C432.63 220.284 422.916 164.939 423.875 157.009C424.834 149.08 415.195 141.931 415.195 141.931L406.372 141.846L389.931 199.906Z" fill="#6C63FF"/>
<path d="M276.298 125.472C276.031 126.671 276.03 127.915 276.295 129.114C276.561 130.314 277.087 131.44 277.835 132.415C278.583 133.39 279.536 134.188 280.627 134.755C281.717 135.322 282.919 135.642 284.147 135.694L292.734 164.299L302.691 152.392L293.01 127.054C292.961 124.986 292.155 123.008 290.744 121.495C289.334 119.981 287.417 119.038 285.357 118.843C283.297 118.648 281.237 119.215 279.567 120.437C277.897 121.658 276.734 123.45 276.298 125.472V125.472Z" fill="#FFB6B6"/>
<path d="M366.954 134.789C366.954 134.789 346.195 127.008 334.941 169.617L320.001 185.084L307.449 162.413L309.109 157.034L299.408 135.051L282.776 144.592L286.87 159.685L286.179 167.146L290.153 171.787L296.659 195.771L300.729 203.606C300.729 203.606 305.861 213.639 314.821 215.292C317.209 215.739 319.653 215.808 322.063 215.497C326.782 214.882 331.952 212.708 337.266 207.91C356.98 190.112 368.639 176.381 368.639 176.381L366.954 134.789Z" fill="#6C63FF"/>
<path d="M266.876 143.851L303.83 108.201C304.032 108.006 304.151 107.742 304.163 107.462C304.175 107.183 304.08 106.909 303.896 106.698C303.713 106.486 303.455 106.354 303.177 106.326C302.898 106.299 302.62 106.38 302.399 106.552L263.216 137.067L266.876 143.851Z" fill="#2F2E41"/>
<path d="M251.657 147.803C253.51 148.454 255.434 148.883 257.389 149.083C258.383 149.181 259.381 149.216 260.37 149.227C260.717 149.24 261.07 149.241 261.414 149.245C262.236 149.257 263.059 149.27 263.889 149.279C264.588 149.292 265.296 149.303 265.992 149.309C267.018 149.325 268.144 149.303 268.88 148.583C269.191 148.22 269.418 147.792 269.543 147.33C269.669 146.869 269.69 146.386 269.606 145.915C269.443 144.93 269.144 143.973 268.72 143.07C267.833 140.937 266.939 138.807 266.052 136.674L266.19 135.481C264.562 135.245 262.906 135.296 261.296 135.631C260.638 135.799 260.02 136.098 259.481 136.51C258.942 136.923 258.492 137.44 258.158 138.031C258.018 138.297 257.906 138.577 257.825 138.866C257.478 140.137 257.728 141.548 257.579 142.878C257.544 143.154 257.493 143.429 257.426 143.699C257.235 144.499 256.87 145.246 256.358 145.889C255.845 146.531 255.197 147.053 254.459 147.416C253.579 147.803 252.608 147.937 251.657 147.803Z" fill="#CFCFDE"/>
<path d="M249.058 146.769C249.829 147.316 250.72 147.671 251.657 147.803C250.774 147.502 249.906 147.157 249.058 146.769Z" fill="white"/>
<path d="M251.657 147.803C253.51 148.454 255.434 148.883 257.389 149.083C258.383 149.181 259.381 149.216 260.37 149.227C260.717 149.24 261.07 149.241 261.414 149.245C262.236 149.257 263.059 149.27 263.889 149.279C263.848 148.862 263.786 148.448 263.702 148.038C262.926 144.212 260.675 140.958 258.158 138.031C258.018 138.297 257.906 138.577 257.825 138.866C257.478 140.137 257.728 141.548 257.579 142.878C257.544 143.154 257.493 143.429 257.426 143.699C257.235 144.499 256.871 145.246 256.358 145.889C255.845 146.531 255.196 147.053 254.459 147.416C253.579 147.803 252.608 147.937 251.657 147.803Z" fill="#6C63FF"/>
<path d="M394.798 206.135L396.266 213.131L397.515 238.933L347.352 232.144L343.501 202.266L348.825 193.521L394.798 206.135Z" fill="#FFB6B6"/>
<path d="M357.695 100.602C351.406 89.1017 355.634 74.6821 367.139 68.3953C378.644 62.1085 393.069 66.3351 399.358 77.8357C405.647 89.3363 401.419 103.756 389.914 110.043C378.409 116.329 363.984 112.103 357.695 100.602Z" fill="#FFB6B6"/>
<path d="M414.294 173.981L420.822 157.026C420.825 149.928 418.422 143.038 414.005 137.481C409.588 131.923 403.417 128.026 396.499 126.425L396.41 126.404L391.715 120.081L372.643 121.988L369.147 129.13L355.326 137.357L339.608 155.755C334.658 159.308 331.717 163.864 330.867 169.297C329.06 180.832 337.14 192.374 338.101 193.697L340.577 207.638L397.831 215.84L398.269 215.895L414.294 173.981Z" fill="#6C63FF"/>
<path d="M403.372 95.4404C403.157 95.4064 402.942 95.3611 402.727 95.3271C399.024 94.6706 395.321 94.0253 391.629 93.3573L391.289 84.9916L386.816 92.4856C376.612 95.8705 367.065 93.9574 358.085 89.7348C355.122 88.3291 352.248 86.7451 349.478 84.9915C347.546 73.2075 352.42 63.9208 364.936 62.7353C365.325 62.6985 365.604 62.3731 365.944 62.2032C365.945 62.2032 365.947 62.2029 365.948 62.2023C365.95 62.2018 365.951 62.201 365.952 62.1999C365.953 62.1988 365.954 62.1976 365.955 62.1962C365.955 62.1948 365.955 62.1933 365.955 62.1918C366.533 61.9201 367.122 61.6598 367.711 61.4221C372.321 59.621 377.348 59.1649 382.207 60.1068C387.067 61.0486 391.559 63.3498 395.162 66.7427C402.41 73.6597 405.671 85.0821 403.372 95.4404Z" fill="#2F2E41"/>
<path d="M359.829 498.298L346.209 504.554L315.589 455.015L335.69 445.782L359.829 498.298Z" fill="#FFB6B6"/>
<path d="M360.12 490.03L337.999 498.636L342.238 507.857L328.265 531.392C327.574 532.554 327.274 533.906 327.407 535.251C327.54 536.597 328.1 537.864 329.005 538.869C329.909 539.873 331.112 540.562 332.436 540.836C333.76 541.109 335.137 540.952 336.366 540.387L361.999 528.612L362.224 517.462L368.142 525.79L377.807 521.351L360.12 490.03Z" fill="#2F2E41"/>
<path d="M419.369 529.034H404.379L397.248 471.24L419.371 471.24L419.369 529.034Z" fill="#FFB6B6"/>
<path d="M427.52 410.442L427.521 410.288L421.89 400.589L427.639 387.964L428.048 311.234C430.312 255.785 398.131 229.131 397.878 228.869L397.18 228.144L345.571 226.882C345.571 226.882 318.446 306.482 296.897 378.205C295.624 382.444 292.021 386.625 293.141 390.822C302.027 424.109 312.574 461.785 319.343 462.849L340.781 451.309L336.797 393.619L339.246 387.34C343.635 386.532 355.043 342.275 355.043 342.275C356.955 340.005 356.857 333.835 356.857 333.835L371.8 318.152L385.572 390.44L382.167 412.001L384.985 419.415L397.055 480.618L397.183 481.605L419.939 479.334L427.52 410.442Z" fill="#2F2E41"/>
<path d="M424.445 521.643L400.749 520.229V530.377L378.222 545.93C377.109 546.698 376.271 547.801 375.83 549.079C375.389 550.357 375.369 551.742 375.771 553.033C376.173 554.323 376.978 555.451 378.067 556.252C379.156 557.053 380.473 557.485 381.825 557.485H410.035L414.898 547.447L416.796 557.485H427.432L424.445 521.643Z" fill="#2F2E41"/>
<path d="M394.276 61.6025V61.6225C394.273 62.8647 394.432 64.1019 394.748 65.3033C394.798 65.5139 394.858 65.7345 394.928 65.9452V65.9552C395.602 68.1006 396.763 70.061 398.32 71.6827C399.878 73.3044 401.791 74.5434 403.908 75.3026C404.219 75.4229 404.54 75.5232 404.861 75.6135C405.538 75.8096 406.229 75.9504 406.928 76.0347C407.556 76.1237 408.19 76.1673 408.824 76.1651C409.32 76.1672 409.816 76.1438 410.309 76.0949C411.464 75.978 412.6 75.7186 413.69 75.3226C413.861 75.273 414.029 75.2127 414.192 75.1421C414.274 75.113 414.354 75.0795 414.433 75.0418C416.253 74.2802 417.899 73.1568 419.272 71.7398C420.644 70.3227 421.715 68.6417 422.417 66.7986C423.12 64.9555 423.441 62.9889 423.36 61.0181C423.279 59.0473 422.799 57.1135 421.948 55.3341L421.938 55.324C421.224 53.8311 420.257 52.4737 419.078 51.3123C416.45 48.6946 415.291 42.1344 411.298 42.1344C411.107 42.1311 410.916 42.1378 410.726 42.1544C408.047 42.2447 403.095 48.0227 400.988 49.3866C399.424 50.3748 398.067 51.6593 396.995 53.1677C395.876 54.7194 395.078 56.4789 394.648 58.3429C394.401 59.412 394.277 60.5054 394.276 61.6025Z" fill="#2F2E41"/>
<path d="M412.051 56.5385C414.311 59.1679 417.848 60.1899 421.039 61.5582C426.671 64.0279 431.615 67.8336 435.443 72.6452C439.27 77.4569 441.866 83.1293 443.005 89.1705C443.887 94.0913 443.772 99.1851 445.166 103.982C446.551 108.779 449.981 113.486 454.904 114.318C458.235 114.887 461.574 113.601 464.707 112.332C466.431 111.639 468.154 110.944 469.877 110.247C468.08 105.738 466.285 101.229 464.493 96.7206C467.373 100.976 470.723 104.893 474.478 108.4C480.654 105.911 486.836 103.422 493.023 100.932C477.801 100.99 480.399 86.2196 476.993 71.3997C475.122 63.2561 459.183 57.7419 456.058 49.994C454.369 45.7916 451.512 42.1607 447.823 39.5311C444.134 36.9015 439.77 35.3832 435.245 35.156C430.72 34.9288 426.225 36.0022 422.291 38.2491C418.358 40.496 415.15 43.8223 413.049 47.8345C409.924 49.0791 409.833 53.9421 412.051 56.5385Z" fill="#2F2E41"/>
<path d="M347.401 230.514C343.899 231.427 340.669 233.172 337.986 235.601C335.304 238.03 333.248 241.071 331.993 244.465C331.316 246.417 330.894 248.731 332.058 250.588C332.414 251.253 332.999 251.767 333.705 252.034C334.41 252.302 335.189 252.305 335.897 252.042C337.417 251.417 338.464 249.863 339.237 248.486C340.262 246.54 341.142 244.522 341.871 242.447C343.066 239.317 345.613 234.091 341.976 231.643C338.917 229.585 334.866 230.385 331.424 230.244C327.704 230.091 323.57 228.667 322.248 224.813C320.963 221.065 323.976 217.54 327.224 216.114C329.177 215.305 331.299 214.987 333.403 215.187C335.508 215.387 337.531 216.101 339.296 217.264C342.784 219.681 345.275 223.282 346.304 227.398C346.379 227.71 346.329 228.039 346.166 228.315C346.003 228.591 345.739 228.793 345.429 228.879C345.12 228.964 344.79 228.926 344.508 228.772C344.226 228.619 344.015 228.362 343.919 228.056C342.898 224.328 340.688 220.821 337.241 218.911C334.014 217.123 329.587 217.013 326.576 219.328C325.087 220.473 323.917 222.378 324.68 224.27C325.38 226.007 327.203 227.04 328.938 227.459C332.863 228.408 336.968 227.18 340.88 228.433C344.61 229.628 346.76 232.678 346.222 236.636C345.815 238.86 345.155 241.03 344.257 243.104C343.493 245.237 342.601 247.322 341.584 249.346C340.031 252.281 337.23 255.457 333.535 254.596C329.323 253.616 328.323 248.7 329.225 245.084C331.284 236.84 338.672 230.237 346.744 228.13C347.056 228.055 347.384 228.105 347.661 228.268C347.937 228.431 348.139 228.695 348.224 229.004C348.309 229.314 348.271 229.644 348.118 229.926C347.964 230.207 347.707 230.418 347.401 230.514Z" fill="#2F2E41"/>
<path d="M310.383 455.713C312.132 453.646 314.627 452.385 317.051 451.178L337.388 441.051L337.967 444.659C338.735 442.286 342.51 442.112 344.04 444.082C345.57 446.053 345.08 449.032 343.588 451.031C342.096 453.03 339.83 454.278 337.635 455.465C332.769 458.097 327.903 460.73 323.038 463.362C320.771 464.589 318.43 465.839 315.868 466.119C313.305 466.399 310.435 465.476 309.158 463.237C307.817 460.886 308.635 457.78 310.383 455.713Z" fill="#2F2E41"/>
<path d="M389.497 474.569C391.985 473.501 394.781 473.486 397.489 473.488C405.062 473.494 412.636 473.5 420.209 473.506L419.116 476.993C420.863 475.213 424.319 476.741 424.807 479.187C425.296 481.634 423.527 484.08 421.299 485.203C419.07 486.325 416.486 486.43 413.992 486.513C408.462 486.696 402.932 486.879 397.402 487.062C394.826 487.148 392.174 487.221 389.756 486.328C387.338 485.435 385.182 483.327 385.04 480.754C384.89 478.052 387.009 475.638 389.497 474.569Z" fill="#2F2E41"/>
<path d="M261.799 315.105C295.121 315.105 331.332 308.467 367.3 295.703C411.779 279.919 452.561 256.095 485.238 226.805L484.27 224.865C451.751 254.013 411.149 277.729 366.854 293.447C326.826 307.652 286.497 314.234 250.243 312.497L250.18 314.829C254.009 315.014 257.882 315.105 261.799 315.105Z" fill="white"/>
<path d="M560.325 193.544C587.024 158.312 576.436 118.101 592.078 90.0487C652.029 -17.4657 578.208 -7.56023 494.746 13.3478L494.547 15.6672C547.667 23.8619 582.603 51.1908 590.395 90.6459C596.451 121.309 585.338 157.262 559.103 191.881L560.325 193.544Z" fill="white"/>
<path d="M302.72 318.606C336.043 318.606 374.339 281.642 408.221 299.204C510.808 352.38 496.687 263.399 526.159 230.306L525.192 228.366C492.672 257.514 452.071 281.23 407.776 296.948C367.747 311.153 327.419 317.735 291.164 315.998L291.101 318.33C294.93 318.515 298.803 318.607 302.72 318.606Z" fill="white"/>
<path d="M226.274 303.927L226.832 301.716C197.029 288.209 199.59 247.979 172.926 238.793C-30.1901 168.811 170.308 160.919 215.406 123.902C255.735 90.7993 299.687 52.3129 355.545 32.4913L355.1 30.2347C298.998 50.1434 248.987 82.7755 214.282 122.12C179.402 161.662 164.117 203.309 171.243 239.39C176.862 267.842 195.892 290.158 226.274 303.927Z" fill="white"/>
<path d="M499.93 319.582C535.799 260.959 583.455 208.594 642 177.378L640.55 176.087C614.592 228.497 564.402 278.7 499.225 317.448L499.93 319.582Z" fill="white"/>
<path d="M269.719 387.018C276.473 387.018 283.342 386.816 290.326 386.412L290.251 384.08C238.736 413.378 192.78 406.41 157.25 359.896L156.599 362.061C187.035 378.501 225.829 387.018 269.719 387.018Z" fill="white"/>
<path d="M259.161 364.702C255.314 364.702 252.196 360.522 252.196 355.365C252.196 350.209 255.314 346.028 259.161 346.028C263.008 346.028 266.126 350.209 266.126 355.365C266.126 360.522 263.008 364.702 259.161 364.702Z" fill="#FD6584"/>
<path d="M494.469 193.895C493.892 190.094 497.558 186.384 502.658 185.61C507.758 184.836 512.36 187.291 512.938 191.093C513.515 194.894 509.849 198.604 504.749 199.378C499.649 200.152 495.046 197.697 494.469 193.895Z" fill="white"/>
<path d="M526.535 92.5893C522.688 92.5893 519.569 88.4092 519.569 83.2527C519.569 78.0962 522.688 73.9161 526.535 73.9161C530.381 73.9161 533.5 78.0962 533.5 83.2527C533.5 88.4092 530.381 92.5893 526.535 92.5893Z" fill="white"/>
<path d="M510.707 146.063C519.79 133.407 536.935 126.867 549.001 131.455C561.067 136.044 563.484 150.022 554.4 162.678C545.316 175.333 518.576 195.24 506.511 190.652C494.445 186.064 501.623 158.718 510.707 146.063ZM510.651 184.988C512.136 187.164 515.78 187.265 518.789 185.213C521.799 183.161 523.035 179.733 521.55 177.557C520.064 175.38 516.421 175.279 513.411 177.331C510.401 179.383 509.165 182.811 510.651 184.988Z" fill="#2F2E41"/>
<path d="M520.961 158.442C522.092 159.356 523.224 160.27 524.355 161.184C525.743 162.464 527.387 163.435 529.178 164.034C531.638 164.602 534.208 164.449 536.583 163.593C540.044 162.476 543.078 160.321 545.272 157.421L542.827 157.966C544.124 156.465 545.179 154.77 545.953 152.944C546.527 151.248 546.207 149.528 544.659 149.063C542.887 148.532 540.034 149.727 538.547 148.868C535.974 147.383 540.203 141.851 537.859 140.145C536.493 139.151 533.76 140.134 531.482 141.11C528.648 142.189 525.962 143.623 523.488 145.376C519.441 148.501 517.201 153.425 518.853 156.275C519.419 157.119 520.133 157.853 520.961 158.442Z" fill="#C5C2FF"/>
<path d="M521.795 167.932C523.773 168.202 526.062 166.682 527.971 165.28L528.457 164.644C528.855 163.427 529.022 162.146 528.95 160.867C528.905 160.275 528.66 159.716 528.255 159.281C527.85 158.846 527.31 158.562 526.722 158.474C525.561 158.321 524.013 158.822 523.246 158.151C521.764 156.853 525.201 153.276 523.629 152.062C522.748 151.38 520.874 152.254 520.066 153.425C519.406 154.517 519.101 155.787 519.194 157.06C519.168 158.928 519.141 160.797 519.115 162.666C519.032 163.769 519.143 164.879 519.445 165.943C519.611 166.461 519.919 166.923 520.335 167.274C520.75 167.626 521.256 167.854 521.795 167.932Z" fill="#2F2E41"/>
<path d="M521.299 174.158C524.041 173.349 528.223 170.524 531.785 168.029L532.845 167.107C533.956 165.848 534.897 164.45 535.645 162.947C536.056 161.822 535.527 161.164 533.706 161.708C532.094 162.189 529.555 163.556 528.805 163.287C527.353 162.766 534.345 157.191 532.717 156.805C531.804 156.588 528.584 158.519 526.758 160.17C525.414 161.362 524.303 162.794 523.483 164.393C522.416 166.332 521.349 168.27 520.282 170.209C519.638 171.178 519.189 172.263 518.96 173.403C518.938 174.228 519.635 174.65 521.299 174.158Z" fill="#FD6584"/>
<path d="M133.137 22.8627C132.061 9.24855 123.048 25.313 109.429 26.3885C106.19 26.643 103.032 27.5329 100.137 29.0075C97.2418 30.482 94.6656 32.5123 92.5556 34.9824C90.4455 37.4525 88.843 40.3139 87.8395 43.4032C86.836 46.4926 86.4512 49.7492 86.707 52.9873C86.9629 56.2253 87.8545 59.3812 89.3308 62.2747C90.8071 65.1682 92.8393 67.7426 95.3111 69.8508C97.783 71.9591 100.646 73.5599 103.737 74.5617C106.828 75.5636 110.086 75.9469 113.325 75.6898C126.944 74.6143 134.213 36.4769 133.137 22.8627Z" fill="#C5C2FF"/>
<path d="M48.3478 153.581C48.092 150.343 47.2008 147.188 45.7252 144.295C44.2496 141.403 42.2184 138.829 39.7476 136.72C37.2769 134.612 34.4149 133.011 31.3251 132.009C28.2353 131.006 24.9783 130.622 21.7399 130.877C8.12064 131.953 -0.989803 104.917 0.0860863 118.531C1.16198 132.146 12.0167 181.254 25.636 180.179C28.8744 179.923 32.0307 179.032 34.9246 177.557C37.8186 176.082 40.3936 174.051 42.5026 171.582C44.6116 169.112 46.2133 166.251 47.2162 163.162C48.2191 160.074 48.6036 156.818 48.3478 153.581Z" fill="#C5C2FF"/>
<path d="M17.3026 183.379C21.0259 185.173 25.3275 184.115 28.5421 181.746C32.1985 179.051 34.001 174.764 34.5967 170.366C35.1698 165.646 34.7754 160.859 33.4376 156.296C32.1668 151.894 29.443 147.326 24.5768 146.418C21.3334 145.813 17.8722 147.196 16.9732 150.563C16.6315 151.914 16.6438 153.329 17.0086 154.673C17.3735 156.018 18.0786 157.245 19.0561 158.238C21.9669 161.034 26.6387 160.821 30.0196 159.044C33.9958 156.954 36.1901 152.773 36.9142 148.474C37.775 143.363 36.5725 138.228 34.8615 133.42C33.0019 128.194 30.6862 123.124 28.5591 118.004C24.4108 108.018 20.5139 97.8177 18.8617 87.0796C16.3379 70.6759 20.2679 51.2081 34.6546 41.1663C42.4209 35.7456 52.1608 34.21 61.4266 35.3767C71.1981 36.6071 80.1775 40.8931 88.1291 46.5684C92.2652 49.5734 96.1933 52.8547 99.8864 56.3897C101.006 57.5405 102.442 58.3325 104.013 58.6652C105.584 58.9979 107.218 58.8563 108.708 58.2583C116.355 55.1474 113.918 42.7093 106.036 41.7826C102.454 41.3615 98.7659 43.3589 96.3366 45.8546C93.6866 48.6871 91.9572 52.2557 91.3763 56.0902C90.028 64.1609 93.0215 72.6923 98.2212 78.8616C104.096 85.8312 113.023 89.7548 121.713 91.8216C131.607 94.1745 141.783 94.2945 151.897 94.5181C162.247 94.7469 172.719 95.1402 182.708 98.1084C190.748 100.522 198.334 104.248 205.158 109.136C218.906 118.898 229.194 132.776 234.537 148.766C235.792 152.633 236.722 156.599 237.315 160.622C237.549 162.197 235.082 162.385 234.849 160.817C232.248 143.281 222.751 127.156 209.4 115.612C202.74 109.827 195.116 105.255 186.875 102.104C176.949 98.3395 166.405 97.3849 155.87 97.0776C145.111 96.7637 134.255 96.9346 123.656 94.7814C114.286 92.8778 104.798 89.1438 97.9712 82.2287C91.9517 76.1315 88.2276 67.4085 88.6271 58.7876C88.9988 50.7661 93.4184 42.1889 101.606 39.8052C105.448 38.6867 109.572 39.3982 112.425 42.33C114.012 44.0016 115.104 46.0797 115.58 48.3338C116.057 50.5879 115.899 52.9299 115.125 55.1001C114.105 57.4579 112.244 59.352 109.904 60.4137C107.563 61.4754 104.912 61.6287 102.465 60.8439C100.668 60.1841 99.0451 59.1236 97.7197 57.743C89.9887 50.5066 81.3373 43.8659 71.2706 40.2624C61.8812 36.9013 51.0802 36.2119 41.7375 40.0882C24.0501 47.4266 18.7355 68.724 21.2075 86.072C22.8254 97.4253 27.1254 108.175 31.5238 118.692C33.7698 124.062 36.266 129.398 37.9853 134.968C39.5246 139.954 40.2976 145.305 39.0351 150.443C37.9332 154.927 35.3251 159.048 31.1528 161.22C27.3629 163.193 22.5538 163.534 18.8409 161.187C13.4728 157.795 12.2652 148.428 18.2946 145.014C22.2952 142.749 27.4181 143.862 30.7361 146.837C34.456 150.172 35.9754 155.166 36.7423 159.945C38.1914 168.977 37.0526 180.098 28.1289 184.929C24.4525 186.92 20.0693 187.457 16.2261 185.606C15.9421 185.456 15.7272 185.202 15.6268 184.898C15.5264 184.593 15.5483 184.261 15.688 183.972C15.8276 183.683 16.0741 183.46 16.3753 183.349C16.6765 183.239 17.009 183.249 17.3026 183.379V183.379Z" fill="#2F2E41"/>
<path d="M237.819 154.328C236.678 139.891 256.439 101.289 247.938 90.8399C246.883 89.5341 245.777 88.271 244.619 87.0505C240.871 83.0552 236.654 79.5266 232.06 76.5413C231.283 76.0239 230.5 75.5318 229.71 75.0568C226.902 73.3825 223.981 71.9085 220.966 70.6458C220.419 70.4244 219.864 70.2037 219.309 69.9829C204.106 64.1025 187.309 63.8046 171.907 69.1423C156.505 74.48 143.497 85.1071 135.197 99.1324C126.898 113.158 123.846 129.672 126.584 145.735C129.322 161.799 137.673 176.371 150.15 186.858C150.806 187.418 151.478 187.96 152.165 188.493C158.985 193.816 166.751 197.801 175.053 200.237C175.061 200.236 175.062 200.244 175.07 200.244C187.52 203.877 200.741 203.936 213.223 200.414L213.239 200.413C213.514 200.333 213.789 200.254 214.063 200.166C244.591 191.149 240.426 187.319 237.819 154.328Z" fill="#C5C2FF"/>
<path d="M220.999 70.9573C221 70.8525 220.989 70.7479 220.966 70.6458C220.419 70.4244 219.864 70.2037 219.309 69.9829C219.076 70.0762 218.877 70.238 218.739 70.4468C218.6 70.6556 218.528 70.9015 218.533 71.1521C218.528 72.4017 218.385 73.647 218.106 74.8651C215.716 85.4386 204.888 91.6018 195.221 94.2421C183.393 97.483 170.683 97.5275 159.649 103.385C155.115 105.66 151.203 109.006 148.252 113.131C145.181 117.662 143.893 123.167 144.635 128.589C146.322 141.346 156.148 150.657 160.194 162.5C161.861 167.379 162.271 172.572 160.374 177.451C158.766 181.596 155.591 185.378 151.027 186.234C150.842 186.263 150.667 186.334 150.514 186.442C150.362 186.55 150.237 186.692 150.15 186.857C150.806 187.417 151.478 187.96 152.165 188.493C152.989 188.302 153.79 188.026 154.556 187.667C158.924 185.586 161.748 181.435 163.161 176.917C164.79 171.687 164.17 166.246 162.345 161.156C158.091 149.288 147.576 139.527 146.921 126.424C146.354 115.067 155.692 107.219 165.435 103.44C177.489 98.7676 191.002 99.4617 202.878 94.2161C212.221 90.0885 220.955 81.8169 220.999 70.9573Z" fill="#2F2E41"/>
<path d="M232.06 76.5413C231.283 76.0239 230.5 75.5318 229.71 75.0568C229.618 75.1717 229.552 75.305 229.516 75.4476C229.48 75.5902 229.475 75.7388 229.502 75.8834C230.753 86.4802 227.907 97.1544 221.546 105.723C218.796 109.483 215.43 112.751 211.59 115.389C207.572 118.129 203.054 119.784 198.594 121.641C194.206 123.468 189.768 125.612 186.589 129.245C183.35 132.948 181.991 137.727 181.844 142.567C181.501 154.038 188.024 164.04 189.369 175.203C189.97 180.183 189.252 185.126 186.471 189.388C184.065 193.068 180.298 195.746 175.777 195.574C174.283 195.51 174.38 197.685 175.696 198.003C175.786 198.025 175.878 198.037 175.971 198.039C181.231 198.236 185.731 195.003 188.513 190.749C191.754 185.805 192.555 180.028 191.734 174.247C190.139 163.062 183.366 152.725 184.387 141.151C184.527 138.723 185.177 136.351 186.292 134.189C187.408 132.027 188.966 130.123 190.864 128.601C194.776 125.556 199.554 123.946 204.087 122.067C208.617 120.284 212.834 117.791 216.58 114.681C220.237 111.534 223.367 107.823 225.852 103.688C230.818 95.5543 232.998 86.0243 232.06 76.5413Z" fill="#2F2E41"/>
<path d="M247.938 90.8398C246.883 89.5341 245.777 88.2709 244.619 87.0505C246.223 93.3475 246.496 99.9095 245.422 106.318C244.128 114.381 240.821 121.988 235.805 128.434C233.291 131.644 230.328 134.476 227.008 136.843C223.209 139.541 219.012 141.898 216.496 145.966C211.04 154.797 216.028 165.367 218.71 174.184C220.115 178.786 221.069 183.73 219.512 188.416C218.302 192.051 215.62 195.578 211.656 196.296C210.099 196.576 210.286 199.05 211.851 198.761C212.145 198.705 212.437 198.641 212.729 198.568C217.032 197.434 220.137 193.915 221.644 189.761C223.598 184.34 222.683 178.724 221.041 173.339C218.34 164.482 212.785 152.907 220.448 144.893C223.679 141.513 228.056 139.439 231.587 136.39C234.752 133.671 237.531 130.534 239.849 127.065C246.948 116.411 249.831 103.5 247.938 90.8398Z" fill="#2F2E41"/>
<path d="M200.678 267.34V265.752H227.306V228.712H228.89V265.752H259.407V237.148C259.941 237.567 260.467 237.998 260.987 238.442V265.752H281.144C281.368 266.277 281.583 266.807 281.787 267.34H260.987V298.465H286.813C286.788 298.998 286.752 299.523 286.707 300.052H260.987V324.883H280.256C280.019 325.416 279.771 325.941 279.51 326.463H260.987V347.336H259.407V326.463H228.89V347.336H227.306V326.463H200.678V324.883H227.306C227.306 321.622 226.664 318.393 225.416 315.38C224.168 312.367 222.338 309.63 220.032 307.324C217.725 305.018 214.986 303.189 211.972 301.941C208.958 300.694 205.728 300.052 202.466 300.052H200.678V298.465H227.306V267.34H200.678ZM228.89 324.883H259.407V300.052H228.89V324.883ZM228.89 298.465H259.407V297.842C259.407 293.836 258.617 289.869 257.084 286.169C255.55 282.468 253.302 279.105 250.468 276.273C247.634 273.441 244.27 271.194 240.568 269.661C236.865 268.128 232.897 267.34 228.89 267.34V298.465Z" fill="#2F2E41"/>
<path d="M276.005 558.747L503.377 559Cnan nan nan nan 503.377 559L276.005 556.784C275.876 556.783 275.748 556.809 275.628 556.858C275.509 556.907 275.4 556.979 275.309 557.07C275.217 557.161 275.145 557.27 275.095 557.389C275.046 557.508 275.02 557.636 275.02 557.765C275.02 557.894 275.046 558.022 275.095 558.141C275.145 558.261 275.217 558.369 275.309 558.46C275.4 558.551 275.509 558.624 275.628 558.673C275.748 558.722 275.876 558.747 276.005 558.747Z" fill="#CFCFDE"/>
</svg>
