<svg width="85" height="33" viewBox="0 0 85 33" fill="none" xmlns="http://www.w3.org/2000/svg">
<path d="M0.156311 18.8352H2.67463V29.5703H0.156311V18.8352Z" fill="#9893A3" fill-opacity="0.6"/>
<path fill-rule="evenodd" clip-rule="evenodd" d="M6.89682 22.2866C5.22206 22.8921 4.13206 24.3153 4.13546 25.8922C4.12409 26.9281 4.59299 27.9243 5.43637 28.6561C6.27974 29.3879 7.42655 29.7937 8.61807 29.7819C10.4319 29.7819 12.0669 28.8316 12.7603 27.3745C13.4536 25.9174 13.0685 24.2406 11.7848 23.1267C10.501 22.0127 8.57159 21.6811 6.89682 22.2866ZM8.58522 24.2431C9.65401 24.2272 10.5378 24.9632 10.5654 25.8922C10.5938 26.3523 10.3995 26.8017 10.0295 27.1316C9.65956 27.4616 9.14772 27.6419 8.61793 27.629C7.549 27.6287 6.68013 26.8794 6.67115 25.9502C6.66217 25.0209 7.51644 24.259 8.58522 24.2431Z" fill="#9893A3" fill-opacity="0.6"/>
<path fill-rule="evenodd" clip-rule="evenodd" d="M33.344 29.2373V22.246L30.8676 22.2679V22.9977C30.2646 22.3583 29.3498 22.0039 28.3997 22.0417C26.026 22.0417 24.1017 23.7146 24.1017 25.7782C24.1017 27.8418 26.026 29.5146 28.3997 29.5146C29.3505 29.5559 30.2671 29.2009 30.8676 28.5586V29.2373C30.9164 29.6883 30.7215 30.1335 30.3401 30.4422C29.9588 30.7509 29.4341 30.8881 28.9201 30.8136C28.1316 30.8704 27.383 30.503 27.0314 29.8868L24.8656 30.9742C25.7122 32.1721 27.257 32.8591 28.8698 32.7549C31.1195 32.7549 33.344 31.7113 33.344 29.2373ZM29.663 24.0819C30.4251 24.3807 30.9018 25.052 30.8675 25.7781C30.8831 26.248 30.6694 26.7016 30.2792 27.027C29.8889 27.3523 29.3586 27.519 28.8193 27.4858C27.9834 27.4852 27.2318 27.043 26.9203 26.3686C26.6088 25.6943 26.8 24.923 27.4033 24.42C28.0066 23.917 28.901 23.7832 29.663 24.0819Z" fill="#9893A3" fill-opacity="0.6"/>
<path fill-rule="evenodd" clip-rule="evenodd" d="M16.7326 22.3378C15.0578 22.9433 13.9678 24.3665 13.9712 25.9434C13.9598 26.9793 14.4287 27.9755 15.2721 28.7073C16.1155 29.4392 17.2623 29.8449 18.4538 29.8331C20.2676 29.8331 21.9027 28.8828 22.596 27.4257C23.2893 25.9686 22.9043 24.2919 21.6205 23.1779C20.3368 22.0639 18.4073 21.7323 16.7326 22.3378ZM18.421 24.2943C19.4898 24.2784 20.3736 25.0144 20.4012 25.9434H20.3844C20.4125 26.4009 20.2204 26.8479 19.8542 27.1774C19.488 27.5068 18.9806 27.689 18.4537 27.6803C17.3848 27.6799 16.5159 26.9307 16.5069 26.0014C16.4979 25.0721 17.3522 24.3102 18.421 24.2943Z" fill="#9893A3" fill-opacity="0.6"/>
<path fill-rule="evenodd" clip-rule="evenodd" d="M36.3385 18.9155C35.4947 18.9155 34.8107 19.5101 34.8107 20.2437C34.8153 20.9756 35.4966 21.5679 36.3385 21.5719C37.1823 21.5719 37.8663 20.9772 37.8663 20.2437C37.8663 19.5101 37.1823 18.9155 36.3385 18.9155ZM37.5892 22.2141H35.0709V29.5703H37.5892V22.2141Z" fill="#9893A3" fill-opacity="0.6"/>
<path fill-rule="evenodd" clip-rule="evenodd" d="M47.4819 28.5674C48.2399 27.8372 48.6315 26.8743 48.5698 25.8922C48.6292 24.9113 48.2366 23.9503 47.4788 23.2216C46.7211 22.493 45.6607 22.0569 44.5321 22.0098C43.5812 21.9701 42.659 22.2988 42.0138 22.9074V22.2141H39.4955V32.5332H42.0138V28.8843C42.659 29.4929 43.5812 29.8216 44.5321 29.7819C45.6622 29.7348 46.724 29.2976 47.4819 28.5674ZM44.0203 24.1851C45.1196 24.177 46.0235 24.9366 46.0513 25.8921H46.0345C46.0744 26.3755 45.8721 26.8502 45.4795 27.1943C45.087 27.5383 44.5426 27.7181 43.9863 27.6874C42.8872 27.6632 42.0134 26.8774 42.0227 25.9217C42.032 24.9659 42.9209 24.1931 44.0203 24.1851Z" fill="#9893A3" fill-opacity="0.6"/>
<path d="M56.4107 27.3664C56.4107 29.0594 54.7319 29.7819 52.8851 29.7819C51.3758 29.8981 49.9369 29.2047 49.2503 28.0305L51.4496 26.9431C51.6336 27.49 52.2312 27.8516 52.8851 27.8115C53.4979 27.8115 53.8001 27.6437 53.8001 27.3518C53.8001 26.5417 49.6029 26.9723 49.6029 24.4326C49.6029 22.8271 51.1642 22.0171 52.9606 22.0171C54.3106 21.9814 55.5766 22.5848 56.268 23.5934L54.0603 24.6005C53.861 24.2067 53.4135 23.9521 52.9187 23.951C52.4822 23.951 52.2135 24.0969 52.2135 24.367C52.2471 25.2062 56.4107 24.6443 56.4107 27.3664Z" fill="#9893A3" fill-opacity="0.6"/>
<path d="M65.6785 22.2141V29.5703H63.1602V28.8843C62.566 29.5026 61.6673 29.8363 60.7426 29.7819C59.0638 29.7819 57.5779 28.7238 57.5779 26.7315V22.2141H60.0963V26.4104C60.0514 26.7725 60.1964 27.133 60.491 27.3919C60.7856 27.6509 61.1986 27.7809 61.6157 27.7459C62.539 27.7459 63.1854 27.2788 63.1854 26.2352V22.2141H65.6785Z" fill="#9893A3" fill-opacity="0.6"/>
<path d="M80.2354 25.0602V29.5702H77.7171V25.2499C77.7171 24.5201 77.3058 24.0385 76.4999 24.0385C75.6941 24.0385 75.1736 24.5566 75.1736 25.4251V29.5702H72.6553V25.2499C72.6553 24.5201 72.2524 24.0385 71.4381 24.0385C70.6239 24.0385 70.1202 24.5566 70.1202 25.4251V29.5702H67.6019V22.214H70.1202V22.8927C70.6549 22.2837 71.5079 21.9514 72.3867 22.0097C73.2702 21.9724 74.1114 22.3409 74.6028 22.9803C75.1738 22.3122 76.0994 21.9457 77.054 22.0097C78.9679 22.0097 80.2354 23.2211 80.2354 25.0602Z" fill="#9893A3" fill-opacity="0.6"/>
<path d="M82.3852 22.1703C83.4237 22.1703 84.2655 21.4384 84.2655 20.5356C84.2655 19.6328 83.4237 18.9009 82.3852 18.9009C81.3467 18.9009 80.5048 19.6328 80.5048 20.5356C80.5048 21.4384 81.3467 22.1703 82.3852 22.1703Z" fill="#9893A3" fill-opacity="0.6"/>
<path d="M24.5862 14.3007C28.4522 14.3007 31.5862 11.246 31.5862 7.4777C31.5862 3.70944 28.4522 0.654663 24.5862 0.654663C20.7202 0.654663 17.5862 3.70944 17.5862 7.4777C17.5862 11.246 20.7202 14.3007 24.5862 14.3007Z" fill="#9893A3" fill-opacity="0.4"/>
<path d="M42.0157 14.3007C45.8817 14.3007 49.0157 11.246 49.0157 7.4777C49.0157 3.70944 45.8817 0.654663 42.0157 0.654663C38.1497 0.654663 35.0157 3.70944 35.0157 7.4777C35.0157 11.246 38.1497 14.3007 42.0157 14.3007Z" fill="#CFCFDE" fill-opacity="0.5"/>
<rect x="0.156311" y="0.654663" width="14" height="13.6461" fill="#9893A3" fill-opacity="0.5"/>
</svg>
