<svg width="600" height="407" viewBox="0 0 600 407" fill="none" xmlns="http://www.w3.org/2000/svg">
<g clip-path="url(#clip0_172_1647)">
<path d="M40.3785 306.389C37.5294 306.389 34.6745 306.507 31.8864 306.744L31.4807 306.778C12.9873 308.414 -0.539776 317.906 0.0165533 328.858L0.124105 330.838C0.195029 332.09 0.270597 333.436 0.332797 334.929C0.366486 335.665 1.37049 336.23 2.61977 336.23H457.512C489.584 336.036 521.54 335.79 552.487 335.501C558.291 335.513 564.091 335.213 569.863 334.6C578.463 333.582 584.432 331.562 588.113 328.427H588.115C592.692 324.539 592.836 319.644 592.559 314.112C591.996 302.943 591.436 291.21 590.878 279.512C590.385 269.203 589.895 258.921 589.404 249.077C589.1 243.235 588.426 238.079 583.228 234.138C577.594 229.876 567.318 227.716 552.686 227.716C552.509 227.716 552.333 227.716 552.154 227.717C506.299 227.88 460.863 243.659 439.094 266.982C436.588 269.668 434.252 272.543 431.993 275.324C428.655 279.433 425.204 283.68 421.086 287.478C418.856 289.563 416.445 291.444 413.881 293.099C413.704 293.221 413.502 293.352 413.288 293.477C412.798 293.796 412.287 294.103 411.788 294.378C408.867 296.066 405.79 297.466 402.599 298.558L402.277 298.667C402.035 298.753 401.772 298.84 401.509 298.919C399.667 299.511 397.752 300.023 395.834 300.437C387.536 302.267 378.101 302.706 367.791 301.74C358.323 300.829 348.977 298.923 339.907 296.053C330.36 293.034 321.424 289.269 312.782 285.628C308.985 284.029 305.059 282.375 301.138 280.808C300.401 280.513 299.676 280.225 298.94 279.936C294.151 278.068 289.809 276.526 285.666 275.22C275.403 271.973 264.779 270.003 254.035 269.357C242.63 268.732 232.58 269.911 224.171 272.852C221.852 273.66 219.595 274.633 217.416 275.764C207.455 280.941 201.314 288.581 195.377 295.969C187.99 305.16 180.352 314.663 165.27 319.59C147.867 325.28 122.463 322.916 104.491 318.805C98.8403 317.512 93.1967 316.025 87.7386 314.587C85.5342 314.006 83.3282 313.428 81.1207 312.855C76.7828 311.734 73.2326 310.876 69.9481 310.151L68.9092 309.919C68.3314 309.794 67.7529 309.668 67.1641 309.549C63.2627 308.729 59.63 308.084 56.0524 307.576L55.206 307.453C53.5091 307.229 51.9226 307.043 50.3659 306.886L49.7444 306.825C46.6953 306.534 43.5398 306.389 40.3785 306.389Z" fill="#717082"/>
<path d="M510.764 318.612C523.564 307.069 542.602 301.264 558.572 307.737C542.19 316.839 529.554 331.447 522.898 348.976C520.356 355.745 518.232 363.539 511.979 367.164C508.088 369.419 503.247 369.529 498.885 368.44C494.522 367.352 490.523 365.169 486.578 363.009L485.456 362.983C490.494 346.493 497.964 330.155 510.764 318.612Z" fill="#CFCFDE"/>
<path d="M558.483 308.088C544.339 309.917 531.13 316.16 520.734 325.929C518.458 327.993 516.522 330.402 514.996 333.069C513.593 335.715 512.925 338.689 513.059 341.681C513.128 344.473 513.522 347.321 512.911 350.082C512.578 351.49 511.951 352.812 511.071 353.961C510.191 355.11 509.079 356.06 507.807 356.748C504.681 358.546 501.097 359.113 497.572 359.545C493.659 360.025 489.587 360.462 486.199 362.659C485.789 362.925 485.4 362.272 485.81 362.006C491.704 358.184 499.161 359.575 505.499 357.024C508.456 355.834 511.072 353.745 511.998 350.586C512.808 347.824 512.405 344.886 512.31 342.059C512.137 339.142 512.679 336.227 513.891 333.569C515.276 330.833 517.116 328.352 519.333 326.234C524.247 321.386 529.893 317.342 536.063 314.248C543.085 310.679 550.665 308.339 558.476 307.328C558.959 307.265 558.963 308.026 558.483 308.088H558.483Z" fill="#ECEBFF"/>
<path d="M523.896 322.586C522.495 320.618 521.839 318.216 522.044 315.808C522.25 313.4 523.304 311.144 525.019 309.442C525.367 309.099 525.916 309.624 525.567 309.968C523.968 311.549 522.986 313.651 522.799 315.894C522.612 318.136 523.233 320.372 524.548 322.197C524.834 322.594 524.18 322.981 523.896 322.586V322.586Z" fill="#ECEBFF"/>
<path d="M512.837 340.27C517.698 341.131 522.704 340.128 526.859 337.46C527.27 337.195 527.659 337.848 527.248 338.112C522.92 340.881 517.708 341.914 512.652 341.006C512.17 340.92 512.358 340.183 512.837 340.27Z" fill="#ECEBFF"/>
<path d="M543.146 311.685C543.53 312.56 544.124 313.325 544.877 313.913C545.629 314.501 546.515 314.893 547.456 315.053C547.939 315.134 547.75 315.87 547.27 315.79C546.232 315.608 545.253 315.174 544.421 314.527C543.588 313.879 542.927 313.037 542.494 312.075C542.446 311.987 542.433 311.885 542.457 311.788C542.481 311.691 542.542 311.608 542.626 311.554C542.712 311.503 542.816 311.488 542.913 311.512C543.011 311.537 543.094 311.599 543.146 311.685Z" fill="#ECEBFF"/>
<path d="M576.158 363.404C575.855 363.363 575.552 363.321 575.245 363.284C571.17 362.742 567.059 362.533 562.95 362.659C562.633 362.663 562.311 362.673 561.994 362.686C552.099 363.094 542.366 365.336 533.289 369.299C529.679 370.879 526.194 372.732 522.865 374.841C518.267 377.755 513.513 381.28 508.373 382.468C507.838 382.598 507.296 382.695 506.749 382.758L485.512 364.355C485.485 364.289 485.453 364.228 485.426 364.162L484.544 363.466C484.708 363.345 484.881 363.223 485.045 363.102C485.14 363.032 485.24 362.966 485.335 362.895C485.399 362.849 485.465 362.804 485.52 362.759C485.542 362.744 485.564 362.729 485.581 362.718C485.637 362.673 485.693 362.637 485.745 362.597C486.709 361.914 487.68 361.236 488.657 360.564C488.661 360.56 488.661 360.56 488.67 360.559C496.066 355.367 504.052 351.071 512.459 347.761C512.711 347.666 512.967 347.566 513.229 347.479C517.016 346.07 520.911 344.973 524.875 344.199C527.048 343.782 529.24 343.476 531.443 343.281C537.137 342.788 542.873 343.195 548.441 344.486C559.54 347.062 569.692 353.161 575.705 362.673C575.859 362.917 576.008 363.156 576.158 363.404Z" fill="#CFCFDE"/>
<path d="M575.877 363.633C563.483 356.571 549.181 353.597 535.002 355.133C531.944 355.409 528.948 356.166 526.126 357.376C523.414 358.644 521.091 360.615 519.398 363.085C517.774 365.356 516.375 367.868 514.227 369.704C513.113 370.628 511.817 371.306 510.424 371.693C509.03 372.08 507.57 372.168 506.14 371.951C502.563 371.504 499.36 369.796 496.286 368.018C492.873 366.043 489.358 363.938 485.332 363.651C484.844 363.616 484.927 362.861 485.414 362.895C492.419 363.395 497.537 368.999 504.131 370.781C507.209 371.612 510.555 371.521 513.195 369.556C515.503 367.839 516.948 365.25 518.573 362.936C520.189 360.503 522.376 358.502 524.943 357.109C527.695 355.759 530.657 354.888 533.701 354.533C540.541 353.623 547.482 353.795 554.269 355.043C562.023 356.424 569.484 359.123 576.328 363.022C576.752 363.263 576.297 363.873 575.877 363.633V363.633Z" fill="#ECEBFF"/>
<path d="M539.539 354.369C539.604 351.954 540.525 349.64 542.138 347.841C543.751 346.042 545.95 344.876 548.343 344.55C548.827 344.486 548.949 345.236 548.464 345.301C546.236 345.6 544.187 346.687 542.689 348.365C541.191 350.043 540.341 352.201 540.294 354.451C540.283 354.94 539.528 354.855 539.539 354.369V354.369Z" fill="#ECEBFF"/>
<path d="M520.071 361.825C523.433 365.442 528.034 367.657 532.956 368.03C533.444 368.067 533.361 368.822 532.874 368.786C527.753 368.388 522.97 366.073 519.479 362.302C519.146 361.942 519.74 361.467 520.071 361.825H520.071Z" fill="#ECEBFF"/>
<path d="M561.467 357.264C561.247 358.194 561.261 359.163 561.508 360.086C561.755 361.008 562.227 361.855 562.882 362.55C563.219 362.905 562.625 363.379 562.291 363.026C561.571 362.255 561.05 361.32 560.775 360.301C560.5 359.282 560.478 358.212 560.712 357.183C560.726 357.084 560.777 356.994 560.855 356.931C560.932 356.869 561.031 356.838 561.13 356.846C561.23 356.857 561.322 356.907 561.385 356.986C561.448 357.064 561.477 357.164 561.467 357.264Z" fill="#ECEBFF"/>
<path d="M175.692 330.092C186.173 314.183 204.922 302.674 223.801 305.151C208.811 319.447 199.356 338.588 197.11 359.189C196.273 367.137 196.168 376.064 190.488 381.682C186.953 385.177 181.806 386.643 176.838 386.693C171.869 386.743 166.985 385.522 162.166 384.31L160.959 384.595C161.763 365.556 165.211 346.002 175.692 330.092Z" fill="#CFCFDE"/>
<path d="M223.803 305.551C209.184 311.445 196.793 321.799 188.389 335.143C186.529 337.983 185.127 341.099 184.237 344.377C183.472 347.597 183.584 350.963 184.559 354.126C185.409 357.093 186.622 360.03 186.737 363.153C186.772 364.752 186.468 366.34 185.847 367.814C185.225 369.288 184.3 370.613 183.13 371.704C180.287 374.497 176.611 376.101 172.962 377.545C168.91 379.148 164.676 380.748 161.663 384.041C161.298 384.44 160.701 383.85 161.066 383.451C166.307 377.723 174.669 377.134 180.738 372.641C183.57 370.545 185.788 367.582 185.9 363.946C185.999 360.766 184.75 357.737 183.864 354.74C182.867 351.668 182.637 348.399 183.194 345.218C183.915 341.906 185.194 338.741 186.976 335.859C190.884 329.305 195.798 323.408 201.537 318.382C208.055 312.609 215.511 307.996 223.584 304.74C224.084 304.538 224.3 305.351 223.803 305.551L223.803 305.551Z" fill="#ECEBFF"/>
<path d="M190.842 330.687C188.796 328.972 187.427 326.585 186.977 323.952C186.528 321.32 187.028 318.613 188.388 316.316C188.665 315.852 189.399 316.261 189.121 316.725C187.851 318.862 187.385 321.384 187.808 323.834C188.232 326.285 189.517 328.503 191.431 330.089C191.847 330.434 191.255 331.03 190.842 330.687Z" fill="#ECEBFF"/>
<path d="M183.93 352.678C189.368 352.247 194.444 349.78 198.145 345.77C198.511 345.372 199.109 345.962 198.743 346.359C194.883 350.525 189.596 353.082 183.936 353.518C183.397 353.56 183.393 352.72 183.93 352.678H183.93Z" fill="#ECEBFF"/>
<path d="M208.4 313.668C209.054 314.497 209.903 315.15 210.87 315.569C211.838 315.988 212.895 316.161 213.946 316.07C214.485 316.022 214.487 316.862 213.952 316.91C212.791 317.004 211.624 316.813 210.553 316.352C209.483 315.891 208.542 315.175 207.811 314.266C207.735 314.186 207.693 314.081 207.692 313.97C207.691 313.86 207.732 313.753 207.807 313.672C207.885 313.594 207.992 313.549 208.103 313.548C208.214 313.547 208.321 313.59 208.4 313.668H208.4Z" fill="#ECEBFF"/>
<path d="M258.084 359.792C257.748 359.832 257.413 359.872 257.074 359.917C252.566 360.473 248.11 361.394 243.751 362.672C243.412 362.765 243.071 362.865 242.735 362.968C232.266 366.158 222.48 371.266 213.874 378.032C210.452 380.727 207.239 383.679 204.265 386.862C200.157 391.259 196.053 396.352 190.886 399.054C190.35 399.342 189.796 399.597 189.229 399.816L161.4 386.047C161.353 385.984 161.302 385.927 161.254 385.864L160.118 385.365C160.26 385.19 160.411 385.011 160.553 384.836C160.634 384.735 160.723 384.636 160.805 384.534C160.861 384.467 160.918 384.401 160.965 384.337C160.984 384.315 161.003 384.292 161.019 384.276C161.066 384.213 161.117 384.159 161.161 384.101C162.002 383.102 162.852 382.107 163.71 381.116C163.713 381.11 163.713 381.11 163.722 381.107C170.28 373.574 177.525 366.523 185.608 360.796C185.851 360.624 186.097 360.445 186.353 360.279C190.011 357.718 193.872 355.461 197.897 353.529C200.105 352.479 202.364 351.541 204.666 350.719C210.619 348.606 216.867 347.444 223.181 347.275C235.768 346.94 248.322 350.637 257.397 359.136C257.629 359.354 257.855 359.568 258.084 359.792Z" fill="#CFCFDE"/>
<path d="M257.847 360.115C242.628 356.013 226.505 356.814 211.768 362.404C208.574 363.551 205.58 365.195 202.898 367.275C200.35 369.386 198.413 372.141 197.289 375.254C196.183 378.135 195.385 381.211 193.598 383.773C192.664 385.071 191.466 386.157 190.083 386.959C188.7 387.761 187.164 388.261 185.574 388.428C181.624 388.945 177.724 388.011 173.941 386.964C169.742 385.803 165.398 384.53 161.012 385.343C160.48 385.442 160.359 384.611 160.889 384.513C168.52 383.097 175.552 387.665 183.1 387.735C186.622 387.767 190.176 386.738 192.453 383.902C194.444 381.423 195.27 378.252 196.365 375.325C197.417 372.272 199.2 369.523 201.558 367.319C204.126 365.109 207.052 363.352 210.209 362.124C217.272 359.247 224.743 357.499 232.349 356.944C241.026 356.262 249.755 357.071 258.16 359.336C258.68 359.476 258.363 360.254 257.847 360.115Z" fill="#ECEBFF"/>
<path d="M216.407 360.325C215.806 357.723 216.148 354.991 217.373 352.619C218.597 350.246 220.625 348.386 223.094 347.372C223.594 347.168 223.933 347.936 223.433 348.14C221.132 349.081 219.244 350.813 218.108 353.025C216.971 355.237 216.663 357.782 217.237 360.202C217.362 360.728 216.531 360.847 216.407 360.325H216.407Z" fill="#ECEBFF"/>
<path d="M197.658 373.719C202.26 376.651 207.796 377.739 213.164 376.768C213.696 376.671 213.818 377.502 213.287 377.599C207.699 378.599 201.94 377.455 197.158 374.393C196.702 374.101 197.205 373.428 197.658 373.719V373.719Z" fill="#ECEBFF"/>
<path d="M240.665 357.316C240.688 358.371 240.973 359.404 241.494 360.322C242.014 361.24 242.754 362.014 243.648 362.575C244.107 362.861 243.604 363.533 243.148 363.249C242.163 362.625 241.347 361.769 240.769 360.756C240.192 359.743 239.871 358.604 239.835 357.438C239.822 357.329 239.852 357.218 239.918 357.13C239.983 357.041 240.08 356.981 240.189 356.962C240.299 356.946 240.41 356.974 240.5 357.04C240.589 357.107 240.648 357.206 240.665 357.316V357.316Z" fill="#ECEBFF"/>
<path d="M250.285 210.814C250.98 210.121 251.515 209.285 251.853 208.363C252.19 207.441 252.322 206.456 252.238 205.478C252.154 204.5 251.856 203.552 251.367 202.701C250.877 201.85 250.207 201.118 249.404 200.554L260.357 147.5L248.54 151.231L239.727 202.557C238.87 203.97 238.561 205.649 238.859 207.274C239.156 208.9 240.04 210.361 241.341 211.378C242.642 212.396 244.272 212.901 245.92 212.797C247.568 212.693 249.121 211.987 250.285 210.814Z" fill="#FFB6B6"/>
<path d="M275.603 68.9982L268.283 63.468C268.283 63.468 261.825 63.0103 260.681 74.6653C259.538 86.3203 252.377 131.052 252.377 131.052L241.175 182.975L256.681 186.381L268.679 130.347L280.689 91.6891L275.603 68.9982Z" fill="#CFCFDE"/>
<path d="M270.026 165.074L234.911 137.749C234.364 137.322 234.009 136.696 233.923 136.008C233.837 135.319 234.027 134.624 234.452 134.076L258.344 103.325C258.77 102.777 259.396 102.421 260.084 102.335C260.772 102.249 261.466 102.44 262.014 102.865L297.13 130.19C297.676 130.617 298.032 131.243 298.118 131.932C298.204 132.62 298.014 133.315 297.589 133.863L273.697 164.615C273.27 165.162 272.645 165.518 271.957 165.604C271.268 165.69 270.574 165.5 270.026 165.074Z" fill="#2F2E41"/>
<path d="M269.833 162.247L237.697 137.24C237.211 136.861 236.896 136.305 236.819 135.693C236.743 135.082 236.912 134.465 237.289 133.978L258.948 106.101C259.327 105.615 259.883 105.299 260.494 105.222C261.104 105.146 261.721 105.315 262.207 105.693L294.344 130.7C294.829 131.079 295.145 131.635 295.221 132.246C295.298 132.858 295.129 133.474 294.752 133.961L273.092 161.839C272.714 162.325 272.158 162.641 271.547 162.717C270.936 162.794 270.32 162.625 269.833 162.247Z" fill="#ECEBFF"/>
<path d="M241.91 136.531C241.789 136.436 241.71 136.297 241.691 136.144C241.672 135.991 241.714 135.837 241.808 135.715L252.735 121.652C252.829 121.53 252.968 121.451 253.121 121.432C253.196 121.423 253.273 121.428 253.347 121.448C253.42 121.468 253.489 121.503 253.549 121.55C253.609 121.597 253.66 121.655 253.697 121.721C253.735 121.788 253.759 121.861 253.769 121.936C253.778 122.012 253.773 122.089 253.753 122.162C253.732 122.236 253.698 122.305 253.651 122.365L242.725 136.428C242.63 136.55 242.491 136.629 242.338 136.648C242.186 136.667 242.032 136.625 241.91 136.531Z" fill="#ECEBFF"/>
<path d="M243.721 137.94C243.6 137.845 243.521 137.706 243.502 137.553C243.482 137.4 243.525 137.246 243.619 137.124L254.546 123.061C254.64 122.939 254.779 122.86 254.932 122.841C255.084 122.822 255.239 122.864 255.36 122.959C255.482 123.053 255.561 123.192 255.58 123.345C255.599 123.498 255.557 123.652 255.462 123.774L244.536 137.837C244.441 137.959 244.302 138.038 244.149 138.057C243.997 138.076 243.843 138.034 243.721 137.94Z" fill="#ECEBFF"/>
<path d="M251.722 131.382C251.601 131.287 251.522 131.148 251.503 130.995C251.484 130.842 251.526 130.688 251.62 130.566L256.356 124.47C256.403 124.41 256.461 124.359 256.528 124.321C256.594 124.284 256.667 124.259 256.743 124.25C256.819 124.24 256.895 124.246 256.969 124.266C257.043 124.286 257.112 124.321 257.172 124.367C257.232 124.414 257.282 124.473 257.32 124.539C257.358 124.605 257.382 124.679 257.392 124.754C257.401 124.83 257.395 124.907 257.375 124.981C257.355 125.054 257.32 125.123 257.273 125.184L252.537 131.28C252.442 131.401 252.303 131.48 252.151 131.499C251.998 131.518 251.844 131.476 251.722 131.382Z" fill="#ECEBFF"/>
<path d="M254.164 143.345C254.042 143.25 253.963 143.111 253.944 142.958C253.925 142.805 253.967 142.651 254.062 142.529L271.311 120.328C271.358 120.267 271.416 120.217 271.483 120.179C271.549 120.142 271.622 120.117 271.698 120.108C271.773 120.098 271.85 120.104 271.923 120.124C271.997 120.144 272.066 120.179 272.126 120.226C272.186 120.272 272.237 120.331 272.274 120.397C272.312 120.463 272.336 120.536 272.346 120.612C272.355 120.688 272.35 120.765 272.329 120.838C272.309 120.912 272.275 120.981 272.228 121.041L254.978 143.243C254.884 143.364 254.745 143.443 254.592 143.462C254.439 143.481 254.285 143.439 254.164 143.345Z" fill="#ECEBFF"/>
<path d="M255.975 144.754C255.853 144.659 255.774 144.52 255.755 144.367C255.736 144.214 255.778 144.06 255.873 143.938L273.122 121.737C273.169 121.676 273.227 121.626 273.293 121.588C273.36 121.55 273.433 121.526 273.508 121.517C273.584 121.507 273.661 121.513 273.734 121.533C273.808 121.553 273.877 121.588 273.937 121.635C273.997 121.681 274.047 121.74 274.085 121.806C274.123 121.872 274.147 121.945 274.157 122.021C274.166 122.097 274.161 122.174 274.14 122.247C274.12 122.321 274.086 122.39 274.039 122.45L256.789 144.652C256.695 144.773 256.556 144.852 256.403 144.871C256.25 144.89 256.096 144.848 255.975 144.754Z" fill="#ECEBFF"/>
<path d="M260.085 147.952C259.964 147.858 259.885 147.719 259.866 147.566C259.847 147.413 259.889 147.259 259.984 147.137L277.233 124.936C277.28 124.875 277.338 124.825 277.404 124.787C277.471 124.749 277.544 124.725 277.619 124.716C277.695 124.706 277.772 124.712 277.845 124.732C277.919 124.752 277.988 124.787 278.048 124.834C278.108 124.88 278.158 124.939 278.196 125.005C278.234 125.071 278.258 125.144 278.267 125.22C278.277 125.296 278.271 125.373 278.251 125.446C278.231 125.52 278.196 125.589 278.15 125.649L260.9 147.85C260.806 147.972 260.667 148.051 260.514 148.07C260.361 148.089 260.207 148.047 260.085 147.952Z" fill="#ECEBFF"/>
<path d="M261.896 149.362C261.775 149.267 261.696 149.128 261.677 148.975C261.658 148.822 261.7 148.668 261.794 148.546L279.044 126.345C279.091 126.284 279.149 126.234 279.215 126.196C279.281 126.159 279.355 126.134 279.43 126.125C279.506 126.115 279.583 126.121 279.656 126.141C279.73 126.161 279.798 126.196 279.859 126.243C279.919 126.29 279.969 126.348 280.007 126.414C280.045 126.48 280.069 126.554 280.078 126.629C280.088 126.705 280.082 126.782 280.062 126.855C280.042 126.929 280.007 126.998 279.961 127.058L262.711 149.26C262.617 149.381 262.478 149.46 262.325 149.479C262.172 149.498 262.018 149.456 261.896 149.362Z" fill="#ECEBFF"/>
<path d="M266.007 152.561C265.886 152.466 265.807 152.327 265.788 152.174C265.769 152.021 265.811 151.867 265.905 151.745L283.155 129.544C283.202 129.483 283.26 129.433 283.326 129.395C283.392 129.358 283.465 129.333 283.541 129.324C283.617 129.314 283.693 129.32 283.767 129.34C283.84 129.36 283.909 129.395 283.969 129.442C284.03 129.489 284.08 129.547 284.118 129.613C284.155 129.679 284.18 129.752 284.189 129.828C284.199 129.904 284.193 129.981 284.173 130.054C284.153 130.128 284.118 130.197 284.071 130.257L266.822 152.459C266.727 152.58 266.588 152.659 266.436 152.678C266.283 152.697 266.129 152.655 266.007 152.561Z" fill="#ECEBFF"/>
<path d="M267.818 153.97C267.697 153.875 267.618 153.736 267.599 153.583C267.58 153.43 267.622 153.276 267.716 153.155L284.966 130.953C285.06 130.832 285.199 130.753 285.352 130.734C285.504 130.716 285.658 130.758 285.779 130.852C285.901 130.947 285.98 131.085 285.999 131.238C286.018 131.39 285.976 131.544 285.882 131.666L268.633 153.868C268.538 153.989 268.399 154.068 268.247 154.087C268.094 154.107 267.94 154.064 267.818 153.97Z" fill="#ECEBFF"/>
<path d="M238.989 179.754C239.12 179.754 239.227 179.647 239.227 179.515C239.227 179.383 239.12 179.277 238.989 179.277C238.857 179.277 238.75 179.383 238.75 179.515C238.75 179.647 238.857 179.754 238.989 179.754Z" fill="#ECEBFF"/>
<path d="M273.722 15.3827C272.883 19.8907 271.508 24.282 269.627 28.4628C258.851 51.2766 289.538 43.8404 300.505 43.8404C312.495 43.8404 323.968 50.1505 322.215 22.113C321.467 10.1366 312.495 0.385498 300.505 0.385498C290.263 0.385498 275.863 4.94132 273.722 15.3827Z" fill="#2F2E41"/>
<path d="M311.682 349.978H301.466L296.604 310.543H311.682V349.978Z" fill="#FFB6B6"/>
<path d="M317.073 367.692H309.747L308.44 360.77L305.09 367.692H285.66C284.728 367.692 283.821 367.394 283.071 366.842C282.321 366.29 281.767 365.512 281.489 364.622C281.212 363.732 281.227 362.777 281.53 361.896C281.834 361.014 282.411 360.253 283.178 359.724L298.695 348.999V342.001L315.015 342.976L317.073 367.692Z" fill="#2F2E41"/>
<path d="M372.374 337.076L364.176 343.177L336.762 314.436L348.861 305.431L372.374 337.076Z" fill="#FFB6B6"/>
<path d="M387.263 348.071L381.384 352.446L376.207 347.672L377.647 355.227L362.055 366.83C361.307 367.387 360.402 367.689 359.471 367.694C358.539 367.699 357.631 367.405 356.878 366.857C356.125 366.308 355.567 365.533 355.285 364.645C355.003 363.756 355.013 362.801 355.312 361.918L361.369 344.046L357.196 338.43L370.874 329.466L387.263 348.071Z" fill="#2F2E41"/>
<path d="M278.223 168.487L326.718 160.928L317.074 131.894H278.223V168.487Z" fill="#FFB6B6"/>
<path d="M323.575 146.517C323.575 146.517 342.958 163.276 334.015 211.052L323.097 257.865L352.844 309.549L337.718 317.806L301.061 266.817L284.287 227.439L275.414 158.426L323.575 146.517Z" fill="#2F2E41"/>
<path d="M293.532 238.661L292.366 256.73L295.779 310.237L312.722 316.075L315.931 261.252L293.532 238.661Z" fill="#2F2E41"/>
<path d="M288.323 49.854L307.069 50.5859L314.539 62.9968L331.584 66.3269L321.409 117.844L323.28 147.167L306.308 147.063C294.076 146.989 282.248 151.436 273.091 159.552L273.599 121.488L266.298 93.0746L267.939 63.2808L281.651 61.5655L288.323 49.854Z" fill="#CFCFDE"/>
<path d="M298.708 43.835C308.452 43.835 316.351 35.9301 316.351 26.179C316.351 16.4278 308.452 8.52295 298.708 8.52295C288.965 8.52295 281.066 16.4278 281.066 26.179C281.066 35.9301 288.965 43.835 298.708 43.835Z" fill="#FFB6B6"/>
<path d="M286.728 8.18106C289.819 6.29492 293.36 5.27462 296.98 5.22686C300.601 5.17909 304.168 6.10561 307.308 7.90954C310.448 9.71346 313.046 12.3285 314.83 15.4813C316.615 18.6341 317.52 22.2088 317.452 25.8316C308.462 28.0904 299.018 29.819 289.431 26.3719L287.167 20.8267L285.833 26.376C282.913 27.5703 279.986 28.5807 277.059 26.3645C276.939 22.7519 277.769 19.1711 279.466 15.9802C281.163 12.7893 283.667 10.1 286.728 8.18106Z" fill="#2F2E41"/>
<path d="M328.321 182.763L330.699 204.363C330.865 204.902 331.199 205.374 331.652 205.709C332.105 206.044 332.654 206.225 333.217 206.225H344.18C344.744 206.225 345.292 206.044 345.746 205.709C346.199 205.374 346.533 204.902 346.698 204.363L348.668 187.808C349.237 188.087 349.863 188.227 350.497 188.216C351.13 188.206 351.751 188.045 352.31 187.747C352.869 187.449 353.349 187.023 353.712 186.503C354.074 185.983 354.307 185.385 354.393 184.757C354.479 184.129 354.415 183.49 354.206 182.891C353.997 182.293 353.649 181.753 353.191 181.316C352.733 180.878 352.178 180.556 351.571 180.375C350.964 180.194 350.323 180.16 349.7 180.276C349.454 179.986 349.148 179.752 348.803 179.592C348.457 179.433 348.081 179.35 347.701 179.351H330.84C330.427 179.351 330.021 179.448 329.653 179.634C329.285 179.82 328.965 180.09 328.72 180.422C328.475 180.754 328.312 181.138 328.242 181.545C328.173 181.952 328.2 182.369 328.321 182.763ZM349.013 186.689L350.219 182.763C350.359 182.311 350.373 181.828 350.259 181.368C350.311 181.365 350.359 181.353 350.411 181.353V187.07Cnan nan nan nan 350.411 187.07C349.92 187.067 349.438 186.936 349.013 186.689Z" fill="#6C63FF"/>
<path d="M344.852 206.24C344.16 205.544 343.629 204.704 343.296 203.781C342.964 202.857 342.837 201.872 342.926 200.894C343.015 199.916 343.317 198.97 343.811 198.122C344.305 197.273 344.979 196.544 345.785 195.984L335.101 142.875L346.9 146.667L355.452 198.036C356.301 199.454 356.601 201.134 356.296 202.758C355.99 204.383 355.099 205.838 353.793 206.85C352.486 207.861 350.854 208.357 349.207 208.245C347.559 208.132 346.009 207.419 344.852 206.24Z" fill="#FFB6B6"/>
<path d="M324.264 71.8571L331.584 66.3269C331.584 66.3269 338.042 65.8692 339.186 77.5242C340.33 89.1792 347.491 133.911 347.491 133.911L358.693 185.834L343.186 189.24L331.188 133.206L319.178 94.548L324.264 71.8571Z" fill="#CFCFDE"/>
<path d="M261.083 120.202C263.372 120.202 265.227 118.346 265.227 116.055C265.227 113.765 263.372 111.908 261.083 111.908C258.795 111.908 256.939 113.765 256.939 116.055C256.939 118.346 258.795 120.202 261.083 120.202Z" fill="#6C63FF"/>
<path d="M128.941 398.088L137.577 398.087L141.686 364.751L128.94 364.752L128.941 398.088Z" fill="#FFB6B6"/>
<path d="M126.739 395.266L129.169 395.266L138.66 391.404L143.746 395.265H143.747C146.621 395.266 149.378 396.408 151.41 398.442C153.443 400.477 154.585 403.235 154.585 406.112V406.465L126.739 406.466L126.739 395.266Z" fill="#2F2E41"/>
<path d="M162.407 392.641L170.832 394.545L182.176 362.934L169.743 360.124L162.407 392.641Z" fill="#FFB6B6"/>
<path d="M160.88 389.403L163.251 389.939L173.358 388.264L177.469 393.152L177.47 393.152C180.274 393.786 182.711 395.508 184.246 397.941C185.781 400.373 186.288 403.316 185.655 406.122L185.577 406.465L158.415 400.328L160.88 389.403Z" fill="#2F2E41"/>
<path d="M113.132 226.613L120.941 314.175C120.941 314.175 118.015 366.743 127.457 385.242H141.15L147.93 309.374L148.781 258.452L178.138 301.413L159.439 384.002L176.293 385.509L206.635 295.882L173.3 211.743L113.132 226.613Z" fill="#2F2E41"/>
<path d="M121.31 87.1715C132.433 87.1715 141.45 78.1476 141.45 67.0162C141.45 55.8847 132.433 46.8608 121.31 46.8608C110.188 46.8608 101.171 55.8847 101.171 67.0162C101.171 78.1476 110.188 87.1715 121.31 87.1715Z" fill="#FFB6B6"/>
<path d="M156.714 106.378L140.192 99.2836L132.149 90.7458L112.056 93.9889L106.725 103.137L89.4672 119.196L109.686 210.69L109.074 230.673C109.074 230.673 122.015 236.503 178.138 223.079C178.811 222.918 177.402 222.214 177.402 222.214L156.714 106.378Z" fill="#2F2E41"/>
<path d="M100.368 78.4528C100.228 78.2612 100.089 78.0679 99.9514 77.873C99.896 77.9901 99.852 78.111 99.7888 78.2253L100.368 78.4528Z" fill="#2F2E41"/>
<path d="M141.344 52.2734C139.998 49.3385 137.598 47.0178 134.62 45.7726C131.669 44.5814 128.371 44.5843 125.422 45.7807C122.759 44.0972 119.801 42.7626 116.686 42.5973C113.57 42.432 110.276 43.5887 108.356 46.135C107.927 46.8071 107.441 47.4402 106.901 48.027C105.358 49.4573 103.012 49.251 100.961 48.9585C101.881 49.7477 102.801 50.5369 103.722 51.326C102.608 51.6172 101.494 51.9084 100.38 52.1996C101.68 52.9885 102.98 53.7774 104.279 54.5663C100.506 56.8328 98.7913 61.7796 99.2443 66.2724C99.6729 70.5261 101.725 74.4157 104.178 77.873C105.156 75.8064 104.946 73.3336 104.929 71.006C104.913 68.5467 105.347 65.754 107.316 64.3796C108.645 63.4524 110.353 63.411 111.955 63.4198C120.034 63.4642 128.105 63.9684 136.127 64.9301C137.216 64.9772 138.277 65.2853 139.222 65.8284C140.996 67.0397 141.342 69.5394 141.52 71.7323C142.457 68.1114 142.916 64.3831 142.885 60.6427C142.963 57.7757 142.439 54.9241 141.344 52.2734Z" fill="#2F2E41"/>
<path d="M147.614 287.994C165.121 287.994 179.313 273.791 179.313 256.271C179.313 238.751 165.121 224.548 147.614 224.548C130.108 224.548 115.916 238.751 115.916 256.271C115.916 273.791 130.108 287.994 147.614 287.994Z" fill="#ECEBFF"/>
<path d="M147.614 223.843C145.985 223.843 144.358 223.966 142.747 224.21C141.923 224.33 141.12 224.485 140.323 224.675C134.476 226.024 129.117 228.973 124.847 233.192C120.576 237.411 117.56 242.734 116.136 248.569C114.712 254.403 114.936 260.519 116.783 266.233C118.63 271.947 122.027 277.036 126.595 280.931C127.137 281.389 127.686 281.833 128.257 282.256C132.369 285.325 137.151 287.372 142.209 288.23C147.266 289.087 152.455 288.731 157.348 287.19C162.241 285.648 166.698 282.966 170.353 279.364C174.007 275.762 176.755 271.343 178.37 266.47C179.985 261.597 180.42 256.411 179.641 251.337C178.861 246.263 176.888 241.447 173.885 237.285C170.883 233.123 166.935 229.734 162.368 227.397C157.8 225.06 152.744 223.842 147.614 223.843V223.843ZM147.614 287.289C141.024 287.297 134.605 285.189 129.3 281.276C128.722 280.853 128.166 280.416 127.623 279.951C123.173 276.194 119.87 271.257 118.095 265.707C116.32 260.158 116.143 254.22 117.586 248.574C119.029 242.929 122.033 237.805 126.252 233.79C130.472 229.774 135.737 227.031 141.444 225.874C142.232 225.711 143.021 225.584 143.825 225.486C145.082 225.33 146.347 225.252 147.614 225.253V287.289Cnan nan nan nan 147.614 287.289Z" fill="#2F2E41"/>
<path d="M132.067 249.927H163.162C164.301 249.927 165.224 249.003 165.224 247.863V247.761C165.224 246.621 164.301 245.697 163.162 245.697H132.067C130.927 245.697 130.004 246.621 130.004 247.761V247.863C130.004 249.003 130.927 249.927 132.067 249.927Z" fill="#6C63FF"/>
<path d="M132.067 258.386H163.162C164.301 258.386 165.224 257.462 165.224 256.322V256.221C165.224 255.081 164.301 254.156 163.162 254.156H132.067C130.927 254.156 130.004 255.081 130.004 256.221V256.322C130.004 257.462 130.927 258.386 132.067 258.386Z" fill="#6C63FF"/>
<path d="M132.067 266.846H163.162C164.301 266.846 165.224 265.922 165.224 264.782V264.68C165.224 263.54 164.301 262.616 163.162 262.616H132.067C130.927 262.616 130.004 263.54 130.004 264.68V264.782C130.004 265.922 130.927 266.846 132.067 266.846Z" fill="#6C63FF"/>
<path d="M502.249 397.012L493.194 397.011L488.886 362.056L502.25 362.057L502.249 397.012Z" fill="#9E616A"/>
<path d="M459.409 397.012L450.354 397.011L446.046 362.056L459.411 362.057L459.409 397.012Z" fill="#9E616A"/>
<path d="M459.728 406.466L431.882 406.464V406.112C431.882 403.235 433.024 400.477 435.057 398.442C437.089 396.408 439.846 395.266 442.72 395.265H442.721L447.808 391.404L457.298 395.266L459.728 395.266L459.728 406.466Z" fill="#2F2E41"/>
<path d="M503.729 406.466L475.884 406.464V406.112C475.884 403.235 477.026 400.477 479.058 398.442C481.091 396.408 483.847 395.266 486.722 395.265H486.723L491.809 391.404L501.299 395.266L503.73 395.266L503.729 406.466Z" fill="#2F2E41"/>
<path d="M450.527 190.138L436.765 274.001L440.51 286.498L435.595 295.349L442.813 373.079L439.883 379.534L448.068 384.586H464.724L465.608 314.217L469.723 303.885V298.191L478.098 255.281L479.64 315.373L482.076 325.721L480.03 333.089L482.704 338.251L489.807 386.12H508.484L507.039 374.983C508.666 374.159 509.973 372.817 510.755 371.168C511.536 369.519 511.748 367.657 511.357 365.875L510.286 360.994L512.723 346.561L517.162 266.042L515.91 201.073L494.062 184.353L450.527 190.138Z" fill="#2F2E41"/>
<path d="M482.076 82.4469C491.66 82.4469 499.429 74.672 499.429 65.0811C499.429 55.4903 491.66 47.7153 482.076 47.7153C472.493 47.7153 464.724 55.4903 464.724 65.0811C464.724 74.672 472.493 82.4469 482.076 82.4469Z" fill="#9E616A"/>
<path d="M444.164 223.417C444.919 222.636 445.494 221.699 445.848 220.672C446.202 219.645 446.327 218.552 446.213 217.472C446.1 216.391 445.751 215.348 445.192 214.417C444.632 213.486 443.875 212.688 442.974 212.082L449.722 186.544L436.722 190.921L432.307 214.5C431.389 216.082 431.082 217.946 431.446 219.739C431.809 221.533 432.817 223.13 434.278 224.229C435.739 225.328 437.553 225.853 439.375 225.703C441.197 225.553 442.901 224.74 444.164 223.417H444.164Z" fill="#9E616A"/>
<path d="M451.265 100.809L448.474 100.229L446.095 101.548C446.095 101.548 439.447 110.418 439.447 118.549C439.447 126.68 431.322 205.035 431.322 205.035L446.095 211.687L457.912 150.334L451.265 100.809Z" fill="#CFCFDE"/>
<path d="M497.272 52.3488C497.272 52.3488 501.811 43.666 491.826 42.8766C491.826 42.8766 483.314 35.1491 474.638 41.4639C474.638 41.4639 469.905 41.4639 467.318 46.8234C467.318 46.8234 463.596 45.4107 462.778 49.1914C462.778 49.1914 460.054 57.085 462.778 64.1892C465.501 71.2934 466.406 72.0827 466.406 72.0827C466.406 72.0827 461.93 57.1884 472.824 56.399C483.717 55.6097 495.907 48.7968 496.815 57.4797C497.723 66.1625 499.089 68.3019 499.089 68.3019C499.089 68.3019 507.711 55.9009 497.272 52.3488Z" fill="#2F2E41"/>
<path d="M560.659 295.349C559.349 295.351 558.085 294.868 557.109 293.994L504.596 247.212C503.538 246.267 502.897 244.941 502.815 243.524C502.733 242.107 503.215 240.715 504.157 239.654L537.798 201.833C538.742 200.774 540.067 200.132 541.483 200.05C542.899 199.968 544.29 200.451 545.35 201.393L597.864 248.176C598.923 249.12 599.565 250.446 599.647 251.864C599.729 253.281 599.246 254.673 598.303 255.733L564.662 293.554C564.196 294.081 563.63 294.51 562.998 294.817C562.365 295.123 561.678 295.301 560.976 295.34C560.87 295.346 560.764 295.349 560.659 295.349Z" fill="#ECEBFF"/>
<path d="M560.658 295.693C559.265 295.695 557.919 295.182 556.881 294.251L504.367 247.469C503.241 246.463 502.559 245.052 502.472 243.544C502.384 242.036 502.898 240.554 503.9 239.425L537.541 201.604C538.546 200.477 539.956 199.795 541.463 199.707C542.97 199.619 544.45 200.133 545.579 201.136L598.092 247.919C599.22 248.924 599.903 250.335 599.99 251.844C600.078 253.352 599.563 254.834 598.559 255.962L564.918 293.784C564.423 294.344 563.821 294.8 563.148 295.127C562.474 295.453 561.743 295.642 560.996 295.684C560.883 295.69 560.771 295.693 560.658 295.693ZM541.795 201.073C541.186 201.071 540.583 201.2 540.027 201.449C539.47 201.698 538.973 202.063 538.568 202.519L504.927 240.34C504.167 241.197 503.777 242.32 503.844 243.464C503.91 244.608 504.427 245.678 505.282 246.441L557.795 293.223C558.219 293.601 558.712 293.891 559.248 294.077C559.784 294.264 560.351 294.343 560.917 294.31C561.483 294.277 562.037 294.132 562.547 293.885C563.058 293.638 563.514 293.292 563.891 292.868L597.532 255.047C598.294 254.191 598.684 253.068 598.618 251.924C598.551 250.78 598.033 249.709 597.178 248.947L544.664 202.164C543.875 201.46 542.853 201.071 541.795 201.073H541.795Z" fill="#2F2E41"/>
<path d="M579.702 259.53C579.134 259.531 578.587 259.323 578.164 258.945L536.943 222.223C536.714 222.021 536.528 221.776 536.395 221.502C536.262 221.227 536.184 220.93 536.165 220.625C536.147 220.321 536.189 220.016 536.289 219.728C536.389 219.44 536.545 219.175 536.747 218.947C536.95 218.719 537.195 218.534 537.469 218.401C537.744 218.269 538.041 218.192 538.346 218.175C538.65 218.157 538.954 218.2 539.242 218.301C539.529 218.402 539.794 218.559 540.021 218.762L581.242 255.485C581.593 255.797 581.84 256.208 581.952 256.665C582.063 257.121 582.033 257.6 581.866 258.039C581.699 258.478 581.403 258.856 581.016 259.122C580.629 259.388 580.171 259.531 579.702 259.53Z" fill="#6C63FF"/>
<path d="M571.839 268.37C571.272 268.371 570.724 268.162 570.301 267.784L529.08 231.062C528.853 230.86 528.668 230.615 528.536 230.341C528.403 230.067 528.326 229.77 528.309 229.466C528.291 229.163 528.333 228.858 528.433 228.571C528.533 228.284 528.688 228.019 528.891 227.792C529.093 227.565 529.338 227.38 529.611 227.247C529.885 227.115 530.182 227.037 530.485 227.02C530.789 227.002 531.092 227.045 531.38 227.144C531.667 227.244 531.931 227.4 532.158 227.602L573.38 264.325C573.73 264.637 573.978 265.048 574.089 265.505C574.201 265.961 574.171 266.44 574.004 266.879C573.837 267.318 573.54 267.696 573.153 267.962C572.767 268.228 572.308 268.37 571.839 268.37H571.839Z" fill="#6C63FF"/>
<path d="M563.977 277.211C563.409 277.211 562.861 277.003 562.438 276.625L521.217 239.903C520.989 239.701 520.804 239.455 520.671 239.182C520.539 238.908 520.461 238.61 520.443 238.306C520.426 238.002 520.468 237.698 520.568 237.41C520.667 237.123 520.823 236.858 521.025 236.63C521.228 236.403 521.473 236.218 521.746 236.085C522.02 235.953 522.318 235.876 522.621 235.858C522.925 235.841 523.229 235.883 523.516 235.983C523.804 236.084 524.068 236.24 524.295 236.442L565.516 273.165C565.867 273.477 566.115 273.888 566.226 274.345C566.338 274.801 566.308 275.28 566.141 275.719C565.974 276.158 565.677 276.536 565.291 276.802C564.904 277.069 564.446 277.211 563.976 277.211H563.977Z" fill="#6C63FF"/>
<path d="M516.837 224.924C516.308 223.975 515.993 222.922 515.915 221.838C515.837 220.754 515.997 219.666 516.384 218.651C516.772 217.636 517.377 216.718 518.157 215.962C518.937 215.207 519.873 214.631 520.9 214.277L520.945 187.862L532.382 195.438L530.586 219.36C531.067 221.126 530.884 223.006 530.072 224.645C529.26 226.284 527.875 227.569 526.181 228.254C524.486 228.94 522.599 228.98 520.876 228.366C519.154 227.753 517.717 226.528 516.836 224.924H516.837Z" fill="#9E616A"/>
<path d="M517.894 108.047L523.003 103.118L526.757 105.83C526.757 105.83 530.45 110.265 533.405 123.57C536.359 136.876 533.405 210.056 533.405 210.056L517.155 207.838L519.371 169.4L512.723 136.876L517.894 108.047Z" fill="#CFCFDE"/>
<path d="M525.439 104.32L508.224 96.0907L496.536 85.2414L475.223 85.0818L468.347 94.0266L450.197 100.197L453.222 162.833L451.159 167.649C451.159 167.649 452.596 168.948 453.253 169.675C453.909 170.401 452.346 176.484 452.346 176.484L451.464 183.102L453.909 184.85L450.73 188.609L449.941 194.533C449.941 194.533 505.435 180.729 515.92 203.596C516.474 204.804 515.11 192.997 515.11 192.997L513.746 184.352L515.099 176.594L517.162 174.53L513.702 171.068L515.92 154.641L525.439 104.32Z" fill="#2F2E41"/>
<path d="M135.036 243.178C135.463 242.093 135.648 240.927 135.576 239.762C135.504 238.597 135.178 237.463 134.62 236.438C134.063 235.413 133.288 234.523 132.35 233.831C131.411 233.138 130.333 232.66 129.19 232.43L125.366 204.327L114.278 214.027L119.609 239.227C119.35 241.174 119.813 243.148 120.912 244.777C122.01 246.405 123.667 247.573 125.569 248.06C127.47 248.547 129.484 248.319 131.229 247.42C132.974 246.52 134.329 245.011 135.036 243.178V243.178Z" fill="#FFB6B6"/>
<path d="M91.5949 118.683L88.5895 119.259L86.7729 121.548C86.7729 121.548 83.834 133.084 87.1819 141.146C90.5297 149.208 114.735 230.248 114.735 230.248L132.121 230.752L118.578 165.047L91.5949 118.683Z" fill="#2F2E41"/>
<path d="M160.135 239.056C159.335 238.208 158.729 237.195 158.362 236.087C157.995 234.98 157.875 233.805 158.01 232.646C158.145 231.488 158.533 230.372 159.146 229.38C159.758 228.387 160.581 227.541 161.556 226.901L154.634 199.397L168.536 204.26L172.978 229.632C173.944 231.342 174.25 233.348 173.837 235.268C173.424 237.189 172.322 238.891 170.739 240.053C169.156 241.214 167.202 241.754 165.248 241.571C163.294 241.387 161.475 240.492 160.135 239.056Z" fill="#FFB6B6"/>
<path d="M154.061 107.328L157.065 106.741L159.603 108.187C159.603 108.187 166.628 117.794 166.525 126.524C166.422 135.254 174.155 219.482 174.155 219.482L158.211 226.438L146.298 160.417L154.061 107.328Z" fill="#2F2E41"/>
</g>
<defs>
<clipPath id="clip0_172_1647">
<rect width="600" height="406.08" fill="white" transform="translate(0 0.385498)"/>
</clipPath>
</defs>
</svg>
