<svg width="600" height="444" viewBox="0 0 600 444" fill="none" xmlns="http://www.w3.org/2000/svg">
<g clip-path="url(#clip0_172_1540)">
<path d="M18.2563 391.097C2.97331 377.939 -4.9067 358.227 3.30385 341.553C15.2564 358.332 34.9334 371.546 57.7469 378.114C66.6325 380.673 76.8507 382.783 81.6837 389.236C84.691 393.252 84.9101 398.28 83.5552 402.827C82.2001 407.374 79.4102 411.556 76.648 415.681L76.6323 416.847C55.0056 411.816 33.5393 404.255 18.2563 391.097Z" fill="#2F2E41"/>
<path d="M3.76342 341.642C6.34019 356.162 14.7722 370.123 27.6641 380.647C30.4625 383.028 33.638 385.008 37.0832 386.521C40.6288 387.957 44.494 388.61 48.3666 388.428C52.0145 388.322 55.7305 387.877 59.3474 388.478C61.1213 388.763 62.814 389.372 64.3244 390.27C65.8349 391.167 67.1319 392.333 68.138 393.7C70.5359 396.925 71.3322 400.643 71.9518 404.3C72.6399 408.36 73.2735 412.587 76.1967 416.079C76.5509 416.503 75.7036 416.915 75.35 416.492C70.2642 410.415 71.9658 402.648 68.5342 396.095C66.933 393.037 64.1622 390.344 60.02 389.42C56.3978 388.613 52.5654 389.068 48.873 389.201C45.0887 389.421 41.2968 388.897 37.7528 387.663C34.2235 386.296 30.9586 384.417 28.0843 382.099C21.7909 377.18 16.4134 371.359 12.1619 364.862C7.44374 357.745 4.25603 349.87 2.77029 341.658C2.68127 341.157 3.67499 341.143 3.76342 341.642Z" fill="#2F2E41"/>
<path d="M23.2466 377.402C20.622 378.89 17.5555 379.593 14.4738 379.413C11.392 379.233 8.44824 378.179 6.05198 376.397C5.59815 376.04 6.27594 375.463 6.73038 375.821C8.95829 377.483 11.6997 378.464 14.5692 378.627C17.4387 378.79 20.2918 378.126 22.7274 376.729C23.2417 376.428 23.758 377.102 23.2466 377.402Z" fill="#2F2E41"/>
<path d="M46.5258 388.675C47.0363 386.139 46.9537 383.532 46.2834 381.027C45.6131 378.522 44.3703 376.175 42.6368 374.141C42.2845 373.716 43.1316 373.304 43.4834 373.728C45.2825 375.848 46.5698 378.293 47.2607 380.901C47.9516 383.509 48.0303 386.221 47.4916 388.859C47.3855 389.361 46.4203 389.174 46.5258 388.675Z" fill="#2F2E41"/>
<path d="M8.70229 357.533C9.78583 357.18 10.7527 356.579 11.5112 355.788C12.2697 354.997 12.7946 354.042 13.0362 353.013C13.1342 352.511 14.0994 352.698 14.0021 353.197C13.7296 354.332 13.1488 355.386 12.3133 356.262C11.4777 357.137 10.4144 357.806 9.22153 358.206C9.10834 358.258 8.97927 358.273 8.85527 358.25C8.73128 358.226 8.61967 358.165 8.53859 358.076C8.50539 358.032 8.48315 357.981 8.47344 357.928C8.46373 357.876 8.4668 357.821 8.4824 357.77C8.498 357.718 8.52572 357.67 8.56371 357.629C8.6017 357.588 8.649 357.556 8.70229 357.533Z" fill="#2F2E41"/>
<path d="M75.7756 322.594C75.7257 322.91 75.6757 323.225 75.6319 323.545C74.9882 327.778 74.7786 332.058 75.0058 336.327C75.0168 336.657 75.0342 336.992 75.0571 337.321C75.7765 347.708 78.8719 357.842 84.1432 367.066C86.2876 370.832 88.7641 374.432 91.5479 377.83C95.4265 382.572 100.107 387.468 101.739 392.795C101.917 393.347 102.052 393.909 102.143 394.479L78.4244 416.772C78.3385 416.801 78.2587 416.835 78.1725 416.864L77.2767 417.789C77.1163 417.62 76.9545 417.442 76.7941 417.273C76.7006 417.175 76.6123 417.072 76.5188 416.975C76.4581 416.908 76.3976 416.841 76.338 416.783C76.3177 416.761 76.2977 416.739 76.2838 416.721C76.2242 416.663 76.1765 416.605 76.1233 416.552C75.2156 415.558 74.315 414.558 73.4215 413.551C73.4151 413.547 73.4152 413.547 73.414 413.538C66.6315 405.851 60.597 397.647 56.3216 388.976C56.1931 388.715 56.0579 388.45 55.9402 388.179C54.0514 384.292 52.5564 380.255 51.4738 376.118C50.8967 373.872 50.4621 371.597 50.1722 369.305C49.4405 363.388 49.8847 357.4 51.4835 351.628C54.6771 340.063 62.4901 329.439 74.8271 323.073C75.1428 322.911 75.4535 322.753 75.7756 322.594Z" fill="#2F2E41"/>
<path d="M76.0785 322.884C67.1327 335.71 63.2864 350.891 65.6051 365.461C66.0248 368.668 67.0641 371.782 68.6746 374.657C70.4673 377.545 73.0811 379.936 76.2389 381.577C79.2321 383.237 82.5358 384.66 84.9689 386.869C86.1656 387.945 87.0669 389.265 87.599 390.721C88.1312 392.176 88.2791 393.726 88.0307 395.244C87.5012 398.966 85.3198 402.316 83.0434 405.532C80.5159 409.103 77.8194 412.781 77.5066 416.968C77.4687 417.475 76.4802 417.399 76.518 416.892C77.0622 409.607 84.306 404.22 86.5322 397.346C87.5709 394.138 87.3994 390.663 84.7918 387.944C82.5116 385.566 79.1064 384.097 76.0574 382.436C72.9405 380.862 70.2923 378.615 68.3439 375.889C66.5569 373.097 65.368 370.02 64.8407 366.821C63.5455 359.734 63.6633 352.491 65.1885 345.442C66.9233 337.253 70.3456 329.441 75.2728 322.422C75.5819 321.979 76.3855 322.444 76.0785 322.884V322.884Z" fill="#2F2E41"/>
<path d="M64.5369 360.757C58.0408 360.702 52.4979 356.83 51.5692 351.729C51.4777 351.227 52.4562 351.09 52.5478 351.593C53.4178 356.372 58.5596 359.92 64.6321 359.971C65.2712 359.976 65.1723 360.762 64.5369 360.757Z" fill="#2F2E41"/>
<path d="M74.5816 380.894C76.8285 379.256 78.6882 377.218 80.0477 374.904C81.4072 372.589 82.2382 370.046 82.4902 367.428C82.5304 366.921 83.519 366.997 83.4789 367.504C83.2099 370.228 82.3386 372.873 80.9177 375.279C79.4969 377.686 77.5562 379.803 75.2134 381.503C74.7485 381.853 74.1192 381.242 74.5816 380.894Z" fill="#2F2E41"/>
<path d="M67.9798 337.935C69.1803 338.158 70.4197 338.136 71.6098 337.87C72.7999 337.605 73.9114 337.103 74.865 336.399C75.3241 336.045 75.9529 336.656 75.4968 337.008C74.4395 337.781 73.2111 338.335 71.8967 338.631C70.5823 338.926 69.2133 338.957 67.8846 338.721C67.6209 338.673 67.4129 338.522 67.4379 338.29C67.4616 338.179 67.531 338.08 67.6317 338.014C67.7325 337.948 67.857 337.92 67.9798 337.935V337.935Z" fill="#2F2E41"/>
<path d="M111.735 153.695C100.505 153.695 91.4007 145.369 91.4007 135.098C91.4007 124.827 100.505 116.501 111.735 116.501C122.965 116.501 132.069 124.827 132.069 135.098C132.069 145.369 122.965 153.695 111.735 153.695Z" fill="#9E616A"/>
<path d="M22.6311 221.016C25.489 214.948 29.4135 209.349 34.2489 204.44C30.1543 210.409 27.8142 217.243 27.4553 224.281C28.9377 225.128 30.4888 225.87 32.095 226.501C36.922 228.352 42.0685 229.41 47.2976 229.624C50.116 221.036 54.9806 213.127 61.5413 206.464C56.8132 213.36 54.4355 221.387 54.7109 229.523C60.5433 229.062 66.2898 227.935 71.8166 226.17C80.115 223.559 88.1699 219.66 93.9087 213.595C100.12 207.031 103.181 198.369 104.169 189.734C105.158 181.105 104.228 172.396 103.291 163.761C102.849 159.646 106.596 154.91 106.153 150.795H105.858C103.889 148.326 101.883 145.796 100.916 142.868C99.9574 139.947 100.208 136.499 102.414 134.199C103.649 132.997 105.209 132.113 106.935 131.635C107.098 131.447 107.275 131.264 107.459 131.082C110.799 127.838 114.73 125.149 119.077 123.135C115.942 125.301 113.847 127.75 112.873 130.279C115.588 129.733 118.302 129.189 121.017 128.647C121.924 127.767 122.879 126.929 123.879 126.137C125.036 125.28 126.262 124.502 127.545 123.81C126.145 124.936 125.06 126.351 124.38 127.938C127.869 127.136 131.359 125.928 133.173 123.182C136.183 118.642 132.605 112.517 127.611 109.805C123.979 107.928 119.793 107.143 115.646 107.561C111.499 107.978 107.6 109.577 104.501 112.132C97.2798 107.268 86.9971 107.349 78.9643 110.985C73.6612 113.493 69.0929 117.128 65.6426 121.584C67.6441 121.349 69.6588 121.22 71.6765 121.199C68.8362 121.579 66.1316 122.558 63.7764 124.059C62.7346 125.539 61.7792 127.068 60.9144 128.64C60.3465 129.672 59.8105 130.718 59.3064 131.777C56.2157 138.213 54.202 145.067 52.1144 151.84C49.6803 159.733 47.069 167.68 42.5104 174.744C35.521 185.484 24.4952 193.529 11.4929 197.377C10.4086 206.302 15.1736 215.032 22.6311 221.016Z" fill="#2F2E41"/>
<path d="M69.8189 422.513L77.1997 425.656L93.9663 401.113L83.0721 396.475L69.8189 422.513Z" fill="#9E616A"/>
<path d="M59.9695 432.551L65.2628 434.804L68.5341 430.636L68.6275 436.237L82.6665 442.214C83.3395 442.501 84.095 442.583 84.8227 442.449C85.5504 442.315 86.2122 441.972 86.7116 441.47C87.2109 440.967 87.5216 440.332 87.5983 439.657C87.675 438.982 87.5137 438.302 87.138 437.716L79.5313 425.862L81.8832 421.241L69.7634 416.864L59.9695 432.551Z" fill="#2F2E41"/>
<path d="M143.918 429.61H152.059L155.934 400.889H143.918V429.61Z" fill="#9E616A"/>
<path d="M139.62 442.511H145.459L146.501 437.47L149.171 442.511H164.656C165.399 442.512 166.122 442.295 166.719 441.892C167.317 441.49 167.759 440.923 167.98 440.275C168.201 439.627 168.189 438.931 167.947 438.29C167.705 437.648 167.245 437.094 166.634 436.708L154.268 428.897V423.8L141.26 424.51L139.62 442.511Z" fill="#2F2E41"/>
<path d="M106.311 211.984L113.057 230.808L115.287 246.067L151.12 235.949L147.805 201.9L140.352 195.156L106.311 211.984Z" fill="#9E616A"/>
<path d="M449.358 35.9546C447.359 33.2073 448.542 29.2745 452 27.1705C455.458 25.0665 459.881 25.5881 461.88 28.3355C463.878 31.0829 462.695 35.0157 459.237 37.1196C455.78 39.2236 451.356 38.702 449.358 35.9546Z" fill="#FD6584"/>
<path d="M376.677 264.864C374.679 262.117 375.862 258.184 379.32 256.08C382.777 253.976 387.201 254.498 389.199 257.245C391.198 259.993 390.015 263.925 386.557 266.029C383.099 268.133 378.676 267.612 376.677 264.864Z" fill="#2F2E41"/>
<path d="M580.265 68.5497C578.266 65.8024 579.449 61.8696 582.907 59.7656C586.365 57.6617 590.788 58.1832 592.786 60.9306C594.785 63.678 593.602 67.6108 590.144 69.7147C586.686 71.8187 582.263 71.2971 580.265 68.5497Z" fill="#2F2E41"/>
<path d="M323.666 231.412L569.478 231.412C577.57 231.403 585.328 228.46 591.05 223.227C596.772 217.994 599.991 210.898 600 203.497V106.862C599.991 99.4612 596.772 92.3659 591.05 87.1328C585.328 81.8996 577.57 78.9559 569.478 78.9476C491.041 59.0734 408.776 60.9353 323.666 78.9476C315.574 78.9559 307.816 81.8996 302.094 87.1328C296.372 92.3659 293.153 99.4612 293.144 106.862L293.144 203.497C293.153 210.898 296.372 217.994 302.094 223.227C307.816 228.46 315.574 231.403 323.666 231.412Z" fill="#2F2E41"/>
<path d="M573.814 206.788C573.911 206.788 574.007 206.771 574.096 206.737C574.186 206.703 574.267 206.653 574.336 206.591C574.404 206.528 574.458 206.454 574.496 206.372C574.533 206.29 574.552 206.202 574.552 206.114V104.246C574.552 104.067 574.474 103.895 574.336 103.769C574.197 103.642 574.01 103.571 573.814 103.571C573.618 103.571 573.431 103.642 573.292 103.769C573.154 103.895 573.076 104.067 573.076 104.246V206.114C573.076 206.202 573.095 206.29 573.132 206.372C573.17 206.454 573.224 206.528 573.292 206.591C573.361 206.653 573.442 206.703 573.532 206.737C573.621 206.771 573.717 206.788 573.814 206.788Z" fill="#2F2E41"/>
<path d="M317.855 206.788C317.758 206.788 317.662 206.771 317.572 206.737C317.483 206.703 317.402 206.653 317.333 206.591C317.265 206.528 317.21 206.454 317.173 206.372C317.136 206.29 317.117 206.202 317.117 206.114V104.246C317.117 104.067 317.195 103.895 317.333 103.769C317.471 103.642 317.659 103.571 317.855 103.571C318.05 103.571 318.238 103.642 318.376 103.769C318.515 103.895 318.592 104.067 318.592 104.246L318.592 206.114C318.592 206.202 318.573 206.29 318.536 206.372C318.499 206.454 318.445 206.528 318.376 206.591C318.308 206.653 318.226 206.703 318.137 206.737C318.047 206.771 317.952 206.788 317.855 206.788Z" fill="#2F2E41"/>
<path d="M366.539 125.834H366.541C366.737 125.833 366.924 125.762 367.062 125.635C367.2 125.508 367.277 125.336 367.276 125.157L366.907 21.9399C366.907 21.7614 366.829 21.5904 366.69 21.4644C366.552 21.3384 366.365 21.2676 366.17 21.2676H366.167C365.972 21.2682 365.784 21.3399 365.646 21.4668C365.509 21.5938 365.432 21.7656 365.432 21.9445L365.801 125.161C365.802 125.34 365.88 125.511 366.018 125.637C366.156 125.763 366.343 125.834 366.539 125.834Z" fill="#2F2E41"/>
<path d="M460.956 273.576H460.958C461.154 273.575 461.341 273.503 461.479 273.377C461.617 273.25 461.694 273.078 461.693 272.899L461.325 172.38C461.324 172.202 461.246 172.031 461.108 171.905C460.969 171.779 460.782 171.708 460.587 171.708H460.585C460.389 171.709 460.202 171.78 460.064 171.907C459.926 172.034 459.849 172.206 459.849 172.385L460.218 272.903C460.219 273.082 460.297 273.253 460.435 273.379C460.573 273.505 460.761 273.576 460.956 273.576Z" fill="#2F2E41"/>
<path d="M531.031 144.723H531.034C531.229 144.722 531.417 144.651 531.555 144.524C531.692 144.397 531.769 144.225 531.769 144.046L531.4 42.1784C531.399 41.9999 531.321 41.8289 531.183 41.7029C531.045 41.5769 530.858 41.5061 530.662 41.5061H530.66C530.464 41.5067 530.277 41.5784 530.139 41.7053C530.001 41.8323 529.924 42.0041 529.925 42.183L530.294 144.051C530.294 144.229 530.372 144.4 530.511 144.526C530.649 144.652 530.836 144.723 531.031 144.723Z" fill="#2F2E41"/>
<path d="M561.489 171.842C560.068 164.828 551.349 161.594 544.283 162.143C534.186 162.928 525.76 169.008 516.362 171.874C511.821 173.259 506.935 174.019 502.177 173.222C498.425 172.516 494.947 170.91 492.098 168.569C486.634 164.298 482.94 158.473 477.472 154.206C474.547 151.798 470.849 150.322 466.93 149.997C462.105 149.704 457.381 151.199 453.152 153.203C444.75 157.185 437.873 163.521 428.925 166.594C424.816 168.043 420.359 168.464 416.014 167.814C411.676 167.023 407.552 165.458 403.877 163.207C396.173 158.756 389.823 152.579 381.723 148.674C377.739 146.755 373.314 145.286 368.763 145.257C364.365 145.262 360.137 146.811 356.951 149.582C350.816 154.683 345.979 162.735 336.608 162.876C334.654 162.909 332.731 162.427 331.069 161.486C329.86 160.802 330.97 159.051 332.185 159.738C336.005 161.898 340.605 160.535 344.086 158.44C347.794 156.209 350.426 152.799 353.452 149.893C356.458 147.007 359.965 144.576 364.289 143.675C368.609 142.895 373.082 143.236 377.201 144.662C386.052 147.482 392.753 153.288 400.099 158.34C407.339 163.318 415.792 167.625 425.133 165.552C434.434 163.487 441.49 157.046 449.535 152.722C457.311 148.542 466.843 145.873 475.217 150.271C481.544 153.594 485.544 159.463 490.404 164.244C492.802 166.603 495.476 168.796 498.715 170.136C503.216 171.998 508.303 171.781 512.991 170.677C522.77 168.375 531.018 162.352 540.977 160.551C548.368 159.214 557.117 160.899 561.628 166.875C562.626 168.207 563.306 169.716 563.623 171.304C563.88 172.578 561.748 173.123 561.489 171.842L561.489 171.842Z" fill="#2F2E41"/>
<path d="M530.662 176.262C525.366 176.262 521.073 172.335 521.073 167.492C521.073 162.648 525.366 158.722 530.662 158.722C535.958 158.722 540.252 162.648 540.252 167.492C540.252 172.335 535.958 176.262 530.662 176.262Z" fill="#6C63FF"/>
<path d="M461.693 157.71C456.397 157.71 452.104 153.783 452.104 148.939C452.104 144.096 456.397 140.169 461.693 140.169C466.989 140.169 471.283 144.096 471.283 148.939C471.283 153.783 466.989 157.71 461.693 157.71Z" fill="#6C63FF"/>
<path d="M367.276 151.638C361.98 151.638 357.687 147.712 357.687 142.868C357.687 138.024 361.98 134.098 367.276 134.098C372.572 134.098 376.865 138.024 376.865 142.868C376.865 147.712 372.572 151.638 367.276 151.638Z" fill="#6C63FF"/>
<path d="M449.533 299.267H470.566C471.723 299.267 472.841 298.884 473.714 298.19C474.587 297.496 475.157 296.537 475.32 295.49C476.619 286.749 476.619 277.888 475.32 269.148C475.16 268.115 474.603 267.168 473.75 266.476C472.896 265.784 471.801 265.392 470.661 265.37C463.812 262.006 456.674 262.006 449.442 265.37C448.752 265.381 448.073 265.529 447.452 265.804C446.831 266.08 446.283 266.475 445.846 266.964C445.389 267.474 445.061 268.072 444.888 268.712C444.715 269.353 444.699 270.021 444.843 270.668C446.533 278.358 446.533 286.279 444.843 293.969C444.699 294.616 444.715 295.284 444.888 295.925C445.061 296.565 445.389 297.162 445.846 297.673C446.293 298.172 446.855 298.575 447.493 298.85C448.13 299.126 448.827 299.269 449.533 299.267Z" fill="#6C63FF"/>
<path d="M352.902 36.3513L373.936 36.3513C375.093 36.3505 376.21 35.968 377.084 35.2741C377.957 34.5801 378.527 33.6213 378.69 32.5737C379.989 23.8331 379.989 14.9721 378.69 6.23152C378.529 5.19652 377.971 4.24775 377.114 3.55553C376.258 2.8633 375.159 2.47296 374.016 2.45457C367.399 -0.258407 360.272 -0.258075 352.83 2.45425C352.137 2.46266 351.454 2.60971 350.83 2.88508C350.206 3.16044 349.655 3.55745 349.216 4.04823C348.759 4.55879 348.431 5.15613 348.258 5.79686C348.084 6.43759 348.069 7.10562 348.213 7.7524C349.903 15.4423 349.903 23.3629 348.213 31.0528C348.069 31.6996 348.084 32.3676 348.258 33.0084C348.431 33.6491 348.759 34.2464 349.216 34.757C349.662 35.2565 350.225 35.6587 350.863 35.9345C351.5 36.2103 352.197 36.3526 352.902 36.3513Z" fill="#6C63FF"/>
<path d="M520.55 53.8707L541.583 53.8707C542.288 53.872 542.985 53.7296 543.623 53.4538C544.261 53.1781 544.823 52.7758 545.269 52.2763C545.727 51.7658 546.054 51.1684 546.228 50.5277C546.401 49.887 546.416 49.219 546.272 48.5722C544.583 40.8822 544.583 32.9617 546.272 25.2717C546.416 24.6249 546.401 23.9569 546.228 23.3161C546.054 22.6753 545.727 22.0779 545.269 21.5673C544.832 21.0783 544.284 20.6824 543.662 20.4072C543.041 20.1321 542.361 19.9842 541.671 19.9739C535.276 17.1098 528.146 17.1098 520.476 19.9739C519.332 19.9907 518.232 20.3803 517.374 21.0727C516.516 21.7651 515.957 22.7148 515.796 23.7509C514.497 32.4913 514.497 41.3523 515.796 50.0927C515.958 51.1404 516.529 52.0993 517.402 52.7933C518.275 53.4874 519.393 53.8699 520.55 53.8707Z" fill="#CFCFDE"/>
<path d="M355.105 12.4975L372.808 12.4975Cnan nan nan nan 372.808 12.4975L355.105 10.4736V12.4975Cnan nan nan nan 355.105 12.4975Z" fill="#2F2E41"/>
<path d="M355.105 20.593L372.808 20.593Cnan nan nan nan 372.808 20.593L355.105 18.5691V20.593Cnan nan nan nan 355.105 20.593Z" fill="#2F2E41"/>
<path d="M355.105 28.6884L372.808 28.6884Cnan nan nan nan 372.808 28.6884L355.105 26.6646V28.6884Cnan nan nan nan 355.105 28.6884Z" fill="#2F2E41"/>
<path d="M520.228 28.6884L537.931 28.6884Cnan nan nan nan 537.931 28.6884L520.228 26.6646V28.6884Cnan nan nan nan 520.228 28.6884Z" fill="#2F2E41"/>
<path d="M520.228 36.7839L537.931 36.7839Cnan nan nan nan 537.931 36.7839L520.228 34.76V36.7839Cnan nan nan nan 520.228 36.7839Z" fill="#2F2E41"/>
<path d="M520.228 44.8792L537.931 44.8792Cnan nan nan nan 537.931 44.8792L520.228 42.8553V44.8792Cnan nan nan nan 520.228 44.8792Z" fill="#2F2E41"/>
<path d="M450.89 273.576H468.594Cnan nan nan nan 468.594 273.576L450.89 271.552V273.576Cnan nan nan nan 450.89 273.576Z" fill="#2F2E41"/>
<path d="M450.89 281.671H468.594Cnan nan nan nan 468.594 281.671L450.89 279.647V281.671Cnan nan nan nan 450.89 281.671Z" fill="#2F2E41"/>
<path d="M450.89 289.767H468.594Cnan nan nan nan 468.594 289.767L450.89 287.743V289.767Cnan nan nan nan 450.89 289.767Z" fill="#2F2E41"/>
<path d="M102.818 243.022L152.078 232.832L170.328 271.552L175.491 350.482L162.037 414.571H135.078L147.461 350.482L144.511 301.91L130.687 360.241L94.0587 408.636L77.1586 395.286L106.154 349.808C106.154 349.808 94.0145 268.163 106.891 254.012L102.818 243.022Z" fill="#2F2E41"/>
<path d="M132.212 166.132L128.266 164.776L123.289 157.417L105.562 158.742L101.254 166.633L90.8738 173.882L95.4131 195.746L102.465 222.304L149.674 216.907L149.624 196.915C149.624 196.915 158.155 181.12 144.375 175.201L132.212 166.132Z" fill="#2F2E41"/>
<path d="M204.98 235.481C204.063 235.817 203.077 235.966 202.091 235.916C201.105 235.866 200.143 235.619 199.273 235.193C198.402 234.766 197.645 234.17 197.053 233.447C196.462 232.724 196.051 231.891 195.85 231.006L143.213 201.877L152.834 191.724L201.549 223.55C203.196 223.34 204.87 223.689 206.254 224.531C207.638 225.374 208.636 226.651 209.059 228.122C209.481 229.593 209.3 231.154 208.548 232.51C207.796 233.866 206.527 234.923 204.98 235.481V235.481Z" fill="#9E616A"/>
<path d="M125.673 188.063C125.673 188.063 123.158 190.378 129.47 194.184C134.523 197.232 157.062 212.29 165.052 214.672C164.952 215.745 165.245 216.818 165.886 217.722C166.526 218.626 167.477 219.31 168.589 219.665L175.823 205.126C174.257 201.802 171.753 202.572 170.435 203.325L161.698 197.316L140.243 177.722L127.459 186.361L125.673 188.063Z" fill="#2F2E41"/>
<path d="M206.343 237.838H227.376C228.082 237.839 228.779 237.697 229.416 237.421C230.054 237.145 230.616 236.743 231.063 236.243C231.52 235.733 231.847 235.135 232.021 234.495C232.194 233.854 232.21 233.186 232.065 232.539C230.376 224.849 230.376 216.929 232.065 209.239C232.21 208.592 232.194 207.924 232.021 207.283C231.847 206.642 231.52 206.045 231.063 205.534C230.626 205.045 230.077 204.649 229.456 204.374C228.834 204.099 228.154 203.951 227.464 203.941C221.069 201.077 213.939 201.077 206.269 203.941C205.125 203.958 204.025 204.347 203.167 205.04C202.309 205.732 201.75 206.682 201.589 207.718C200.291 216.458 200.291 225.319 201.589 234.06C201.752 235.107 202.322 236.066 203.195 236.76C204.068 237.454 205.186 237.837 206.343 237.838Z" fill="#6C63FF"/>
<path d="M206.021 212.655H223.724Cnan nan nan nan 223.724 212.655L206.021 210.632V212.655Cnan nan nan nan 206.021 212.655Z" fill="#2F2E41"/>
<path d="M206.021 220.751H223.724Cnan nan nan nan 223.724 220.751L206.021 218.727V220.751Cnan nan nan nan 206.021 220.751Z" fill="#2F2E41"/>
<path d="M206.021 228.846H223.724Cnan nan nan nan 223.724 228.846L206.021 226.823V228.846Cnan nan nan nan 206.021 228.846Z" fill="#2F2E41"/>
<path d="M104.549 295.855H125.583C126.288 295.857 126.985 295.714 127.623 295.438C128.26 295.163 128.823 294.76 129.269 294.261C129.727 293.75 130.054 293.153 130.227 292.512C130.401 291.872 130.416 291.204 130.272 290.557C128.582 282.867 128.582 274.946 130.272 267.256C130.416 266.609 130.401 265.941 130.227 265.301C130.054 264.66 129.727 264.062 129.269 263.552C128.832 263.063 128.284 262.667 127.662 262.392C127.04 262.117 126.361 261.969 125.67 261.958C119.276 259.094 112.146 259.094 104.476 261.958C103.332 261.975 102.232 262.365 101.374 263.057C100.516 263.75 99.9563 264.699 99.7959 265.735C98.4971 274.476 98.4971 283.337 99.7959 292.077C99.9581 293.125 100.528 294.084 101.401 294.778C102.275 295.472 103.393 295.854 104.549 295.855Z" fill="#CFCFDE"/>
<path d="M104.228 270.673H121.931Cnan nan nan nan 121.931 270.673L104.228 268.649V270.673Cnan nan nan nan 104.228 270.673Z" fill="#2F2E41"/>
<path d="M104.228 278.768H121.931Cnan nan nan nan 121.931 278.768L104.228 276.744V278.768Cnan nan nan nan 104.228 278.768Z" fill="#2F2E41"/>
<path d="M104.228 286.864H121.931Cnan nan nan nan 121.931 286.864L104.228 284.84V286.864Cnan nan nan nan 104.228 286.864Z" fill="#2F2E41"/>
<path d="M113.887 266.888C112.967 266.561 112.136 266.053 111.454 265.4C110.771 264.747 110.253 263.966 109.937 263.11C109.62 262.255 109.512 261.346 109.621 260.449C109.73 259.551 110.053 258.686 110.567 257.915L93.9146 203.747L108.525 202.351L120.3 256.035C121.659 256.911 122.62 258.212 123 259.692C123.381 261.172 123.155 262.729 122.364 264.066C121.574 265.404 120.274 266.43 118.712 266.95C117.15 267.47 115.433 267.448 113.887 266.888Z" fill="#9E616A"/>
<path d="M91.4515 174.012C91.4515 174.012 87.8854 174.13 89.6481 180.854C91.0593 186.237 96.242 220.006 100.294 226.739C99.4189 227.46 98.8309 228.427 98.6227 229.487C98.4144 230.547 98.5978 231.641 99.1439 232.595L115.291 226.504C116.632 223.099 115.593 220.008 114.068 219.734L112.181 209.886L109.401 176.847L94.0276 173.886L91.4515 174.012Z" fill="#2F2E41"/>
<path d="M104.63 112.638C102.186 115.937 100.607 119.707 100.016 123.654C99.4253 127.602 99.8384 131.621 101.223 135.399" fill="#FD6584"/>
<path d="M18.5055 442.396C18.5051 442.501 18.5276 442.606 18.5716 442.703C18.6156 442.801 18.6802 442.889 18.7618 442.964C18.8434 443.039 18.9403 443.098 19.047 443.138C19.1536 443.178 19.2679 443.199 19.3833 443.198L226.135 443.198C226.25 443.198 226.364 443.178 226.471 443.137C226.577 443.097 226.674 443.038 226.755 442.963C226.837 442.889 226.902 442.8 226.946 442.703C226.99 442.605 227.013 442.501 227.013 442.396C227.013 442.29 226.99 442.186 226.946 442.088C226.902 441.991 226.837 441.902 226.755 441.828C226.674 441.753 226.577 441.694 226.471 441.654C226.364 441.614 226.25 441.593 226.135 441.593L19.3833 441.593C19.2679 441.592 19.1536 441.613 19.047 441.653C18.9403 441.694 18.8434 441.753 18.7618 441.827C18.6802 441.902 18.6156 441.99 18.5716 442.088C18.5276 442.186 18.5051 442.29 18.5055 442.396Z" fill="#CFCFDE"/>
</g>
<defs>
<clipPath id="clip0_172_1540">
<rect width="600" height="442.778" fill="white" transform="matrix(-1 0 0 1 600 0.419922)"/>
</clipPath>
</defs>
</svg>
