<svg width="58" height="58" viewBox="0 0 58 58" fill="none" xmlns="http://www.w3.org/2000/svg">
<path d="M48.2079 9.09381H13.6324C12.917 9.09381 12.2017 9.33226 11.7248 10.0476L8.14801 14.8167C6.95575 16.4858 8.14801 18.6319 10.0556 18.6319H44.6311C45.3465 18.6319 46.0618 18.3934 46.5387 17.6781L50.1155 12.909C51.3078 11.2399 50.1155 9.09381 48.2079 9.09381Z" stroke="#FFA503" stroke-width="2.45265" stroke-miterlimit="10"/>
<path d="M10.0556 24.5932H44.6311C45.3465 24.5932 46.0618 24.8316 46.5387 25.547L50.1155 30.316C51.3078 31.9852 50.1155 34.1313 48.2079 34.1313H13.6324C12.917 34.1313 12.2017 33.8928 11.7248 33.1774L8.14801 28.4084C6.95575 26.7393 8.14801 24.5932 10.0556 24.5932Z" stroke="#FFA503" stroke-width="2.45265" stroke-miterlimit="10"/>
<path d="M48.2079 40.0924H13.6324C12.917 40.0924 12.2017 40.3309 11.7248 41.0462L8.14801 45.8153C6.95575 47.4844 8.14801 49.6305 10.0556 49.6305H44.6311C45.3465 49.6305 46.0618 49.392 46.5387 48.6767L50.1155 43.9077C51.3078 42.2385 50.1155 40.0924 48.2079 40.0924Z" stroke="#FFA503" stroke-width="2.45265" stroke-miterlimit="10"/>
</svg>
