<svg width="109" height="28" viewBox="0 0 109 28" fill="none" xmlns="http://www.w3.org/2000/svg">
<path fill-rule="evenodd" clip-rule="evenodd" d="M29.2628 9.24912C29.2629 5.53267 26.8746 2.19709 23.248 0.848909C19.6214 -0.499273 15.5001 0.416352 12.869 3.15479H0.946289V27.1854H26.1197V15.9547C28.118 14.2479 29.2609 11.8094 29.2628 9.24912ZM24.4175 9.24912C24.4214 11.0285 23.302 12.6348 21.5817 13.3183C19.8615 14.0018 17.8795 13.6278 16.5606 12.3709C15.2418 11.114 14.8461 9.22186 15.5582 7.57755C16.2703 5.93323 17.9499 4.86084 19.8131 4.86084C22.3523 4.86083 24.4122 6.82407 24.4175 9.24912ZM5.78974 22.5599H21.2759V18.1534C20.7927 18.2299 20.304 18.2695 19.8142 18.272C14.5982 18.267 10.3711 14.2302 10.3659 9.24912C10.37 8.75651 10.418 8.26514 10.5092 7.78027H5.78974V22.5599Z" fill="#9893A3" fill-opacity="0.6"/>
<path d="M41.2644 20.3854C40.3444 20.3854 39.4378 20.2388 38.5444 19.9454C37.6644 19.6388 36.9178 19.1988 36.3044 18.6254L37.6044 16.2854C38.2578 16.7121 38.8844 17.0454 39.4844 17.2854C40.0978 17.5254 40.6511 17.6454 41.1444 17.6454C41.6911 17.6454 41.9644 17.4854 41.9644 17.1654C41.9644 16.9921 41.8511 16.8521 41.6244 16.7454C41.4111 16.6388 41.0644 16.5121 40.5844 16.3654C39.7578 16.0721 39.0644 15.7988 38.5044 15.5454C37.9578 15.2921 37.5444 14.9854 37.2644 14.6254C36.9978 14.2521 36.8644 13.7588 36.8644 13.1454C36.8644 12.0654 37.2644 11.1788 38.0644 10.4854C38.8644 9.7921 39.9711 9.44543 41.3844 9.44543C42.0911 9.44543 42.7978 9.55877 43.5044 9.78543C44.2244 9.99877 44.9178 10.3921 45.5844 10.9654L44.1444 13.2854C43.4778 12.8721 42.9111 12.5788 42.4444 12.4054C41.9911 12.2321 41.5844 12.1454 41.2244 12.1454C40.6644 12.1454 40.3844 12.3321 40.3844 12.7054C40.3844 12.9054 40.4911 13.0588 40.7044 13.1654C40.9178 13.2721 41.2578 13.3921 41.7244 13.5254C42.6311 13.7921 43.3711 14.0654 43.9444 14.3454C44.5178 14.6121 44.9378 14.9388 45.2044 15.3254C45.4844 15.7121 45.6244 16.2188 45.6244 16.8454C45.6244 17.9521 45.2311 18.8188 44.4444 19.4454C43.6711 20.0721 42.6111 20.3854 41.2644 20.3854Z" fill="#9893A3" fill-opacity="0.6"/>
<path d="M52.004 20.3854C51.1506 20.3854 50.384 20.1454 49.704 19.6654C49.024 19.1854 48.4906 18.5321 48.104 17.7054C47.7173 16.8788 47.524 15.9388 47.524 14.8854C47.524 13.8454 47.7306 12.9188 48.144 12.1054C48.5706 11.2921 49.1506 10.6521 49.884 10.1854C50.6173 9.70543 51.4506 9.46543 52.384 9.46543C53.1706 9.46543 53.8373 9.62543 54.384 9.94543C54.944 10.2654 55.4106 10.7121 55.784 11.2854V9.66543H59.084V24.4654H55.284V18.6254C54.6706 19.7988 53.5773 20.3854 52.004 20.3854ZM53.484 17.1854C54.1906 17.1854 54.7906 16.8254 55.284 16.1054V14.2254C55.1106 13.7588 54.8373 13.3854 54.464 13.1054C54.104 12.8121 53.724 12.6654 53.324 12.6654C52.7773 12.6654 52.3173 12.8921 51.944 13.3454C51.584 13.7988 51.404 14.3454 51.404 14.9854C51.404 15.6388 51.5973 16.1721 51.984 16.5854C52.3706 16.9854 52.8706 17.1854 53.484 17.1854Z" fill="#9893A3" fill-opacity="0.6"/>
<path d="M61.9132 16.5854V9.66543H65.7132V15.7254C65.7132 16.1788 65.8132 16.5388 66.0132 16.8054C66.2265 17.0588 66.5132 17.1854 66.8732 17.1854C67.1665 17.1854 67.4665 17.1188 67.7732 16.9854C68.0799 16.8521 68.3865 16.5588 68.6932 16.1054V9.66543H72.4932V15.9854C72.4932 16.3454 72.5465 16.5988 72.6532 16.7454C72.7599 16.8788 72.9465 16.9588 73.2132 16.9854V20.1854C72.5599 20.3188 72.0265 20.3854 71.6132 20.3854C70.3199 20.3854 69.5732 19.8988 69.3732 18.9254L69.2932 18.5454C68.7999 19.1988 68.2065 19.6721 67.5132 19.9654C66.8332 20.2454 66.0599 20.3854 65.1932 20.3854C64.1399 20.3854 63.3265 20.0588 62.7532 19.4054C62.1932 18.7521 61.9132 17.8121 61.9132 16.5854Z" fill="#9893A3" fill-opacity="0.6"/>
<path d="M75.1871 17.0054C75.1871 16.2988 75.3804 15.6788 75.7671 15.1454C76.1538 14.5988 76.6871 14.1721 77.3671 13.8654C78.0604 13.5588 78.8471 13.4054 79.7271 13.4054C80.5804 13.4054 81.2871 13.5388 81.8471 13.8054V13.4854C81.8471 12.9921 81.7004 12.6254 81.4071 12.3854C81.1271 12.1454 80.6671 12.0254 80.0271 12.0254C79.4404 12.0254 78.8871 12.1254 78.3671 12.3254C77.8604 12.5121 77.3271 12.7921 76.7671 13.1654L75.6671 10.8054C77.0538 9.9121 78.6338 9.46543 80.4071 9.46543C82.0738 9.46543 83.3604 9.84543 84.2671 10.6054C85.1871 11.3521 85.6471 12.4654 85.6471 13.9454V15.9854C85.6471 16.3454 85.7004 16.5988 85.8071 16.7454C85.9138 16.8788 86.1004 16.9588 86.3671 16.9854V20.1854C86.0604 20.2521 85.7671 20.2988 85.4871 20.3254C85.2204 20.3654 84.9804 20.3854 84.7671 20.3854C84.0871 20.3854 83.5671 20.2654 83.2071 20.0254C82.8604 19.7721 82.6338 19.4054 82.5271 18.9254L82.4471 18.5454C81.4871 19.7721 80.2938 20.3854 78.8671 20.3854C78.1738 20.3854 77.5471 20.2388 76.9871 19.9454C76.4271 19.6521 75.9871 19.2521 75.6671 18.7454C75.3471 18.2254 75.1871 17.6454 75.1871 17.0054ZM81.3471 17.2654C81.6804 17.0388 81.8471 16.7921 81.8471 16.5254V15.7454C81.6338 15.6654 81.3871 15.5988 81.1071 15.5454C80.8404 15.4921 80.6004 15.4654 80.3871 15.4654C79.9338 15.4654 79.5471 15.5788 79.2271 15.8054C78.9204 16.0321 78.7671 16.3188 78.7671 16.6654C78.7671 16.9588 78.8804 17.1988 79.1071 17.3854C79.3471 17.5721 79.6471 17.6654 80.0071 17.6654C80.5004 17.6654 80.9471 17.5321 81.3471 17.2654Z" fill="#9893A3" fill-opacity="0.6"/>
<path d="M95.8798 12.9054C95.1464 12.9054 94.4798 12.9854 93.8798 13.1454C93.2798 13.3054 92.8331 13.5721 92.5398 13.9454V20.1854H88.7398V9.66543H92.2198V11.6654C92.5931 10.9588 93.0598 10.4188 93.6198 10.0454C94.1798 9.65877 94.7731 9.46543 95.3998 9.46543C95.6531 9.46543 95.8131 9.4721 95.8798 9.48543V12.9054Z" fill="#9893A3" fill-opacity="0.6"/>
<path d="M103.24 20.3854C102.013 20.3854 100.967 20.1388 100.1 19.6454C99.2467 19.1521 98.5934 18.4988 98.1401 17.6854C97.7001 16.8721 97.4801 15.9988 97.4801 15.0654C97.4801 14.0521 97.7001 13.1254 98.1401 12.2854C98.5801 11.4321 99.2267 10.7521 100.08 10.2454C100.933 9.72543 101.987 9.46543 103.24 9.46543C104.493 9.46543 105.547 9.71877 106.4 10.2254C107.253 10.7321 107.9 11.3988 108.34 12.2254C108.78 13.0521 109 13.9521 109 14.9254C109 15.3388 108.967 15.7254 108.9 16.0854H101.52C101.56 16.6454 101.767 17.0521 102.14 17.3054C102.513 17.5454 102.92 17.6654 103.36 17.6654C103.773 17.6654 104.16 17.5721 104.52 17.3854C104.893 17.1988 105.14 16.9388 105.26 16.6054L108.48 17.5254C108.053 18.3654 107.393 19.0521 106.5 19.5854C105.607 20.1188 104.52 20.3854 103.24 20.3854ZM101.44 13.8054H104.92C104.867 13.2988 104.68 12.8988 104.36 12.6054C104.053 12.3121 103.66 12.1654 103.18 12.1654C102.7 12.1654 102.307 12.3121 102 12.6054C101.693 12.8988 101.507 13.2988 101.44 13.8054Z" fill="#9893A3" fill-opacity="0.6"/>
</svg>
