<svg width="101" height="25" viewBox="0 0 101 25" fill="none" xmlns="http://www.w3.org/2000/svg">
<path fill-rule="evenodd" clip-rule="evenodd" d="M1.31792 11.2874C2.60974 5.18571 7.27236 0.902649 12.6229 0.902649C17.9735 0.902649 22.6361 5.18571 23.9279 11.2874H22.9068C21.1842 11.2576 19.4969 11.8625 18.0818 13.0174C18.0002 13.0869 17.9149 13.1503 17.8265 13.2074H17.7074C17.619 13.1503 17.5338 13.0869 17.4521 13.0174C14.532 10.7099 10.7138 10.7099 7.79372 13.0174C7.71206 13.0869 7.62679 13.1503 7.53843 13.2074H7.4193C7.33094 13.1503 7.24567 13.0869 7.16401 13.0174C5.74898 11.8625 4.06168 11.2576 2.33907 11.2874H1.31792ZM21.0695 17.5574C21.5937 17.0776 22.2434 16.8267 22.9075 16.8474H24.2776V13.6374H22.9075C21.7377 13.6207 20.5945 14.0486 19.6484 14.8574C18.5554 15.8042 17.0651 15.8042 15.9722 14.8574C13.9852 13.2319 11.3472 13.2319 9.36025 14.8574C8.26732 15.8042 6.77703 15.8042 5.68411 14.8574C4.72626 14.0383 3.56674 13.6099 2.38238 13.6374H0.969788V16.8474H2.33983C3.00401 16.8267 3.65371 17.0776 4.17791 17.5574C6.16145 19.184 8.79782 19.184 10.7814 17.5574C11.3062 17.0791 11.9555 16.8283 12.6194 16.8474C13.2838 16.825 13.934 17.0761 14.4575 17.5574C16.4445 19.1828 19.0825 19.1828 21.0695 17.5574ZM22.9075 22.5874C22.2434 22.5667 21.5937 22.8176 21.0695 23.2974C19.0825 24.9228 16.4445 24.9228 14.4575 23.2974C13.934 22.8161 13.2838 22.565 12.6194 22.5874C11.9555 22.5683 11.3062 22.8191 10.7814 23.2974C8.79782 24.924 6.16145 24.924 4.17791 23.2974C3.65371 22.8176 3.00401 22.5667 2.33983 22.5874H0.969788V19.3774H2.38238C3.56674 19.3499 4.72626 19.7783 5.68411 20.5974C6.77703 21.5442 8.26732 21.5442 9.36025 20.5974C11.3472 18.9719 13.9852 18.9719 15.9722 20.5974C17.0651 21.5442 18.5554 21.5442 19.6484 20.5974C20.5945 19.7886 21.7377 19.3607 22.9075 19.3774H24.2776V22.5874H22.9075Z" fill="#9893A3" fill-opacity="0.6"/>
<path d="M35.102 20.1373C34.0486 20.1373 33.282 19.804 32.802 19.1373C32.322 18.4573 32.082 17.4907 32.082 16.2373V10.0773H34.382V15.9373C34.382 16.7507 34.502 17.324 34.742 17.6573C34.982 17.9907 35.3686 18.1573 35.902 18.1573C36.3286 18.1573 36.702 18.0507 37.022 17.8373C37.3553 17.624 37.7086 17.2773 38.082 16.7973V10.0773H40.382V19.8973H38.502L38.322 18.4573H38.262C37.8353 18.964 37.3686 19.3707 36.862 19.6773C36.3686 19.984 35.782 20.1373 35.102 20.1373Z" fill="#9893A3" fill-opacity="0.6"/>
<path d="M42.2953 19.8973V10.0773H44.1953L44.3553 11.4173H44.4353C44.8486 10.9773 45.2953 10.604 45.7753 10.2973C46.2686 9.99068 46.8219 9.83734 47.4353 9.83734C48.1553 9.83734 48.7286 9.99068 49.1553 10.2973C49.5953 10.604 49.9286 11.0373 50.1553 11.5973C50.6219 11.0907 51.1086 10.6707 51.6153 10.3373C52.1219 10.004 52.6886 9.83734 53.3153 9.83734C54.3553 9.83734 55.1219 10.1773 55.6153 10.8573C56.1086 11.524 56.3553 12.484 56.3553 13.7373V19.8973H54.0353V14.0373C54.0353 13.224 53.9086 12.6507 53.6553 12.3173C53.4153 11.984 53.0419 11.8173 52.5353 11.8173C51.9219 11.8173 51.2353 12.224 50.4753 13.0373V19.8973H48.1753V14.0373C48.1753 13.224 48.0486 12.6507 47.7953 12.3173C47.5553 11.984 47.1753 11.8173 46.6553 11.8173C46.0419 11.8173 45.3553 12.224 44.5953 13.0373V19.8973H42.2953Z" fill="#9893A3" fill-opacity="0.6"/>
<path d="M62.9107 20.1373C62.4574 20.1373 61.9974 20.0307 61.5307 19.8173C61.0774 19.5907 60.6441 19.2707 60.2307 18.8573H60.1707L59.9707 19.8973H58.1507V5.77734H60.4507V9.41734L60.3907 11.0573C60.8041 10.6973 61.2507 10.404 61.7307 10.1773C62.2241 9.95068 62.7241 9.83734 63.2307 9.83734C63.8441 9.83734 64.3907 9.95734 64.8707 10.1973C65.3507 10.424 65.7574 10.7573 66.0907 11.1973C66.4241 11.624 66.6774 12.144 66.8507 12.7573C67.0241 13.3707 67.1107 14.0573 67.1107 14.8173C67.1107 15.6573 66.9907 16.4107 66.7507 17.0773C66.5241 17.7307 66.2174 18.284 65.8307 18.7373C65.4441 19.1907 64.9974 19.5373 64.4907 19.7773C63.9841 20.0173 63.4574 20.1373 62.9107 20.1373ZM62.4307 18.2373C63.0841 18.2373 63.6307 17.9573 64.0707 17.3973C64.5107 16.824 64.7307 15.9773 64.7307 14.8573C64.7307 13.8707 64.5641 13.104 64.2307 12.5573C63.8974 12.0107 63.3574 11.7373 62.6107 11.7373C61.9174 11.7373 61.1974 12.104 60.4507 12.8373V17.4173C60.7974 17.724 61.1374 17.9373 61.4707 18.0573C61.8174 18.1773 62.1374 18.2373 62.4307 18.2373Z" fill="#9893A3" fill-opacity="0.6"/>
<path d="M68.4202 19.8973V10.0773H70.3203L70.4803 11.8173H70.5602C70.9069 11.1773 71.3269 10.6907 71.8203 10.3573C72.3136 10.0107 72.8203 9.83734 73.3403 9.83734C73.8069 9.83734 74.1803 9.90401 74.4603 10.0373L74.0602 12.0373C73.8869 11.984 73.7269 11.944 73.5802 11.9173C73.4336 11.8907 73.2536 11.8773 73.0403 11.8773C72.6536 11.8773 72.2469 12.0307 71.8203 12.3373C71.3936 12.6307 71.0269 13.1507 70.7202 13.8973V19.8973H68.4202Z" fill="#9893A3" fill-opacity="0.6"/>
<path d="M78.8859 20.1373C78.2059 20.1373 77.5725 20.024 76.9859 19.7973C76.3992 19.5573 75.8859 19.2173 75.4459 18.7773C75.0059 18.3373 74.6592 17.804 74.4059 17.1773C74.1659 16.5373 74.0459 15.8107 74.0459 14.9973C74.0459 14.1973 74.1725 13.4773 74.4259 12.8373C74.6792 12.1973 75.0125 11.6573 75.4259 11.2173C75.8525 10.7773 76.3392 10.4373 76.8859 10.1973C77.4325 9.95734 77.9925 9.83734 78.5659 9.83734C79.2325 9.83734 79.8192 9.95068 80.3259 10.1773C80.8325 10.404 81.2525 10.724 81.5859 11.1373C81.9325 11.5507 82.1925 12.044 82.3659 12.6173C82.5392 13.1907 82.6259 13.8173 82.6259 14.4973C82.6259 14.724 82.6125 14.9373 82.5859 15.1373C82.5725 15.3373 82.5525 15.4973 82.5259 15.6173H76.2859C76.3925 16.4973 76.6992 17.1773 77.2059 17.6573C77.7259 18.124 78.3859 18.3573 79.1859 18.3573C79.6125 18.3573 80.0059 18.2973 80.3659 18.1773C80.7392 18.044 81.1059 17.864 81.4659 17.6373L82.2459 19.0773C81.7792 19.384 81.2592 19.6373 80.6859 19.8373C80.1125 20.0373 79.5125 20.1373 78.8859 20.1373ZM76.2659 14.0573H80.6259C80.6259 13.2973 80.4592 12.704 80.1259 12.2773C79.8059 11.8373 79.3059 11.6173 78.6259 11.6173C78.0392 11.6173 77.5259 11.824 77.0859 12.2373C76.6459 12.6507 76.3725 13.2573 76.2659 14.0573Z" fill="#9893A3" fill-opacity="0.6"/>
<path d="M86.0626 20.1373C85.2359 20.1373 84.6559 19.8907 84.3226 19.3973C83.9893 18.904 83.8226 18.2307 83.8226 17.3773V5.77734H86.1226V17.4973C86.1226 17.7773 86.1759 17.9773 86.2826 18.0973C86.3893 18.204 86.5026 18.2573 86.6226 18.2573C86.6759 18.2573 86.7226 18.2573 86.7626 18.2573C86.8159 18.2573 86.8893 18.244 86.9826 18.2173L87.2826 19.9373C86.9759 20.0707 86.5693 20.1373 86.0626 20.1373Z" fill="#9893A3" fill-opacity="0.6"/>
<path d="M90.4923 20.1373C89.6656 20.1373 89.0856 19.8907 88.7523 19.3973C88.4189 18.904 88.2523 18.2307 88.2523 17.3773V5.77734H90.5523V17.4973C90.5523 17.7773 90.6056 17.9773 90.7123 18.0973C90.819 18.204 90.9323 18.2573 91.0523 18.2573C91.1056 18.2573 91.1523 18.2573 91.1923 18.2573C91.2456 18.2573 91.3189 18.244 91.4123 18.2173L91.7123 19.9373C91.4056 20.0707 90.9989 20.1373 90.4923 20.1373Z" fill="#9893A3" fill-opacity="0.6"/>
<path d="M95.062 20.1373C94.1953 20.1373 93.4953 19.8773 92.962 19.3573C92.4286 18.824 92.162 18.124 92.162 17.2573C92.162 16.7373 92.2686 16.2773 92.482 15.8773C92.7086 15.464 93.0553 15.1107 93.522 14.8173C94.002 14.524 94.602 14.2773 95.322 14.0773C96.0553 13.8773 96.9286 13.724 97.942 13.6173C97.9286 13.364 97.8886 13.124 97.822 12.8973C97.7686 12.6573 97.6686 12.4507 97.522 12.2773C97.3886 12.0907 97.2086 11.9507 96.982 11.8573C96.7553 11.7507 96.4753 11.6973 96.142 11.6973C95.662 11.6973 95.1886 11.7907 94.722 11.9773C94.2686 12.164 93.822 12.3907 93.382 12.6573L92.542 11.1173C93.0886 10.7707 93.702 10.4707 94.382 10.2173C95.062 9.96401 95.7953 9.83734 96.582 9.83734C97.8086 9.83734 98.722 10.204 99.322 10.9373C99.9353 11.6573 100.242 12.704 100.242 14.0773V19.8973H98.342L98.182 18.8173H98.102C97.662 19.1907 97.1886 19.504 96.682 19.7573C96.1886 20.0107 95.6486 20.1373 95.062 20.1373ZM95.802 18.3373C96.202 18.3373 96.562 18.244 96.882 18.0573C97.2153 17.8707 97.5686 17.604 97.942 17.2573V15.0573C97.2753 15.1373 96.7153 15.244 96.262 15.3773C95.8086 15.5107 95.442 15.664 95.162 15.8373C94.882 15.9973 94.682 16.184 94.562 16.3973C94.442 16.6107 94.382 16.8373 94.382 17.0773C94.382 17.5173 94.5153 17.8373 94.782 18.0373C95.0486 18.2373 95.3886 18.3373 95.802 18.3373Z" fill="#9893A3" fill-opacity="0.6"/>
</svg>
