<svg width="600" height="498" viewBox="0 0 600 498" fill="none" xmlns="http://www.w3.org/2000/svg">
<g clip-path="url(#clip0_172_1610)">
<path d="M33.1861 159.246C33.1861 179.94 38.1198 196.974 46.6783 211.566C49.503 216.372 52.7095 220.947 56.2673 225.246C87.7294 263.474 146.223 284.397 199.09 318.288C355.145 418.327 372.049 258.025 365.001 159.246C362.158 119.389 346.533 82.8792 321.711 54.9247C316.498 49.0454 310.866 43.5455 304.86 38.4674C276.679 14.6258 240.272 0.198486 199.09 0.198486C128.437 0.198486 68.1012 42.5332 44.1789 102.19C36.9059 120.344 33.1754 139.707 33.1861 159.246Z" fill="#9E99FF"/>
<path d="M163.743 36.0432L321.711 54.9247C316.498 49.0454 310.866 43.5455 304.86 38.4674L163.743 36.0432Z" fill="#CFCFDE"/>
<path d="M46.6784 211.566C49.5031 216.372 52.7096 220.947 56.2674 225.246L191.58 209.077L46.6784 211.566Z" fill="#CFCFDE"/>
<path d="M38.659 118.594L267.985 89.0454L44.179 102.19C42.0296 107.551 40.1867 113.027 38.659 118.594Z" fill="#CFCFDE"/>
<path d="M349.445 42.5639C349.445 42.9699 349.457 43.37 349.492 43.7642C349.672 46.2077 350.397 48.5806 351.616 50.7102C352.836 52.8398 354.518 54.6724 356.54 56.0746C358.562 57.4767 360.874 58.4131 363.307 58.8156C365.739 59.218 368.232 59.0763 370.602 58.4008C372.973 57.7254 375.162 56.5331 377.01 54.9109C378.858 53.2887 380.319 51.2775 381.285 49.0236C382.252 46.7697 382.701 44.33 382.598 41.8822C382.496 39.4344 381.845 37.0401 380.694 34.8736C380.337 34.1947 379.929 33.5437 379.473 32.9261C377.49 30.1934 374.711 28.1308 371.511 27.0163C368.311 25.9018 364.844 25.7891 361.577 26.6934C358.31 27.5977 355.401 29.4755 353.243 32.0734C351.084 34.6714 349.779 37.8646 349.504 41.2224C349.463 41.6637 349.445 42.1108 349.445 42.5639Z" fill="#9E99FF"/>
<path d="M349.445 42.5639C349.445 42.9699 349.457 43.37 349.492 43.7642L374.321 40.7987L349.504 41.2223C349.463 41.6636 349.445 42.1108 349.445 42.5639Z" fill="#CFCFDE"/>
<path d="M355.367 50.8661L378.336 53.6139C378.988 52.8918 379.575 52.1141 380.089 51.2897L355.367 50.8661Z" fill="#CFCFDE"/>
<path d="M361.883 32.626L380.693 34.8736C380.337 34.1947 379.929 33.5437 379.473 32.9261L361.883 32.626Z" fill="#CFCFDE"/>
<path d="M122.166 339.187C122.358 339.545 122.557 339.893 122.774 340.225C124.086 342.3 125.847 344.058 127.929 345.371C130.01 346.685 132.361 347.52 134.809 347.817C137.257 348.114 139.741 347.864 142.079 347.087C144.418 346.309 146.553 345.024 148.328 343.323C150.103 341.622 151.474 339.55 152.341 337.256C153.208 334.963 153.549 332.506 153.34 330.065C153.13 327.624 152.375 325.26 151.13 323.145C149.884 321.031 148.18 319.219 146.14 317.841C145.505 317.408 144.837 317.023 144.143 316.689C141.102 315.199 137.674 314.671 134.321 315.177C130.968 315.683 127.853 317.198 125.394 319.518C122.935 321.838 121.252 324.852 120.571 328.152C119.89 331.452 120.244 334.88 121.585 337.974C121.757 338.383 121.952 338.787 122.166 339.187Z" fill="#9E99FF"/>
<path d="M122.166 339.187C122.358 339.545 122.557 339.893 122.775 340.225L143.307 326.043L121.586 337.974C121.757 338.383 121.953 338.786 122.166 339.187Z" fill="#CFCFDE"/>
<path d="M131.316 343.762L152.901 335.493C153.136 334.552 153.287 333.591 153.353 332.624L131.316 343.762Z" fill="#CFCFDE"/>
<path d="M128.464 324.616L146.14 317.841C145.505 317.408 144.837 317.023 144.143 316.689L128.464 324.616Z" fill="#CFCFDE"/>
<path d="M4.70926 55.1851C4.42393 55.4758 4.15125 55.7704 3.89965 56.0773C2.31075 57.951 1.16251 60.1532 0.538631 62.5234C-0.0852432 64.8937 -0.169067 67.3723 0.293247 69.7788C0.755558 72.1854 1.75242 74.4591 3.21113 76.4345C4.66985 78.41 6.55371 80.0373 8.72553 81.198C10.8974 82.3586 13.3024 83.0235 15.7656 83.144C18.2288 83.2645 20.688 82.8377 22.9641 81.8947C25.2402 80.9517 27.2761 79.5162 28.9231 77.6928C30.5702 75.8694 31.7871 73.7039 32.4853 71.3542C32.7072 70.6209 32.8728 69.8719 32.9806 69.1137C33.4814 65.7818 32.9414 62.3774 31.4337 59.3599C29.926 56.3424 27.523 53.8568 24.5488 52.2384C21.5747 50.62 18.1725 49.9466 14.8011 50.3091C11.4296 50.6717 8.25125 52.0526 5.69457 54.2658C5.35474 54.553 5.02769 54.8608 4.70926 55.1851Z" fill="#9E99FF"/>
<path d="M4.70921 55.1851C4.42388 55.4758 4.1512 55.7704 3.8996 56.0773L23.7585 71.1756L5.69452 54.2657C5.35467 54.5529 5.02764 54.8607 4.70921 55.1851Z" fill="#CFCFDE"/>
<path d="M3.11456 65.2368L17.6268 83.1353C18.601 83.0706 19.5675 82.9208 20.5153 82.6875L3.11456 65.2368Z" fill="#CFCFDE"/>
<path d="M20.5981 56.6976L32.4853 71.3542C32.7071 70.6209 32.8727 69.8719 32.9806 69.1137L20.5981 56.6976Z" fill="#CFCFDE"/>
<path d="M315.834 358.795C315.834 358.795 279.441 360.302 279.441 369.34C279.441 378.379 320.383 369.34 320.383 369.34L315.834 358.795Z" fill="#9E616A"/>
<path d="M370.424 497.386L438.661 492.866L441.694 456.712L456.858 488.347L523.579 479.309C522.062 422.065 497.8 366.327 496.284 358.795C494.767 351.263 491.143 320.14 491.143 320.14C484.517 306.176 449.792 304.865 422.572 306.131C411.29 306.643 401.282 307.607 395.111 308.3C391.032 308.752 388.621 309.083 388.621 309.083C377.748 320.216 370.742 335.385 366.436 352.333C350.908 413.388 370.424 497.386 370.424 497.386Z" fill="#2F2E41"/>
<path d="M446.243 147.897C425.306 147.897 408.334 131.036 408.334 110.236C408.334 89.4371 425.306 72.5759 446.243 72.5759C467.18 72.5759 484.153 89.4371 484.153 110.236C484.153 131.036 467.18 147.897 446.243 147.897Z" fill="#9E616A"/>
<path d="M472.022 119.275C472.022 119.275 482.636 165.974 499.317 179.532C515.997 193.089 434.112 179.532 434.112 179.532C434.112 179.532 452.309 149.403 438.661 135.845C425.014 122.288 472.022 119.275 472.022 119.275Z" fill="#9E616A"/>
<path d="M394.686 312.096L419.843 314.868L490.218 322.641C490.218 322.641 490.552 321.752 491.143 320.14C496.253 306.296 520.864 238.93 523.579 218.698C526.611 196.102 494.767 168.987 494.767 168.987C494.767 168.987 464.44 162.961 455.342 162.961C446.243 162.961 409.85 176.519 409.85 176.519L396.279 297.8L395.111 308.3L394.686 312.096Z" fill="#CFCFDE"/>
<path opacity="0.15" d="M366.436 352.333L417.432 322.641C417.432 322.641 418.327 319.749 419.843 314.868C420.601 312.428 421.526 309.475 422.572 306.131C428.456 287.361 438.328 256.389 446.243 233.763C458.374 199.115 399.235 295.526 399.235 295.526L396.278 297.8L395.111 308.3C391.032 308.752 388.621 309.083 388.621 309.083C377.748 320.216 370.742 335.385 366.436 352.333Z" fill="#2F2E41"/>
<path d="M434.112 179.531C434.112 179.531 449.276 199.115 437.145 233.762C425.014 268.41 408.334 322.641 408.334 322.641L320.383 373.859L308.252 358.795L390.137 295.526C390.137 295.526 393.17 181.038 408.334 176.519C423.497 171.999 434.112 179.531 434.112 179.531Z" fill="#CFCFDE"/>
<path d="M509.173 311.343C509.173 311.343 487.944 355.029 478.845 350.51C469.747 345.991 501.591 300.798 501.591 300.798L509.173 311.343Z" fill="#9E616A"/>
<path d="M511.448 191.583L591.816 257.865C591.816 257.865 622.143 278.955 566.037 294.019C509.931 309.083 505.382 318.122 505.382 318.122C505.382 318.122 499.317 298.539 491.735 301.551L556.939 269.917L503.866 238.282L511.448 191.583Z" fill="#CFCFDE"/>
<path d="M543.748 141.147C539.53 139.072 530.216 134.883 522.282 129.838C522.838 113.423 520.804 98.5221 514.848 90.6235C511.504 83.0824 504.484 75.5324 498.985 69.5867C485.483 54.9855 455.625 46.8353 450.329 54.1306C410.276 54.9161 406.059 86.1055 406.059 86.1055C406.267 99.1512 419.916 99.564 431.872 99.0886C430.801 107.995 433.654 117.249 441.917 121.353C457.716 129.201 462.456 139.403 454.556 146.466C446.657 153.53 432.437 172.365 451.396 177.073C470.356 181.782 472.726 191.2 467.196 195.124C461.666 199.048 479.836 188.061 479.836 188.061C479.836 188.061 482.996 206.896 499.586 202.187C501.072 201.765 502.558 200.684 504.019 199.067C508.5 203.957 512.497 206.849 515.509 206.865C532.763 206.956 530.694 187.972 530.694 187.972C530.694 187.972 551.173 193.685 544.782 191.388C538.392 189.09 538.119 179.387 555.098 169.774C572.078 160.161 553.273 145.832 543.748 141.147Z" fill="#2F2E41"/>
<path d="M332.061 190.355L332.336 190.319L331.665 192.853C331.031 196.388 330.11 199.866 328.911 203.254L309.231 277.572C308.603 279.944 307.292 282.082 305.458 283.724C303.624 285.366 301.347 286.441 298.907 286.816L258.774 292.984C256.179 293.383 253.524 292.971 251.174 291.806C248.825 290.641 246.897 288.781 245.658 286.481L207.518 215.712C206.327 213.751 205.238 211.73 204.256 209.658L202.961 207.255L203.163 207.229C199.12 197.728 197.34 187.427 197.963 177.13C198.585 166.834 201.593 156.819 206.752 147.867C211.91 138.915 219.08 131.267 227.703 125.52C236.325 119.773 246.168 116.081 256.462 114.734C266.756 113.386 277.225 114.418 287.052 117.75C296.879 121.082 305.798 126.624 313.115 133.943C320.432 141.262 325.949 150.161 329.235 159.946C332.521 169.731 333.488 180.138 332.061 190.355H332.061Z" fill="#2F2E41"/>
<path d="M256.312 297.839C257.018 297.839 257.724 297.785 258.423 297.678L300.373 291.23C303.037 290.821 305.523 289.648 307.526 287.855C309.529 286.062 310.961 283.727 311.646 281.136L332.217 203.454C333.474 199.897 334.44 196.246 335.106 192.535L335.626 189.137C337.026 178.28 335.866 167.248 332.238 156.913C328.61 146.577 322.614 137.221 314.722 129.583C306.83 121.944 297.26 116.233 286.765 112.899C276.27 109.565 265.139 108.7 254.251 110.373L254.432 111.536C265.202 109.887 276.211 110.762 286.581 114.09C296.95 117.418 306.394 123.107 314.157 130.704C321.92 138.301 327.789 147.595 331.295 157.845C334.801 168.095 335.847 179.017 334.35 189.74L333.95 192.282C333.289 195.962 332.331 199.582 331.085 203.109L310.501 280.837C309.874 283.206 308.564 285.341 306.733 286.981C304.902 288.621 302.628 289.693 300.192 290.067L258.242 296.515C255.651 296.91 253 296.498 250.654 295.336C248.309 294.173 246.383 292.316 245.144 290.021L244.099 290.576C245.284 292.77 247.046 294.604 249.196 295.883C251.347 297.161 253.805 297.838 256.312 297.839Z" fill="#CFCFDE"/>
<path d="M245.67 207.248L271.196 276.484L269.757 277.007L244.232 207.771L245.67 207.248Z" fill="#CFCFDE"/>
<path d="M287.347 200.841L288.878 200.908L285.62 274.571L284.089 274.504L287.347 200.841Z" fill="#CFCFDE"/>
<path d="M259.858 333.058L313.612 324.796C314.012 324.733 314.37 324.514 314.608 324.189C314.846 323.864 314.945 323.458 314.883 323.061C314.821 322.663 314.604 322.306 314.278 322.068C313.952 321.829 313.544 321.729 313.143 321.788L259.389 330.049C259.19 330.079 258.998 330.147 258.825 330.25C258.652 330.354 258.501 330.49 258.381 330.652C258.261 330.813 258.175 330.997 258.127 331.192C258.079 331.387 258.07 331.589 258.101 331.787C258.132 331.986 258.202 332.176 258.307 332.347C258.412 332.518 258.55 332.667 258.713 332.785C258.877 332.904 259.062 332.988 259.258 333.035C259.455 333.082 259.659 333.089 259.858 333.058Z" fill="#2F2E41"/>
<path d="M258.48 321.717L312.234 313.456C312.433 313.427 312.625 313.358 312.798 313.255C312.971 313.151 313.122 313.015 313.242 312.853C313.362 312.692 313.448 312.508 313.496 312.313C313.544 312.119 313.553 311.916 313.522 311.718C313.492 311.52 313.421 311.329 313.316 311.158C313.211 310.987 313.073 310.838 312.91 310.72C312.746 310.602 312.561 310.517 312.365 310.47C312.168 310.424 311.965 310.416 311.765 310.448L258.011 318.709C257.811 318.739 257.619 318.807 257.446 318.91C257.273 319.014 257.123 319.15 257.003 319.312C256.883 319.473 256.797 319.657 256.748 319.852C256.7 320.047 256.691 320.249 256.722 320.447C256.753 320.646 256.823 320.836 256.928 321.007C257.034 321.178 257.172 321.327 257.335 321.445C257.498 321.563 257.684 321.648 257.88 321.695C258.076 321.742 258.28 321.749 258.48 321.717Z" fill="#2F2E41"/>
<path d="M257.101 310.377L310.855 302.116C311.255 302.052 311.613 301.834 311.851 301.509C312.089 301.184 312.188 300.778 312.127 300.381C312.065 299.983 311.847 299.626 311.521 299.388C311.195 299.149 310.787 299.048 310.387 299.108L256.633 307.369C256.233 307.433 255.875 307.651 255.637 307.976C255.399 308.301 255.3 308.707 255.362 309.104C255.424 309.502 255.641 309.859 255.967 310.097C256.293 310.336 256.701 310.437 257.101 310.377H257.101Z" fill="#2F2E41"/>
<path d="M288.406 339.656C277.743 341.295 268.181 336.72 267.046 329.438L305.659 323.504C306.793 330.786 299.068 338.018 288.406 339.656Z" fill="#2F2E41"/>
<path d="M269.084 192.661C271.377 192.309 273.275 190.508 274.315 189.3C274.656 188.905 274.988 188.494 275.321 188.083C276.533 186.585 277.676 185.17 279.27 184.432C282.786 182.802 286.929 185.079 290.516 187.521L291.383 186.266C287.439 183.58 282.84 181.098 278.622 183.052C276.706 183.94 275.394 185.561 274.127 187.129C273.804 187.529 273.482 187.927 273.151 188.311C272.07 189.565 269.912 191.599 267.601 191.13C266.626 190.848 265.72 190.371 264.938 189.73C264.342 189.288 263.712 188.893 263.054 188.549C261.719 187.913 260.225 187.683 258.759 187.889C257.294 188.095 255.922 188.727 254.817 189.705C254.423 190.076 254.05 190.468 253.699 190.879C253.01 191.66 252.359 192.396 251.512 192.664C250.26 193.062 248.936 192.351 247.534 191.6C246.088 190.824 244.592 190.022 242.896 190.22C242.841 190.227 242.786 190.234 242.731 190.243C239.713 190.706 238.322 194.022 237.534 196.497L238.996 196.955C240.065 193.591 241.368 191.919 243.076 191.732C244.291 191.59 245.513 192.245 246.806 192.939C248.428 193.809 250.106 194.708 251.977 194.115C253.23 193.719 254.054 192.786 254.851 191.883C255.165 191.514 255.499 191.162 255.851 190.828C256.731 190.063 257.817 189.568 258.975 189.406C260.133 189.243 261.314 189.419 262.374 189.912C262.96 190.222 263.522 190.577 264.053 190.972C265.004 191.743 266.108 192.305 267.293 192.621C267.883 192.741 268.489 192.754 269.084 192.661Z" fill="#CFCFDE"/>
</g>
<defs>
<clipPath id="clip0_172_1610">
<rect width="600" height="497.187" fill="white" transform="matrix(-1 0 0 1 600 0.198486)"/>
</clipPath>
</defs>
</svg>
