<svg width="200" height="146" viewBox="0 0 200 146" fill="none" xmlns="http://www.w3.org/2000/svg">
<path d="M43.0446 0C60.1925 0 72.6159 6.12424 80.315 18.3727C83.8145 23.6221 86.6142 30.0962 88.7139 37.7953C90.8136 45.4943 91.8635 53.5433 91.8635 61.9423C91.8635 80.14 87.1391 96.5879 77.6903 111.286C68.5914 125.984 54.9431 137.533 36.7454 145.932L32.021 136.483C42.1697 132.283 50.9186 125.809 58.2677 117.06C65.9668 108.311 70.5162 99.3876 71.916 90.2887C72.9659 86.0893 73.4908 82.0648 73.4908 78.2152C73.4908 74.7157 72.9659 71.3911 71.916 68.2415C64.217 76.6404 54.0682 80.8399 41.4698 80.8399C29.2213 80.8399 19.2476 77.3404 11.5486 70.3412C3.84952 62.9922 0 53.0184 0 40.42C0 28.5215 4.0245 18.8977 12.0735 11.5486C20.1225 3.84952 30.4462 0 43.0446 0ZM151.181 0C168.329 0 180.752 6.12424 188.451 18.3727C191.951 23.6221 194.751 30.0962 196.85 37.7953C198.95 45.4943 200 53.5433 200 61.9423C200 80.14 195.276 96.5879 185.827 111.286C176.728 125.984 163.08 137.533 144.882 145.932L140.157 136.483C150.306 132.283 159.055 125.809 166.404 117.06C174.103 108.311 178.653 99.3876 180.052 90.2887C181.102 86.0893 181.627 82.0648 181.627 78.2152C181.627 74.7157 181.102 71.3911 180.052 68.2415C172.353 76.6404 162.205 80.8399 149.606 80.8399C137.358 80.8399 127.384 77.3404 119.685 70.3412C111.986 62.9922 108.136 53.0184 108.136 40.42C108.136 28.5215 112.161 18.8977 120.21 11.5486C128.259 3.84952 138.583 0 151.181 0Z" fill="#6C63FF" fill-opacity="0.2"/>
</svg>
